<?xml version="1.0" encoding="UTF-8" standalone="no"?>
<svg
   xmlns:dc="http://purl.org/dc/elements/1.1/"
   xmlns:cc="http://creativecommons.org/ns#"
   xmlns:rdf="http://www.w3.org/1999/02/22-rdf-syntax-ns#"
   xmlns:svg="http://www.w3.org/2000/svg"
   xmlns="http://www.w3.org/2000/svg"
   viewBox="0 0 141.33333 169.33333"
   height="169.33333"
   width="141.33333"
   xml:space="preserve"
   id="svg2"
   version="1.1"><metadata
     id="metadata8"><rdf:RDF><cc:Work
         rdf:about=""><dc:format>image/svg+xml</dc:format><dc:type
           rdf:resource="http://purl.org/dc/dcmitype/StillImage" /></cc:Work></rdf:RDF></metadata><defs
     id="defs6" /><g
     transform="matrix(1.3333333,0,0,-1.3333333,0,169.33333)"
     id="g10"><g
       transform="scale(0.1)"
       id="g12"><path
         id="path14"
         style="fill:#dc1d42;fill-opacity:1;fill-rule:evenodd;stroke:none"
         d="M 7.84375,883.914 H 11.8906 V 666.113 H 7.84375 Z m 66.53125,0 h 75.492 L 103.09,804.332 H 74.375 Z m 135.621,-11.992 v -187.84 l -56.098,99.106 z M 148.219,666.113 H 74.375 v 92.778 h 28.715 l 45.129,-92.778" /><path
         id="path16"
         style="fill:#dc1d42;fill-opacity:1;fill-rule:evenodd;stroke:none"
         d="m 270.063,842.832 h 23.667 c 7.258,0 19.567,-0.633 27.454,-6.941 8.836,-6.946 9.785,-18.305 9.785,-24.618 0,-6.308 -0.949,-17.671 -9.785,-24.613 -7.887,-6.312 -20.196,-6.941 -27.454,-6.941 h -23.667 v 63.113" /><path
         id="path18"
         style="fill:#ec691f;fill-opacity:1;fill-rule:evenodd;stroke:none"
         d="m 488.602,842.832 h 6.945 l 22.719,-82.363 h -52.383 l 22.719,82.363" /><path
         id="path20"
         style="fill:#ec691f;fill-opacity:1;fill-rule:evenodd;stroke:none"
         d="M 545.719,666.113 H 438.43 l 14.199,48.282 h 78.891 l 14.199,-48.282" /><path
         id="path22"
         style="fill:#ec691f;fill-opacity:1;fill-rule:evenodd;stroke:none"
         d="m 539.805,883.914 h 130.754 c -11.426,-3.539 -22.543,-8.601 -32.84,-15.836 -24.301,-17.043 -44.18,-45.762 -44.18,-91.515 0,-52.704 25.875,-79.84 44.18,-92.465 13.051,-9.012 28.281,-14.582 43.855,-17.985 h -69.582 l -72.187,217.801" /><path
         id="path24"
         style="fill:#149b76;fill-opacity:1;fill-rule:evenodd;stroke:none"
         d="m 657.914,777.191 c 0,11.676 1.262,34.715 11.363,51.125 5.364,8.52 17.985,23.664 43.231,24.926 V 701.141 c -22.09,0.949 -35.66,12.625 -43.231,24.929 -10.101,16.41 -11.363,39.133 -11.363,51.121" /><path
         id="path26"
         style="fill:#ec691f;fill-opacity:1;fill-rule:evenodd;stroke:none"
         d="M 332.656,883.914 H 444.344 L 372.156,666.113 H 270.063 v 68.164 h 21.773 c 24.613,0 51.754,1.575 72.582,15.461 24.613,16.41 29.348,40.078 29.348,60.907 0,20.824 -4.735,44.492 -29.348,60.902 -9.547,6.363 -20.418,10.141 -31.762,12.367" /><path
         id="path28"
         style="fill:#149b76;fill-opacity:1;fill-rule:evenodd;stroke:none"
         d="m 871.723,883.914 h -58.571 c 11.43,-3.539 22.547,-8.601 32.84,-15.836 9.578,-6.719 18.469,-15.254 25.731,-25.926 z m 0.601,-42.66 c 10.817,-16.289 17.848,-37.477 17.848,-64.691 0,-52.071 -25.879,-78.895 -44.18,-91.516 -14.051,-9.707 -30.703,-15.488 -47.562,-18.934 H 931.68 V 841.254 Z M 994.16,666.113 h 59.97 V 841.254 H 994.16 Z M 825.797,777.191 c 0,-11.988 -1.262,-34.711 -11.359,-51.121 -7.575,-12.304 -21.145,-23.98 -43.235,-24.929 v 152.101 c 22.09,-0.945 35.66,-12.621 43.235,-24.926 10.097,-16.41 11.359,-39.128 11.359,-51.125" /><path
         id="path30"
         style="fill:#ec691f;fill-opacity:1;fill-rule:nonzero;stroke:none"
         d="m 273.969,668.922 h -54.231 c -25.793,0 -51.586,-0.59 -72.398,-20.813 -24.621,-23.449 -25.211,-60.675 -25.211,-79.437 v -13.481 c 0,-17.003 2.055,-48.363 19.934,-70.351 20.226,-24.621 49.832,-26.965 66.539,-26.965 17.878,0 42.503,3.223 61.261,20.516 9.379,8.793 22.864,26.382 23.45,56.867 0.585,27.262 -9.672,45.433 -22.278,56.867 -8.5,7.617 -24.328,18.172 -50.414,18.172 -18.469,0 -30.191,-4.984 -41.039,-14.949 v 8.5 c 0,12.019 5.57,18.172 8.5,20.812 7.621,6.449 20.227,6.742 29.898,6.742 h 55.989 z M 234.102,535.258 c 0,-9.379 -0.293,-18.469 -4.985,-26.965 -5.273,-9.379 -14.066,-13.484 -22.566,-13.484 -8.504,0 -17.297,4.105 -22.571,13.484 -4.691,8.496 -4.984,17.586 -4.984,26.965 0,9.379 0.293,18.469 4.984,26.965 5.274,9.382 14.067,13.484 22.571,13.484 8.5,0 17.293,-4.102 22.566,-13.484 4.692,-8.496 4.985,-17.586 4.985,-26.965" /><path
         id="path32"
         style="fill:#ec691f;fill-opacity:1;fill-rule:nonzero;stroke:none"
         d="m 481.688,610.297 h -54.813 l -2.055,-18.469 c -9.379,15.246 -25.5,23.156 -45.722,23.156 -21.692,0 -38.399,-8.496 -50.125,-21.691 -10.551,-11.723 -19.641,-30.188 -19.641,-56.277 0,-26.086 9.09,-44.551 19.641,-56.278 11.726,-13.191 28.433,-21.691 50.125,-21.691 30.773,0 42.207,17.293 45.722,23.742 l 2.055,-19.051 h 54.813 z m -55.399,-72.399 c 0,-7.035 -0.59,-17.589 -5.863,-25.796 -5.278,-8.207 -12.899,-12.02 -22.863,-12.02 -9.672,0 -17.586,3.813 -23.157,12.313 -5.277,8.207 -5.863,17.878 -5.863,25.503 0,7.329 0.586,16.997 5.863,25.207 5.571,8.5 13.485,12.313 23.157,12.313 9.964,0 17.585,-3.813 22.863,-12.02 4.691,-7.328 5.863,-16.418 5.863,-25.5 v 0" /><path
         id="path34"
         style="fill:#dc1d42;fill-opacity:1;fill-rule:nonzero;stroke:none"
         d="m 577.73,552.844 v -30.188 h 6.446 c 3.812,0 13.191,-0.297 17.59,-4.984 2.636,-2.93 4.101,-7.621 3.808,-12.313 -0.293,-4.98 -2.051,-9.086 -7.035,-12.015 -4.394,-2.641 -8.793,-2.641 -13.773,-2.641 -5.571,0 -10.848,0.293 -15.828,4.395 -6.45,5.281 -6.747,12.609 -6.747,17.297 v 3.515 H 503.57 c 0,-23.156 13.188,-41.035 34,-50.414 16.125,-7.328 31.953,-8.207 47.778,-8.207 16.418,0 35.468,0.586 52.179,8.5 16.996,7.914 26.672,20.516 26.672,39.863 0,8.207 -2.051,16.121 -7.621,22.571 -2.933,3.519 -8.504,8.5 -17.297,10.554 4.692,1.465 11.141,4.395 16.418,12.016 4.395,6.449 5.571,13.191 5.571,20.227 -0.297,18.761 -9.969,29.898 -25.211,37.226 -11.141,5.274 -26.379,8.5 -49.246,8.5 -26.668,0 -41.036,-4.984 -48.657,-8.5 -16.414,-7.621 -31.07,-24.332 -31.656,-48.953 h 57.453 v 5.57 c 0,7.621 3.223,12.606 6.449,15.242 4.395,3.809 9.672,4.692 14.653,4.692 2.933,0 9.09,0 13.484,-3.52 4.399,-3.515 5.277,-8.793 5.277,-12.308 0,-3.227 -0.586,-7.914 -4.105,-11.434 -4.395,-4.394 -10.258,-4.691 -15.535,-4.691 h -6.446" /><path
         id="path36"
         style="fill:#dc1d42;fill-opacity:1;fill-rule:nonzero;stroke:none"
         d="m 852.574,610.297 h -54.816 l -2.051,-18.469 c -9.379,15.246 -25.5,23.156 -45.727,23.156 -21.691,0 -38.398,-8.496 -50.125,-21.691 -10.55,-11.723 -19.636,-30.188 -19.636,-56.277 0,-26.086 9.086,-44.551 19.636,-56.278 11.727,-13.191 28.434,-21.691 50.125,-21.691 30.778,0 42.211,17.293 45.727,23.742 l 2.051,-19.051 h 54.816 z m -55.402,-72.399 c 0,-7.035 -0.586,-17.589 -5.859,-25.796 -5.278,-8.207 -12.899,-12.02 -22.868,-12.02 -9.672,0 -17.586,3.813 -23.156,12.313 -5.273,8.207 -5.859,17.878 -5.859,25.503 0,7.329 0.586,16.997 5.859,25.207 5.57,8.5 13.484,12.313 23.156,12.313 9.969,0 17.59,-3.813 22.868,-12.02 4.691,-7.328 5.859,-16.418 5.859,-25.5 v 0" /><path
         id="path38"
         style="fill:#149b76;fill-opacity:1;fill-rule:nonzero;stroke:none"
         d="m 935.715,537.898 c 0,7.618 0.879,17.586 5.57,25.207 4.399,7.329 11.727,12.313 23.156,12.313 9.672,0 17.586,-3.813 23.157,-12.313 5.277,-8.21 5.863,-17.878 5.863,-25.207 0,-7.625 -0.586,-17.296 -5.863,-25.503 -5.571,-8.5 -13.485,-12.313 -23.157,-12.313 -11.429,0 -18.757,4.984 -23.156,12.313 -4.691,7.621 -5.57,17.589 -5.57,25.503 z m -55.399,72.399 V 405.113 h 56.864 v 77.676 c 9.383,-15.242 25.504,-23.156 45.726,-23.156 24.624,0 41.044,11.14 50.124,21.105 10.55,11.43 19.64,30.485 19.64,56.278 0,25.797 -9.09,44.851 -19.64,56.277 -11.43,12.605 -28.73,21.109 -50.124,21.109 -14.945,0 -34.879,-4.691 -45.726,-22.574 l -2.051,18.469 h -54.813" /><path
         id="path40"
         style="fill:#dc1d42;fill-opacity:1;fill-rule:nonzero;stroke:none"
         d="m 444.633,390.496 v 4.527 c 0,10.231 3.539,17.903 8.066,22.625 5.903,6.102 12.985,7.086 18.692,7.086 4.918,0 12.394,-0.984 18.297,-6.691 5.511,-5.313 6.691,-12.004 6.691,-16.922 0,-8.266 -2.559,-14.363 -8.266,-20.461 -4.722,-5.117 -11.605,-10.234 -24.593,-19.285 -15.149,-10.625 -23.809,-16.723 -29.516,-24.398 -8.066,-11.016 -7.867,-20.661 -7.867,-30.102 v -6.496 h 88.539 v 15.348 h -70.637 c -0.59,5.511 0.789,9.839 5.902,15.543 6.297,7.281 15.348,12.593 28.332,21.644 15.352,10.625 22.239,16.723 26.372,21.84 6.093,7.48 9.246,15.941 9.05,26.957 -0.199,10.625 -3.543,20.465 -12.398,27.941 -9.836,8.266 -21.445,9.641 -29.317,9.641 -9.05,0 -22.234,-1.77 -32.66,-12.395 -6.101,-6.101 -12.402,-16.527 -12.402,-32.664 v -3.738 h 17.715" /><path
         id="path42"
         style="fill:#dc1d42;fill-opacity:1;fill-rule:nonzero;stroke:none"
         d="m 537.309,368.262 c 0,-24.989 4.523,-38.172 8.261,-45.848 10.43,-20.656 27.348,-25.184 38.957,-25.184 11.61,0 28.532,4.528 38.961,25.184 3.735,7.676 8.262,20.859 8.262,45.848 0,24.988 -4.527,38.172 -8.262,45.847 -10.429,20.657 -27.351,25.184 -38.961,25.184 -11.609,0 -28.527,-4.527 -38.957,-25.184 -3.738,-7.675 -8.261,-20.859 -8.261,-45.847 z m 17.507,0.394 c 0,20.856 2.164,30.891 4.922,37.582 5.903,14.559 15.934,18.102 24.789,18.102 8.856,0 18.891,-3.543 24.793,-18.102 2.754,-6.691 4.918,-16.726 4.918,-37.976 0,-20.266 -2.164,-30.301 -4.918,-37.188 -5.902,-14.558 -15.937,-18.101 -24.793,-18.101 -8.855,0 -18.886,3.543 -24.789,18.101 -2.758,6.688 -4.922,16.727 -4.922,37.582" /><path
         id="path44"
         style="fill:#dc1d42;fill-opacity:1;fill-rule:nonzero;stroke:none"
         d="m 672.875,390.496 v 4.527 c 0,10.231 3.543,17.903 8.07,22.625 5.899,6.102 12.985,7.086 18.692,7.086 4.918,0 12.394,-0.984 18.297,-6.691 5.511,-5.313 6.687,-12.004 6.687,-16.922 0,-8.266 -2.555,-14.363 -8.262,-20.461 -4.722,-5.117 -11.605,-10.234 -24.593,-19.285 -15.153,-10.625 -23.809,-16.723 -29.516,-24.398 -8.066,-11.016 -7.871,-20.661 -7.871,-30.102 v -6.496 h 88.543 v 15.348 h -70.637 c -0.59,5.511 0.785,9.839 5.903,15.543 6.296,7.281 15.347,12.593 28.332,21.644 15.351,10.625 22.234,16.723 26.367,21.84 6.097,7.48 9.25,15.941 9.054,26.957 -0.199,10.625 -3.546,20.465 -12.398,27.941 -9.84,8.266 -21.445,9.641 -29.316,9.641 -9.051,0 -22.239,-1.77 -32.664,-12.395 -6.098,-6.101 -12.399,-16.527 -12.399,-32.664 v -3.738 h 17.711" /><path
         id="path46"
         style="fill:#dc1d42;fill-opacity:1;fill-rule:nonzero;stroke:none"
         d="m 775.98,436.145 -4.332,-70.637 h 18.891 c 5.313,7.672 13.578,11.215 22.035,11.215 9.25,0 15.547,-4.129 19.68,-8.852 5.902,-7.086 7.086,-15.742 7.086,-22.828 0,-12.199 -3.152,-19.281 -6.496,-23.609 -4.528,-5.903 -12,-9.836 -21.055,-9.836 -8.656,0 -15.738,3.734 -19.871,9.05 -3.738,4.719 -5.707,12.395 -6.102,18.102 h -17.312 c 0.785,-10.629 4.918,-20.859 11.215,-28.141 8.656,-10.035 19.281,-13.379 31.679,-13.379 10.231,0 22.825,2.36 32.86,12.79 7.476,7.871 12.789,20.464 12.789,34.828 0,12.789 -4.328,25.183 -12.199,33.25 -8.071,8.265 -19.676,12.398 -30.5,12.203 -10.035,-0.199 -20.66,-3.738 -28.137,-13.578 l 2.754,44.859 h 62.57 v 14.563 H 775.98" /><path
         id="path48"
         style="fill:#ec691f;fill-opacity:1;fill-rule:nonzero;stroke:none"
         d="m 567,1009.02 c -24.805,0 -47.258,15.49 -63.523,31.76 v 12.7 h 19.054 l -6.351,19.06 h -25.41 v -31.77 c -16.266,-16.26 -38.723,-31.76 -63.524,-31.76 v -12.701 h 12.703 c 0,-26.985 -4.558,-52.743 -12.703,-76.227 h 44.641 c 11.191,11.184 19.812,24.867 25.234,40.066 5.422,-15.199 14.055,-28.882 25.234,-40.066 H 567 c -8.148,23.484 -12.707,49.242 -12.707,76.227 H 567 Z M 466.277,932.785 H 444.32 c 5.489,20.539 8.336,41.824 8.336,63.524 h 38.114 c 0,-23.704 -8.723,-46.028 -24.493,-63.524 z m 83.649,0 h -21.961 c -15.766,17.496 -24.488,39.82 -24.488,63.524 h 38.109 c 0,-21.7 2.852,-42.985 8.34,-63.524 z m -79.235,76.235 c 10.235,5.95 19.164,13.25 26.43,20.21 7.274,-6.96 16.203,-14.26 26.442,-20.21 h -52.872" /><path
         id="path50"
         style="fill:#149b76;fill-opacity:1;fill-rule:nonzero;stroke:none"
         d="m 392.125,1023.16 -6.453,6.45 -11.625,-11.63 c -19.715,16.45 -49.07,15.44 -67.578,-3.06 3.246,-3.24 6.789,-5.98 10.449,-8.46 -9.465,-1.37 -18.637,-6.42 -25.906,-15.194 2.676,-3.243 5.64,-5.918 8.761,-8.149 -7.742,-4.941 -13.937,-12.773 -17.152,-23.199 4.41,-2.328 8.883,-3.859 13.297,-4.652 -9.277,-7.981 -14.465,-20.411 -13.09,-34.969 14.547,-1.359 26.969,3.832 34.953,13.109 0.797,-4.414 2.317,-8.886 4.653,-13.293 10.418,3.215 18.25,9.403 23.191,17.145 2.234,-3.121 4.906,-6.086 8.148,-8.766 8.723,7.227 13.762,16.34 15.165,25.754 2.503,-3.691 5.347,-7.137 8.492,-10.289 18.504,18.504 19.508,47.859 3.066,67.573 z m -97.48,-58.273 c 3.535,6.179 8.683,10.652 14.769,13.054 0.934,-0.336 1.879,-0.597 2.824,-0.863 -2.008,-4.027 -3.605,-8.336 -4.617,-12.957 -1.484,-0.234 -2.996,-0.387 -4.547,-0.387 -2.804,0 -5.621,0.387 -8.429,1.153 z m 15.742,-26.153 c -4.641,-5.093 -11.047,-8.289 -18.364,-9.238 0.817,6.387 3.336,12.09 7.387,16.543 1.953,2.137 4.27,3.863 6.778,5.301 -0.032,-2.418 0.05,-4.879 0.289,-7.387 2.515,-0.238 4.976,-0.32 7.402,-0.289 -1.008,-1.754 -2.129,-3.434 -3.492,-4.93 z m -6.375,52.532 c 5.453,4.218 11.73,6.484 18.226,6.484 4.621,0 9.117,-1.199 13.305,-3.383 -0.996,-2.422 -1.848,-4.883 -2.563,-7.379 -3.441,-1.41 -7.046,-2.218 -10.738,-2.218 -0.004,0 -0.004,0 -0.004,0 -6.5,0 -12.773,2.261 -18.226,6.496 z m 11.328,-38.45 c 0.336,8.383 2.547,16.153 6.402,22.852 3.035,-0.039 6.067,0.34 9.051,1.047 -0.398,-3.024 -0.668,-6.059 -0.668,-9.102 3.094,0.004 6.113,0.262 9.094,0.653 -0.707,-2.989 -1.078,-6.028 -1.035,-9.071 -6.676,-3.836 -14.454,-6.035 -22.844,-6.379 z m 25.035,-6.324 c -2.484,-6.004 -6.98,-10.937 -12.969,-14.363 -1.203,4.394 -1.379,8.773 -0.715,12.98 4.602,1.016 8.883,2.618 12.895,4.614 0.273,-0.973 0.543,-1.938 0.894,-2.899 -0.042,-0.105 -0.058,-0.226 -0.105,-0.332 z m 13.391,-4.996 c -4.231,5.461 -6.493,11.731 -6.493,18.234 0.008,3.68 0.813,7.278 2.215,10.711 2.528,0.727 4.992,1.579 7.395,2.567 2.18,-4.176 3.371,-8.664 3.371,-13.278 0,-6.503 -2.262,-12.773 -6.488,-18.234 z m 23.422,16.871 c -3.918,5.547 -6.926,11.735 -8.852,18.285 l -2.973,10.102 -9.574,-4.379 c -5.078,-2.32 -10.336,-3.93 -15.719,-4.82 0.891,5.355 2.5,10.601 4.821,15.683 l 4.371,9.582 -10.098,2.97 c -6.547,1.92 -12.746,4.93 -18.309,8.89 6.309,3.78 13.547,5.81 21.098,5.81 10.961,0 21.27,-4.27 29.024,-12.02 13.562,-13.568 15.628,-34.341 6.211,-50.103" /><path
         id="path52"
         style="fill:#dc1d42;fill-opacity:1;fill-rule:nonzero;stroke:none"
         d="m 237.043,1024.55 h -20.895 v 20.89 H 122.129 V 940.98 c 0,-11.535 9.359,-20.894 20.894,-20.894 l 52.231,-0.004 c 11.539,0 20.894,9.356 20.894,20.895 v 12.246 l 25.219,25.215 c 3.778,3.789 6.121,9.011 6.121,14.773 v 20.889 c 0,5.78 -4.679,10.45 -10.445,10.45 z M 205.699,1035 v -10.45 H 132.578 V 1035 Z m -10.445,-104.469 -52.231,0.004 c -5.761,0 -10.445,4.688 -10.445,10.449 v 73.116 h 10.445 v -73.12 h 10.446 v 73.12 h 10.449 v -73.12 h 10.445 v 73.12 h 10.446 v -73.12 h 10.445 v 73.12 h 10.445 v -73.123 c 0,-5.758 -4.683,-10.446 -10.445,-10.446 z m 41.789,62.68 c 0,-2.781 -1.086,-5.406 -3.063,-7.387 l -17.832,-17.828 v 46.104 h 20.895 v -20.889" /><path
         id="path54"
         style="fill:#dc1d42;fill-opacity:1;fill-rule:nonzero;stroke:none"
         d="m 695.898,954.227 -6.996,25.656 c 16.618,10.019 27.762,28.197 27.762,49.017 H 602.121 c 0,-20.82 11.145,-38.998 27.762,-49.017 l -16.309,-59.801 h 11.875 l 3.125,11.453 h 49.055 c 2.367,-6.656 8.66,-11.453 16.129,-11.453 9.484,0 17.183,7.695 17.183,17.18 0,8.758 -6.578,15.902 -15.043,16.965 z m -80.875,63.223 h 88.739 c -5.102,-19.747 -23.059,-34.368 -44.367,-34.368 -21.313,0 -39.27,14.621 -44.372,34.368 z m 62.606,-74.458 h -45.93 l 8.707,31.93 c 5.949,-2.098 12.321,-3.297 18.989,-3.297 6.664,0 13.035,1.199 18.988,3.289 l 6.301,-23.117 c -3.258,-2.039 -5.746,-5.125 -7.055,-8.805 z m 16.129,-11.457 c -3.16,0 -5.727,2.57 -5.727,5.727 0,3.16 2.567,5.73 5.727,5.73 3.16,0 5.726,-2.57 5.726,-5.73 0,-3.157 -2.566,-5.727 -5.726,-5.727" /><path
         id="path56"
         style="fill:#dc1d42;fill-opacity:1;fill-rule:nonzero;stroke:none"
         d="m 642.832,1040.36 h -12.074 l 5.726,17.18 h 12.075 l -5.727,-17.18" /><path
         id="path58"
         style="fill:#dc1d42;fill-opacity:1;fill-rule:nonzero;stroke:none"
         d="m 665.742,1040.36 h -12.078 l 5.731,17.18 h 12.078 l -5.731,-17.18" /><path
         id="path60"
         style="fill:#dc1d42;fill-opacity:1;fill-rule:nonzero;stroke:none"
         d="m 688.656,1040.36 h -12.082 l 5.727,17.18 h 12.082 l -5.727,-17.18" /><path
         id="path62"
         style="fill:#dc1d42;fill-opacity:1;fill-rule:nonzero;stroke:none"
         d="m 693.34,920.082 h 0.418 c -0.145,0 -0.285,0.035 -0.434,0.043 l 0.016,-0.043" /><path
         id="path64"
         style="fill:#149b76;fill-opacity:1;fill-rule:nonzero;stroke:none"
         d="m 143.566,188.082 c 0.993,-0.66 1.571,-1.461 1.739,-2.398 0.164,-0.934 0,-1.926 -0.496,-2.973 -0.496,-1.051 -1.024,-1.957 -1.571,-2.731 -0.554,-0.769 -1.238,-1.652 -2.066,-2.644 -0.828,-0.992 -1.297,-1.543 -1.406,-1.652 -0.993,-1.325 -1.684,-2.786 -2.067,-4.379 -0.386,-1.602 -0.082,-2.95 0.91,-4.051 0.993,-0.441 2.286,-0.524 3.887,-0.25 1.594,0.273 3.551,1.379 5.867,3.309 2.313,1.925 4.297,4.32 5.95,7.187 3.968,6.723 7.824,16.258 11.57,28.598 0.441,1.215 0.937,3.172 1.492,5.871 0.551,2.703 1.098,4.847 1.648,6.445 0.555,1.602 1.407,3.336 2.567,5.207 1.156,1.875 2.808,3.227 4.957,4.051 2.148,0.828 4.769,1.129 7.851,0.91 3.969,-0.219 6.09,-2.367 6.364,-6.449 0.277,-4.074 -0.742,-8.153 -3.055,-12.231 -2.426,-5.949 -3.168,-10.468 -2.234,-13.554 0.937,-3.086 3.058,-4.852 6.367,-5.289 4.297,-0.664 9.203,1.347 14.711,6.031 5.512,4.687 9.644,10.996 12.398,18.93 1.653,5.402 4.461,8.707 8.43,9.918 4.41,2.312 7.883,2.921 10.418,1.816 5.949,-2.313 6.062,-8.539 0.328,-18.676 -3.746,-6.172 -6.914,-13.254 -9.504,-21.242 -2.59,-7.992 -3.058,-13.203 -1.406,-15.625 2.312,-2.977 6.281,-3.031 11.902,-0.164 5.621,2.867 11.024,7.605 16.203,14.215 2.313,2.754 4.133,3.472 5.453,2.152 0.774,-0.441 1.161,-1.215 1.161,-2.316 0,-1.102 -0.278,-2.094 -0.829,-2.977 -3.089,-5.289 -6.972,-10.055 -11.656,-14.297 -4.683,-4.246 -9.394,-7.359 -14.133,-9.34 -4.847,-2.539 -9.921,-3.199 -15.211,-1.984 -5.289,1.211 -8.761,4.516 -10.414,9.918 -0.878,2.203 -1.156,4.793 -0.824,7.77 0.328,2.976 0.797,5.429 1.403,7.355 0.609,1.93 1.378,3.992 2.316,6.199 0.937,2.207 1.461,3.637 1.566,4.297 0.114,0.441 -0.164,0.277 -0.824,-0.492 -4.406,-5.293 -7.769,-8.875 -10.082,-10.746 -4.851,-4.078 -9.754,-6.391 -14.715,-6.946 -3.855,-0.437 -7.164,0.141 -9.918,1.735 -2.754,1.598 -4.355,4.328 -4.793,8.183 -3.859,-9.253 -9.203,-16.39 -16.035,-21.406 -6.836,-5.015 -13.39,-7.246 -19.672,-6.695 -6.281,0.551 -10.8,3.473 -13.554,8.762 -2.43,4.519 -1.543,9.531 2.644,15.043 2.645,3.968 5.539,6.613 8.676,7.937 3.144,1.32 5.707,1.211 7.687,-0.332 z m 164.985,-17.523 -1.985,-5.621 c 7.934,4.519 13.555,8.21 16.86,11.078 0.773,0.769 1.765,1.816 2.976,3.14 1.215,1.321 2.289,2.422 3.227,3.305 0.934,0.883 1.734,1.543 2.394,1.984 1.106,0.77 2.372,0.719 3.801,-0.164 1.543,-1.215 1.985,-2.426 1.324,-3.64 -1.984,-4.516 -6.64,-9.2 -13.968,-14.047 -7.328,-4.852 -14.078,-8.711 -20.25,-11.574 l -4.629,-13.059 c -1.543,-3.969 -2.453,-6.313 -2.727,-7.027 -0.277,-0.715 -1.101,-2.868 -2.48,-6.446 -1.379,-3.582 -2.399,-5.898 -3.059,-6.945 -0.66,-1.047 -1.734,-2.977 -3.222,-5.785 -1.489,-2.813 -2.868,-4.879 -4.133,-6.199 -1.27,-1.325 -2.809,-3.004 -4.629,-5.043 -1.821,-2.039 -3.75,-3.774 -5.789,-5.2074 -2.039,-1.4336 -4.27,-2.7578 -6.692,-3.9688 -3.636,-1.871 -7.66,-2.9765 -12.07,-3.3046 -4.406,-0.3321 -7.988,0.0546 -10.742,1.1562 -3.969,1.4336 -6.832,3.6914 -8.602,6.7774 -1.761,3.0902 -2.504,6.2812 -2.23,9.5902 0.277,3.304 1.242,6.609 2.894,9.918 1.321,2.535 2.672,4.847 4.051,6.941 1.375,2.094 3.25,4.187 5.621,6.285 2.367,2.094 4.215,3.746 5.539,4.957 1.321,1.211 3.91,2.949 7.77,5.211 3.855,2.254 6.5,3.801 7.933,4.625 1.434,0.828 4.903,2.672 10.414,5.539 5.512,2.863 9.204,4.797 11.079,5.789 4.515,13 6.941,19.836 7.273,20.496 -5.621,-7.273 -12.539,-13.14 -20.746,-17.605 -8.215,-4.465 -15.293,-5.262 -21.246,-2.395 -3.528,1.539 -6.063,4.352 -7.602,8.43 -1.433,3.969 -1.519,8.375 -0.25,13.223 1.27,4.851 3.805,11.101 7.606,18.761 3.801,7.664 6.144,12.594 7.027,14.797 2.645,6.614 3.637,11.407 2.973,14.383 6.062,1.652 10.582,0.383 13.558,-3.805 2.864,-3.964 2.918,-8.98 0.164,-15.043 l -12.398,-27.441 c -0.773,-1.762 -1.156,-3.082 -1.156,-3.965 -1.106,-5.293 0.109,-8.16 3.636,-8.597 5.731,-0.774 12.422,2.867 20.082,10.91 7.665,8.043 13.75,17.136 18.27,27.277 1.32,2.867 2.535,6.477 3.637,10.828 1.101,4.356 1.379,7.633 0.828,9.836 5.726,1.32 10.305,0.277 13.719,-3.144 3.746,-3.852 3.964,-9.532 0.66,-17.024 -3.856,-9.48 -8.762,-22.211 -14.711,-38.187 z m -24.465,-22.153 c -11.356,-5.949 -20.281,-11.238 -26.781,-15.871 -5.293,-3.855 -9.149,-7.961 -11.575,-12.316 -2.425,-4.352 -3.39,-8.016 -2.89,-10.992 0.496,-2.977 1.898,-4.903 4.215,-5.786 3.304,-1.324 6.613,-1.183 9.918,0.411 3.304,1.601 6.281,4.132 8.925,7.605 2.645,3.473 4.821,6.777 6.532,9.922 1.707,3.141 3.168,6.199 4.379,9.176 3.199,7.488 5.621,13.441 7.277,17.851 z m 75.875,14.715 c -2.531,-1.766 -5.785,-2.371 -9.754,-1.82 -3.965,0.551 -6.555,1.984 -7.769,4.297 -1.762,3.527 -1.434,6.531 0.992,9.011 2.425,2.477 5.621,3.661 9.59,3.555 2.644,0 5.179,-1.047 7.601,-3.141 4.192,1.653 8.625,5.067 13.313,10.247 4.679,5.183 8.015,10.085 10,14.714 1.984,4.297 2.781,8.567 2.398,12.813 -0.391,4.242 -2.125,7.023 -5.207,8.348 -1.656,0.773 -3.637,1.101 -5.953,0.988 -2.094,-0.215 -4.215,-1.156 -6.367,-2.809 -2.149,-1.652 -3.801,-3.14 -4.957,-4.465 -1.157,-1.32 -2.95,-3.636 -5.375,-6.941 -2.422,-3.305 -3.91,-5.344 -4.461,-6.117 -1.434,-1.543 -3.336,-2.422 -5.703,-2.645 -2.371,-0.218 -4.657,0.387 -6.864,1.817 -1.097,0.773 -1.488,2.07 -1.156,3.886 0.332,1.821 0.742,3.391 1.238,4.711 0.5,1.325 0.965,2.262 1.407,2.813 3.195,5.73 8.57,10.441 16.121,14.133 7.547,3.691 14.961,5.152 22.234,4.382 11.02,-1.324 17.742,-6.23 20.168,-14.714 2.203,-8.043 0.551,-16.668 -4.961,-25.871 -5.512,-9.2 -12.562,-15.895 -21.16,-20.086 1.324,-1.321 2.699,-3.528 4.133,-6.61 0.992,0.438 7.937,4.571 20.828,12.399 12.894,7.824 19.84,11.843 20.832,12.066 0.551,0.219 1.184,-0.027 1.898,-0.742 0.719,-0.719 1.102,-1.547 1.161,-2.485 0.054,-0.933 -0.473,-1.843 -1.571,-2.726 -9.808,-7.274 -23.531,-15.926 -41.164,-25.953 1.324,-5.731 1.129,-11.985 -0.578,-18.762 -1.707,-6.777 -4.465,-12.976 -8.266,-18.598 -3.804,-5.621 -8.32,-10.746 -13.554,-15.375 -5.239,-4.6285 -10.746,-7.6871 -16.535,-9.1754 -5.786,-1.4883 -11.43,-1.457 -16.942,0.0821 -6.504,2.2031 -10.086,7.3863 -10.746,15.5393 -0.883,12.453 7.66,23.64 25.621,33.562 l 23.973,13.719 c -0.442,2.203 -1.93,4.187 -4.465,5.953 z m 5.621,-13.887 c -8.047,-4.191 -17.027,-9.371 -26.945,-15.539 -5.403,-3.418 -9.34,-7.222 -11.821,-11.41 -2.48,-4.183 -3.496,-7.769 -3.058,-10.746 0.441,-2.973 1.875,-4.957 4.297,-5.949 4.851,-1.985 10.304,-0.578 16.367,4.215 6.062,4.793 11.105,11.023 15.125,18.683 4.023,7.657 6.035,14.575 6.035,20.746 z m 59.18,8.926 c -4.407,1.434 -7.492,4.52 -9.254,9.258 -1.324,3.859 -1.352,8.102 -0.082,12.73 1.265,4.625 3.578,10.223 6.941,16.778 3.363,6.558 5.481,11.047 6.363,13.472 2.758,7.602 3.747,13.118 2.977,16.532 5.731,1.652 10.195,0.718 13.391,-2.813 1.652,-2.312 2.453,-4.929 2.398,-7.851 -0.055,-2.918 -0.746,-5.868 -2.07,-8.844 -0.879,-1.984 -2.809,-6.172 -5.781,-12.563 -2.981,-6.39 -5.125,-11.187 -6.45,-14.382 -1.761,-7.051 -0.218,-11.133 4.629,-12.235 2.754,-0.656 5.649,-0.109 8.68,1.656 3.031,1.762 5.535,4.075 7.519,6.942 1.325,1.875 1.93,3.695 1.821,5.457 -0.11,1.762 -0.828,2.754 -2.153,2.973 -0.214,0 -0.519,0.058 -0.906,0.168 -0.387,0.109 -0.992,0.41 -1.82,0.906 -0.828,0.5 -1.457,1.101 -1.902,1.82 -0.438,0.719 -0.629,1.793 -0.575,3.223 0.055,1.433 0.575,3.086 1.567,4.961 1.215,2.093 2.976,3.582 5.293,4.465 2.312,0.878 4.519,0.769 6.609,-0.333 0.113,-0.109 0.223,-0.164 0.332,-0.164 5.621,1.649 12.266,5.012 19.922,10.082 7.656,5.071 12.039,9.973 13.144,14.711 0.442,0.883 0.661,1.711 0.661,2.481 5.839,0.883 10.191,-0.828 13.058,-5.125 2.864,-4.297 2.922,-9.367 0.168,-15.207 -1.105,-2.535 -3.09,-6.75 -5.953,-12.649 -2.867,-5.894 -5.07,-10.718 -6.613,-14.461 -0.992,-4.41 -0.66,-7.441 0.992,-9.093 1.211,-1.325 2.645,-2.067 4.301,-2.231 1.652,-0.168 3.359,0.192 5.121,1.074 1.762,0.883 3.473,1.903 5.125,3.059 1.656,1.156 3.305,2.586 4.961,4.297 1.652,1.707 3.004,3.168 4.051,4.379 1.046,1.215 2.066,2.426 3.054,3.637 1.989,2.425 3.805,3.144 5.457,2.152 1.325,-1.324 1.379,-3.086 0.164,-5.293 -5.949,-10.027 -13.886,-17.137 -23.8,-21.324 -3.75,-1.543 -7.36,-2.508 -10.832,-2.891 -3.469,-0.391 -6.75,0.274 -9.836,1.981 -3.086,1.71 -5.125,4.601 -6.114,8.679 -1.656,6.614 0.606,15.981 6.778,28.106 l 5.125,10.41 c -1.875,-2.313 -5.18,-4.902 -9.922,-7.766 -4.738,-2.867 -8.871,-4.738 -12.399,-5.621 3.637,-6.176 3.086,-13.39 -1.652,-21.656 -3.195,-5.621 -8.539,-9.672 -16.035,-12.152 -7.492,-2.477 -15.043,-3.332 -22.649,-2.559 -0.66,0.105 -1.925,0.383 -3.804,0.824 z m 115.722,38.024 c 0,-0.774 0.993,-0.223 2.977,1.652 0.328,0.219 0.605,0.496 0.828,0.824 0.879,0.992 2.617,2.867 5.203,5.621 2.59,2.758 4.52,4.766 5.789,6.035 1.266,1.266 3.055,3.055 5.371,5.372 2.313,2.312 4.27,4.078 5.868,5.289 1.601,1.214 3.418,2.48 5.457,3.804 2.039,1.321 3.964,2.262 5.785,2.809 1.816,0.555 3.554,0.828 5.207,0.828 5.84,-0.332 9.64,-3.086 11.406,-8.266 1.652,-4.629 1.242,-8.98 -1.238,-13.062 -2.481,-4.074 -5.981,-6.61 -10.5,-7.602 -1.871,-0.55 -3.414,-0.687 -4.629,-0.414 -1.207,0.278 -2.149,0.746 -2.809,1.406 l -0.828,0.989 c 4.297,3.418 6.781,6.394 7.438,8.929 0.664,1.543 0.718,3.032 0.168,4.461 -0.547,1.438 -1.707,2.098 -3.473,1.989 -2.094,-0.223 -4.629,-1.493 -7.606,-3.805 -2.972,-2.316 -5.148,-4.242 -6.527,-5.785 -1.375,-1.543 -3.664,-4.133 -6.859,-7.77 5.179,0.332 9.09,-1.875 11.734,-6.613 1.106,-2.09 1.188,-6.117 0.25,-12.066 -0.937,-5.954 -0.578,-9.313 1.074,-10.086 3.86,-3.528 9.809,-1.817 17.852,5.129 2.098,1.871 4.273,4.101 6.531,6.691 2.262,2.59 3.914,4.242 4.961,4.961 1.047,0.715 2.066,0.742 3.059,0.082 1.433,-1.102 1.488,-2.867 0.164,-5.289 -4.961,-8.598 -11.516,-15.184 -19.672,-19.754 -8.152,-4.578 -15.594,-5.98 -22.32,-4.215 -5.399,1.32 -8.704,4.68 -9.915,10.082 -0.769,3.414 -0.332,8.43 1.321,15.043 0,0.11 0.054,0.274 0.164,0.496 1.105,3.414 0.168,5.289 -2.809,5.621 -3.636,0.328 -7.547,-1.711 -11.738,-6.117 -1.211,-1.324 -2.313,-2.754 -3.305,-4.297 -2.425,-3.418 -3.8,-7.273 -4.133,-11.57 -0.55,-4.191 0,-7.441 1.653,-9.754 -8.598,-0.223 -14.16,3.191 -16.695,10.246 -0.661,2.094 -0.993,4.242 -0.993,6.449 0,2.203 0.274,4.27 0.825,6.196 0.55,1.929 1.378,4.132 2.484,6.617 1.098,2.476 2.203,4.816 3.305,7.023 1.101,2.203 2.394,4.852 3.882,7.934 1.489,3.086 2.786,6.008 3.887,8.762 2.867,6.941 3.86,12.511 2.973,16.695 3.972,0.883 7.414,0.691 10.336,-0.578 2.918,-1.266 4.711,-3.774 5.371,-7.52 0.883,-5.179 -1.543,-13.004 -7.274,-23.472 z m 134.235,-33.723 c -6.504,-3.75 -12.731,-4.961 -18.684,-3.637 -2.64,0.547 -4.847,1.953 -6.609,4.215 -1.762,2.254 -2.535,4.82 -2.313,7.684 -8.597,-9.258 -19.066,-13.387 -31.41,-12.395 -3.086,0.328 -6.172,1.621 -9.258,3.883 -3.086,2.258 -5.074,5.316 -5.953,9.176 -1.539,6.609 -1.074,13.859 1.406,21.734 2.481,7.883 6.805,15.461 12.977,22.731 5.18,6.066 11.543,10.363 19.094,12.894 7.547,2.539 13.859,2.594 18.929,0.168 2.536,-1.211 3.633,-2.754 3.305,-4.629 -0.109,-0.332 -1.488,-0.605 -4.133,-0.828 -8.156,-1.43 -15.484,-6.281 -21.984,-14.547 -5.516,-7.051 -9.289,-14.961 -11.324,-23.722 -2.043,-8.762 -1.024,-14.188 3.058,-16.282 3.856,-1.652 8.289,-0.855 13.309,2.399 5.012,3.246 9.504,7.738 13.469,13.468 2.648,3.747 4.933,7.715 6.863,11.907 1.926,4.187 2.727,6.832 2.394,7.933 -2.867,0.219 -4.792,1.157 -5.785,2.809 -0.882,1.215 -0.937,2.758 -0.168,4.629 0.774,1.875 2.317,3.254 4.629,4.133 3.637,1.652 6.946,1.898 9.922,0.746 2.973,-1.16 5.125,-3.336 6.445,-6.532 1.762,-4.738 0.497,-11.406 -3.8,-20.003 -0.993,-1.653 -1.93,-3.551 -2.813,-5.704 -0.879,-2.148 -1.594,-4.625 -2.144,-7.437 -0.555,-2.809 -0.168,-4.766 1.152,-5.867 2.648,-2.758 7.055,-1.766 13.227,2.972 4.191,3.309 7.769,7.055 10.746,11.243 1.101,1.324 2.207,2.148 3.304,2.48 1.106,0.332 1.875,0.219 2.317,-0.332 1.433,-1.215 1.433,-2.977 0,-5.289 -4.739,-8.266 -11.461,-14.934 -20.168,-20 z m 29.094,11.734 c 2.753,0.11 5.015,-0.91 6.777,-3.058 1.765,-2.149 2.644,-4.657 2.644,-7.52 0.223,-4.297 -1.515,-9.535 -5.207,-15.707 -3.691,-6.172 -7.464,-9.754 -11.324,-10.742 -0.66,-0.332 -1.488,-0.277 -2.48,0.164 -1.871,0.547 -2.973,1.488 -3.305,2.809 0.113,0.113 0.414,0.414 0.91,0.91 0.492,0.496 0.906,0.91 1.238,1.242 0.329,0.328 0.829,0.852 1.489,1.566 0.66,0.715 1.187,1.352 1.57,1.903 0.387,0.551 0.883,1.293 1.488,2.23 0.606,0.938 1.102,1.821 1.489,2.649 0.382,0.824 0.742,1.789 1.074,2.89 0.328,1.102 0.609,2.203 0.824,3.305 -1.652,0 -3.164,0.687 -4.547,2.07 -1.375,1.375 -2.062,3.223 -2.062,5.535 0,2.868 0.937,5.207 2.808,7.028 1.875,1.816 4.082,2.726 6.614,2.726" /><path
         id="path66"
         style="fill:#dc1d42;fill-opacity:1;fill-rule:nonzero;stroke:none"
         d="m 774.398,179.98 c -0.105,7.051 1.793,14.411 5.707,22.071 3.911,7.66 9.313,14.269 16.2,19.836 6.89,5.566 14.187,8.57 21.902,9.011 5.18,0.329 9.977,-0.414 14.383,-2.234 4.41,-1.816 7.387,-4.875 8.93,-9.176 2.093,-5.836 1.375,-11.761 -2.149,-17.769 -3.527,-6.008 -8.543,-10.496 -15.047,-13.473 -4.297,-2.09 -9.672,-3.555 -16.117,-4.379 -6.445,-0.828 -11.543,-0.801 -15.293,0.082 -1.211,-3.636 -0.824,-7.219 1.156,-10.746 1.547,-2.644 4.11,-4.519 7.692,-5.617 3.582,-1.106 6.941,-1.547 10.082,-1.324 3.14,0.218 6.312,0.715 9.504,1.488 13.668,3.305 25.183,11.902 34.554,25.785 0.993,1.547 2.422,1.766 4.297,0.664 1.985,-1.215 2.203,-3.14 0.66,-5.785 -4.738,-7.383 -8.816,-12.621 -12.23,-15.707 -14.883,-13.336 -31.797,-19.066 -50.754,-17.191 -6.281,0.769 -11.461,2.812 -15.539,6.117 -5.289,4.187 -7.938,10.305 -7.938,18.347 z m 20.168,11.079 c 13.227,0 22.872,4.187 28.934,12.562 3.746,5.18 4.957,9.918 3.637,14.215 -0.664,2.207 -1.875,3.527 -3.637,3.969 -5.18,1.32 -10.637,-1.325 -16.367,-7.938 -2.863,-3.414 -5.539,-7.437 -8.02,-12.066 -2.476,-4.629 -3.992,-8.207 -4.547,-10.742 z m 216.064,-28.598 c -6.5,-3.75 -12.728,-4.961 -18.677,-3.637 -2.644,0.547 -4.851,1.953 -6.613,4.215 -1.762,2.254 -2.535,4.82 -2.313,7.684 -8.597,-9.258 -19.066,-13.387 -31.41,-12.395 -3.086,0.328 -6.172,1.621 -9.258,3.883 -3.086,2.258 -5.07,5.316 -5.953,9.176 -1.539,6.609 -1.074,13.859 1.407,21.734 2.48,7.883 6.804,15.461 12.976,22.731 5.18,6.066 11.543,10.363 19.098,12.894 7.547,2.539 13.855,2.594 18.926,0.168 2.535,-1.211 3.636,-2.754 3.304,-4.629 -0.109,-0.332 -1.484,-0.605 -4.133,-0.828 -8.156,-1.43 -15.484,-6.281 -21.984,-14.547 -5.512,-7.051 -9.285,-14.961 -11.324,-23.722 -2.039,-8.762 -1.024,-14.188 3.058,-16.282 3.856,-1.652 8.293,-0.855 13.309,2.399 5.012,3.246 9.504,7.738 13.473,13.468 2.644,3.747 4.929,7.715 6.859,11.907 1.926,4.187 2.727,6.832 2.398,7.933 -2.867,0.219 -4.796,1.157 -5.789,2.809 -0.882,1.215 -0.937,2.758 -0.164,4.629 0.77,1.875 2.317,3.254 4.629,4.133 3.637,1.652 6.946,1.898 9.921,0.746 2.97,-1.16 5.12,-3.336 6.44,-6.532 1.77,-4.738 0.5,-11.406 -3.8,-20.003 -0.99,-1.653 -1.92,-3.551 -2.81,-5.704 -0.88,-2.148 -1.59,-4.625 -2.15,-7.437 -0.55,-2.809 -0.159,-4.766 1.16,-5.867 2.65,-2.758 7.05,-1.766 13.22,2.972 4.2,3.309 7.77,7.055 10.75,11.243 1.1,1.324 2.21,2.148 3.31,2.48 1.1,0.332 1.87,0.219 2.31,-0.332 1.43,-1.215 1.43,-2.977 0,-5.289 -4.74,-8.266 -11.46,-14.934 -20.17,-20 z m 29.1,11.734 c 2.75,0.11 5.01,-0.91 6.77,-3.058 1.77,-2.149 2.65,-4.657 2.65,-7.52 0.22,-4.297 -1.52,-9.535 -5.21,-15.707 -3.69,-6.172 -7.46,-9.754 -11.32,-10.742 -0.66,-0.332 -1.49,-0.277 -2.48,0.164 -1.87,0.547 -2.98,1.488 -3.31,2.809 0.12,0.113 0.42,0.414 0.91,0.91 0.5,0.496 0.91,0.91 1.24,1.242 0.33,0.328 0.83,0.852 1.49,1.566 0.66,0.715 1.19,1.352 1.57,1.903 0.39,0.551 0.88,1.293 1.49,2.23 0.61,0.938 1.1,1.821 1.49,2.649 0.38,0.824 0.74,1.789 1.07,2.89 0.33,1.102 0.61,2.203 0.82,3.305 -1.64,0 -3.16,0.687 -4.54,2.07 -1.38,1.375 -2.07,3.223 -2.07,5.535 0,2.868 0.94,5.207 2.81,7.028 1.88,1.816 4.09,2.726 6.62,2.726 z M 882.516,135.184 c -3.969,0.218 -9.395,-0.25 -16.282,-1.407 -6.89,-1.156 -12.976,-2.894 -18.269,-5.207 -8.707,-3.859 -13.777,-8.488 -15.207,-13.886 -1.106,-4.188 0.441,-7.219 4.629,-9.094 4.738,-2.203 11.019,-1.652 18.847,1.652 8.813,3.637 17.575,12.949 26.282,27.942 z m 38.847,55.875 -16.035,-44.137 c 11.024,-0.992 20.086,-3.969 27.195,-8.93 7.11,-4.961 11.379,-10.469 12.813,-16.531 1.102,-4.41 0.633,-8.32 -1.406,-11.738 -2.039,-3.418 -4.766,-5.563 -8.184,-6.45 -4.957,17.415 -17.082,27.555 -36.367,30.422 -0.992,-2.867 -2.867,-6.613 -5.621,-11.242 -8.266,-13.558 -19.508,-22.8671 -33.723,-27.9413 -11.683,-4.1836 -21.656,-4.4609 -29.926,-0.8242 -7.933,3.5273 -11.293,9.5855 -10.082,18.1835 0.114,0.66 0.219,1.379 0.328,2.149 0.993,4.628 3.059,8.816 6.2,12.566 3.144,3.746 7,6.777 11.574,9.094 4.574,2.312 9.144,4.297 13.723,5.949 4.574,1.652 9.476,2.918 14.711,3.805 5.234,0.879 9.394,1.511 12.48,1.898 3.086,0.383 6.062,0.633 8.93,0.746 1.211,2.977 3,7.656 5.371,14.051 2.371,6.391 3.886,10.359 4.547,11.902 -3.637,-5.293 -8.457,-9.508 -14.465,-12.648 -6.008,-3.141 -11.821,-4.438 -17.442,-3.883 -6.062,0.66 -10.527,2.973 -13.39,6.941 -2.864,3.969 -4.106,8.707 -3.719,14.219 0.383,5.508 1.902,11.379 4.547,17.606 2.644,6.226 6.168,11.984 10.582,17.273 4.516,5.621 9.914,9.836 16.199,12.645 6.281,2.812 11.957,3.777 17.027,2.894 1.981,-0.109 3.883,-0.605 5.7,-1.488 1.82,-0.879 2.675,-2.094 2.566,-3.637 0,-0.219 -1.051,-0.551 -3.144,-0.992 -5.731,-0.879 -11.133,-3.555 -16.2,-8.016 -5.07,-4.465 -9.117,-9.425 -12.148,-14.879 -3.035,-5.457 -5.207,-10.937 -6.531,-16.449 -1.434,-5.844 -1.461,-10 -0.082,-12.48 1.375,-2.481 3.523,-3.692 6.445,-3.637 2.922,0.055 6.199,1.238 9.836,3.555 4.738,3.082 9.726,8.238 14.961,15.457 5.234,7.218 8.347,13.308 9.34,18.265 l -0.993,0.328 c -0.55,0.114 -1.156,0.415 -1.816,0.911 -0.66,0.496 -1.101,1.187 -1.324,2.07 -0.883,2.754 0.223,5.285 3.308,7.602 2.754,2.097 5.813,2.808 9.172,2.148 3.364,-0.66 5.926,-2.809 7.688,-6.445 1.984,-4.52 1.105,-11.297 -2.645,-20.332" /><path
         id="path68"
         style="fill:#ec691f;fill-opacity:1;fill-rule:nonzero;stroke:none"
         d="M 147.535,29.5742 C 145,23.7305 143.457,18.7734 142.906,14.6953 c -0.551,-4.0781 -0.441,-6.72264 0.332,-7.93749 l 0.992,-1.8164 V 4.77734 c -1.652,-0.10937 -3.39,-0.02734 -5.207,0.2461 -1.82,0.27344 -3.832,1.16015 -6.035,2.64453 -2.203,1.48828 -3.695,3.55473 -4.465,6.20313 -1.984,6.2773 0.274,16.1992 6.778,29.7539 0.332,0.6602 1.406,2.7539 3.226,6.2813 1.817,3.5273 3.164,6.2812 4.051,8.2656 0.879,1.9844 1.68,4.5742 2.395,7.7695 0.715,3.1953 0.797,6.0039 0.25,8.4297 6.058,1.543 10.578,0.1406 13.554,-4.2148 2.977,-4.3516 3.141,-9.4493 0.496,-15.2891 -1.324,-3.1953 -2.812,-6.3359 -4.464,-9.4258 0.55,-0.2187 1.433,-0.4375 2.644,-0.6601 9.367,-0.7696 17.688,0 24.961,2.3164 2.094,3.8554 3.805,7.4375 5.125,10.7421 2.977,7.3868 4.027,12.9532 3.141,16.6993 6.394,0.9922 10.91,-0.5235 13.558,-4.5469 2.641,-4.0234 2.754,-8.8984 0.328,-14.6289 -1.097,-2.6485 -3.195,-7.0547 -6.281,-13.2266 -3.082,-6.1719 -5.289,-11.1875 -6.613,-15.0429 -1.211,-4.1875 -0.879,-7.2188 0.992,-9.0938 1.215,-1.3203 2.645,-2.0664 4.301,-2.2305 1.652,-0.164 3.332,0.1914 5.039,1.0743 1.711,0.8828 3.391,1.9296 5.043,3.1406 1.652,1.2148 3.305,2.6445 4.961,4.2969 1.652,1.6562 3.004,3.0859 4.047,4.3007 1.047,1.2149 2.015,2.4219 2.894,3.6368 1.985,2.4218 3.801,3.1406 5.453,2.1484 1.438,-1.2109 1.493,-2.9766 0.168,-5.2891 C 218.617,19.0508 210.738,11.9414 200.93,7.75 195.203,4.88672 189.664,4.03125 184.316,5.19141 c -5.347,1.15625 -8.789,4.43359 -10.332,9.83199 -0.769,3.086 -0.66,6.8907 0.332,11.4102 0.551,2.4219 1.598,5.6172 3.141,9.5859 -3.746,-0.7695 -8.266,-1.2656 -13.555,-1.4882 -5.289,-0.2188 -9.918,0.0546 -13.886,0.8281 -1.106,-2.4219 -1.93,-4.3555 -2.481,-5.7852 z M 288.547,9.57031 c -6.504,-3.74609 -12.731,-4.95703 -18.68,-3.63672 -2.644,0.55079 -4.851,1.95704 -6.613,4.21481 -1.766,2.2579 -2.535,4.8204 -2.313,7.6875 -8.597,-9.25777 -19.066,-13.39059 -31.414,-12.3984 -3.082,0.33203 -6.168,1.625 -9.257,3.88672 -3.082,2.25778 -5.071,5.31638 -5.95,9.17578 -1.539,6.6094 -1.074,13.8555 1.407,21.7344 2.476,7.8828 6.804,15.457 12.976,22.7304 5.18,6.0665 11.543,10.3633 19.094,12.8946 7.547,2.5351 13.855,2.5898 18.93,0.1679 2.535,-1.2148 3.636,-2.7578 3.304,-4.6289 -0.109,-0.332 -1.488,-0.6054 -4.133,-0.8281 -8.156,-1.4336 -15.484,-6.2812 -21.984,-14.5469 -5.512,-7.0546 -9.289,-14.9609 -11.328,-23.7226 -2.039,-8.7617 -1.02,-14.1914 3.062,-16.2852 3.852,-1.6484 8.29,-0.8515 13.309,2.3985 5.012,3.25 9.504,7.7422 13.469,13.4726 2.648,3.7461 4.933,7.7149 6.863,11.9024 1.926,4.1875 2.727,6.8359 2.395,7.9375 -2.868,0.2187 -4.793,1.1523 -5.786,2.8086 -0.882,1.2109 -0.937,2.7578 -0.164,4.6289 0.77,1.875 2.313,3.25 4.629,4.1328 3.633,1.6523 6.942,1.9023 9.918,0.7422 2.973,-1.1563 5.125,-3.3321 6.446,-6.5313 1.761,-4.7344 0.496,-11.4023 -3.801,-20 -0.992,-1.6523 -1.93,-3.5547 -2.809,-5.7031 -0.883,-2.1484 -1.597,-4.6289 -2.148,-7.4414 -0.555,-2.8086 -0.168,-4.7656 1.152,-5.8633 2.649,-2.7578 7.055,-1.7656 13.227,2.9727 4.191,3.3046 7.769,7.0546 10.746,11.2421 1.101,1.3204 2.207,2.1485 3.304,2.4805 1.106,0.3281 1.875,0.2188 2.317,-0.332 1.433,-1.211 1.433,-2.9766 0,-5.2891 C 303.977,21.3086 297.25,14.6406 288.547,9.57031 Z m 75.055,17.68749 c -1.215,-4.6289 -1.051,-7.7109 0.492,-9.2578 1.433,-1.7617 3.25,-2.4531 5.457,-2.0664 2.199,0.3867 4.297,1.1016 6.281,2.1523 1.984,1.0469 4.078,2.586 6.281,4.6289 2.203,2.0391 4.024,3.8282 5.457,5.3711 1.43,1.543 2.645,2.9766 3.637,4.2969 2.203,2.7578 4.133,3.5274 5.781,2.3164 1.325,-1.3242 1.383,-3.1445 0.168,-5.457 -4.297,-7.0508 -9.531,-12.7305 -15.703,-17.0274 -6.172,-4.29683 -12.512,-6.72261 -19.012,-7.27339 -8.707,-0.76953 -14.218,2.48047 -16.531,9.75389 -0.992,3.6367 -0.992,7.6602 0,12.0664 1.871,8.5977 5.731,18.2422 11.574,28.9297 0.77,1.7656 0.219,2.5899 -1.656,2.4805 -1.984,-0.1094 -4.41,-1.2656 -7.273,-3.4727 -5.731,-4.2969 -12.262,-10.9375 -19.59,-19.9179 -7.328,-8.9844 -11.379,-16.9454 -12.152,-23.8907 0,-0.2187 -0.083,-1.09763 -0.247,-2.64451 -0.168,-1.54296 -0.25,-2.69921 -0.25,-3.46875 -8.484,-0.22265 -13.992,3.25 -16.531,10.41406 -2.203,6.2813 -0.105,15.8711 6.281,28.7617 0.446,0.7735 1.188,2.1524 2.235,4.1328 1.047,1.9844 1.898,3.586 2.562,4.793 0.66,1.2149 1.489,2.9805 2.481,5.293 0.988,2.3125 1.648,4.1601 1.98,5.539 0.332,1.375 0.692,3.25 1.074,5.6211 0.391,2.3672 0.309,4.2149 -0.246,5.5352 6.395,1.543 11.024,0.3867 13.887,-3.4688 2.426,-3.1953 2.426,-7.7734 0,-13.7226 -1.101,-2.6445 -2.316,-5.293 -3.637,-7.9375 -0.55,-1.0977 -1.074,-2.1719 -1.57,-3.2227 -0.496,-1.0429 -0.91,-1.9531 -1.242,-2.7265 -0.332,-0.7696 -0.629,-1.5118 -0.91,-2.2305 -0.274,-0.7148 -0.492,-1.2656 -0.66,-1.6563 -0.165,-0.3828 -0.274,-0.7695 -0.329,-1.1523 -0.054,-0.3867 -0.082,-0.6367 -0.082,-0.7461 v -0.1641 c 0.989,1.6524 1.981,3.086 2.973,4.2969 5.293,7.6016 11.711,14.5196 19.262,20.7461 7.551,6.2305 13.804,10.332 18.761,12.3164 4.961,1.7656 8.766,1.4883 11.407,-0.8281 2.867,-2.6445 4.601,-4.957 5.211,-6.9414 0.601,-1.9844 0.3,-4.4649 -0.91,-7.4375 -0.993,-2.3164 -3.336,-7.3867 -7.028,-15.2109 -3.691,-7.8243 -6.254,-13.6641 -7.683,-17.5235 z m 80.007,-0.8242 c -1.324,-4.3008 -1.046,-7.2773 0.825,-8.9297 1.437,-1.7617 3.226,-2.4805 5.375,-2.1484 2.148,0.332 4.187,1.0195 6.117,2.0664 1.929,1.0469 3.965,2.5898 6.117,4.6289 2.148,2.039 3.91,3.8281 5.289,5.3711 1.379,1.5469 2.617,3.0312 3.719,4.4648 2.094,2.7539 3.969,3.5274 5.621,2.3164 1.539,-1.3242 1.598,-3.1406 0.168,-5.457 C 470.668,18.5 462.73,11.332 453.031,7.25391 c -2.754,-1.21094 -5.648,-2.03907 -8.679,-2.47657 -3.028,-0.4414 -6.086,-0.4414 -9.176,0 -3.086,0.4375 -5.621,1.92579 -7.602,4.46485 -1.984,2.53511 -2.976,6.00391 -2.976,10.41011 -4.188,-5.2851 -9.067,-9.3359 -14.629,-12.14839 -5.567,-2.8086 -11.106,-3.9961 -16.614,-3.55469 -7.496,0.44141 -12.398,3.96875 -14.714,10.58208 -0.774,3.3046 -1.02,6.5039 -0.743,9.5859 0.274,3.0859 1.184,6.75 2.727,10.9961 1.543,4.2422 3.059,7.8789 4.547,10.9062 1.488,3.0352 3.031,6.1485 4.629,9.3438 1.597,3.1953 2.562,5.289 2.89,6.2812 2.649,6.6094 3.637,11.3516 2.977,14.2149 5.949,1.5429 10.414,0.2187 13.391,-3.9649 2.867,-3.9687 2.976,-8.8711 0.328,-14.7148 -6.832,-14.8789 -11.184,-24.9063 -13.059,-30.0859 -0.988,-3.8594 -1.015,-6.7774 -0.082,-8.7618 0.934,-1.9843 2.563,-3.0312 4.875,-3.1406 12.789,-0.7695 25.848,14.7695 39.18,46.6172 2.535,6.1719 3.363,10.9102 2.48,14.2187 6.172,1.4336 10.692,-0.1367 13.555,-4.7148 2.867,-4.5703 2.977,-9.7773 0.332,-15.6211 C 449.176,39.7109 444.82,29.9609 443.609,26.4336 Z m 137.043,-9.0938 c 2.645,-2.9726 6.887,-2.6992 12.731,0.8282 3.195,1.9804 6.254,4.6015 9.176,7.8515 2.918,3.25 5.148,5.6172 6.695,7.1055 1.539,1.4922 2.918,1.8477 4.133,1.0781 1.543,-1.3242 1.597,-3.1406 0.164,-5.457 C 606.719,17.6133 597.848,10.1758 586.938,6.42969 580.871,4.22266 575.746,3.75781 571.559,5.02344 c -4.184,1.26562 -7.051,3.99609 -8.594,8.18356 -3.195,8.2657 0.496,22.1524 11.074,41.6602 0.664,1.7656 0.277,2.6406 -1.156,2.6406 -0.879,-0.1055 -1.926,-0.4961 -3.141,-1.1562 -5.402,-2.7539 -11.984,-8.9532 -19.754,-18.5977 -7.769,-9.6406 -12.758,-17.9883 -14.961,-25.043 -0.222,-0.7695 -0.468,-1.7929 -0.746,-3.05856 -0.273,-1.26562 -0.496,-2.20312 -0.66,-2.80859 -0.164,-0.60547 -0.605,-1.15625 -1.324,-1.65234 -0.715,-0.4961 -1.68,-0.69141 -2.891,-0.57813 -2.976,0 -5.703,1.23828 -8.183,3.71875 -2.477,2.47657 -3.719,5.81247 -3.719,9.99997 -0.109,8.375 3.801,20.3868 11.738,36.0352 1.321,2.8672 1.047,4.1914 -0.828,3.9687 -1.32,-0.2187 -3.141,-1.0429 -5.453,-2.4765 -1.324,-0.7735 -2.813,-1.9883 -4.465,-3.6406 -3.086,-2.5313 -6.863,-6.25 -11.324,-11.1563 -4.465,-4.9023 -8.789,-10.8281 -12.977,-17.7734 -4.187,-6.9414 -6.281,-12.7813 -6.281,-17.51957 V 4.44531 c -8.379,-0.22265 -13.836,3.14063 -16.367,10.08599 -2.203,6.0585 -0.055,15.7031 6.445,28.9296 0.113,0.3282 1.16,2.4258 3.145,6.2774 1.98,3.8594 3.359,6.7265 4.133,8.5976 0.769,1.875 1.515,4.4375 2.23,7.6875 0.715,3.2539 0.797,6.0899 0.246,8.5157 6.285,1.4336 10.856,0.3867 13.723,-3.1407 3.082,-4.1875 2.918,-9.8086 -0.496,-16.8632 -0.223,-0.5508 -1.129,-2.3672 -2.727,-5.4571 -1.598,-3.082 -2.84,-5.7031 -3.723,-7.8515 -0.878,-2.1485 -1.32,-3.6602 -1.32,-4.5469 1.762,3.6367 7.688,10.3867 17.77,20.25 10.086,9.8672 17.828,15.7891 23.226,17.7734 4.961,1.7657 8.762,1.543 11.406,-0.6601 2.758,-2.4258 4.411,-4.6563 4.961,-6.6953 0.551,-2.0391 0.223,-4.4375 -0.992,-7.1914 -0.769,-1.7618 -1.57,-3.5 -2.398,-5.2071 -0.824,-1.707 -1.789,-3.6367 -2.895,-5.789 -1.097,-2.1485 -2.035,-3.9922 -2.808,-5.5352 -0.77,-1.7617 -1.047,-2.8125 -0.828,-3.1406 0.222,-0.3321 1.05,0.4414 2.484,2.3125 5.398,6.9414 11.57,13.5547 18.512,19.8359 6.945,6.2852 12.894,10.3633 17.855,12.2344 6.063,2.207 10.582,1.1875 13.559,-3.0586 2.972,-4.2422 3.578,-8.3477 1.816,-12.3125 -0.992,-2.2031 -2.562,-5.5664 -4.711,-10.0859 -2.148,-4.5157 -4.051,-8.6485 -5.703,-12.3985 -1.656,-3.7461 -3.031,-7.164 -4.133,-10.25 -1.433,-4.6289 -1.324,-7.7656 0.328,-9.4219 z m -83.48,77.6993 c 0.109,0.2187 0.109,0.6601 0,1.3242 0,0.5469 0.055,0.8515 0.164,0.9062 0.109,0.0547 0.332,-0.1953 0.664,-0.7422 1.648,-2.207 4.406,-3.4726 8.262,-3.8046 5.953,-0.5508 13.664,0.664 23.144,3.6406 5.512,2.1992 9.504,3.7417 11.985,4.6287 2.48,0.875 6.808,1.926 12.976,3.137 6.172,1.211 11.961,1.543 17.36,0.996 3.746,-0.332 7.66,-1.355 11.738,-3.062 4.074,-1.708 7.219,-3.9966 9.422,-6.8599 2.754,-3.1953 3.086,-6.3945 0.992,-9.5898 -0.219,-0.2188 -0.609,-0.1641 -1.156,0.168 -8.93,3.6367 -16.481,5.621 -22.653,5.9492 -5.73,0.4414 -14.132,-0.7422 -25.207,-3.5547 -11.078,-2.8086 -19.035,-4.3789 -23.886,-4.711 -5.293,-0.3281 -10.36,0.3321 -15.211,1.9844 -4.852,1.6524 -7.715,4.1875 -8.594,7.6055 -0.223,0.6601 -0.223,1.3203 0,1.9844 z M 620.988,43.293 c 0,-0.7696 0.992,-0.2188 2.977,1.6523 0.332,0.2227 0.605,0.4961 0.828,0.8281 0.883,0.9922 2.617,2.8672 5.203,5.6211 2.59,2.7578 4.524,4.7657 5.789,6.0313 1.266,1.2695 3.059,3.0586 5.371,5.375 2.317,2.3125 4.274,4.0781 5.867,5.289 1.602,1.2149 3.418,2.4805 5.457,3.8047 2.04,1.3203 3.969,2.2618 5.786,2.8086 1.82,0.5508 3.554,0.8282 5.207,0.8282 5.843,-0.3321 9.644,-3.086 11.406,-8.2696 1.652,-4.6289 1.242,-8.9804 -1.238,-13.0586 -2.481,-4.0742 -5.977,-6.6093 -10.5,-7.6015 -1.871,-0.5508 -3.414,-0.6875 -4.629,-0.4141 -1.211,0.2773 -2.145,0.7422 -2.809,1.4063 l -0.828,0.9882 c 4.301,3.418 6.781,6.3946 7.441,8.9258 0.661,1.5469 0.719,3.0352 0.164,4.4649 -0.546,1.4375 -1.707,2.0976 -3.472,1.9843 -2.09,-0.2187 -4.629,-1.4882 -7.602,-3.8007 -2.976,-2.3165 -5.152,-4.2422 -6.531,-5.7891 -1.375,-1.5391 -3.664,-4.1289 -6.859,-7.7656 5.183,0.3281 9.093,-1.875 11.734,-6.6172 1.105,-2.0899 1.188,-6.1133 0.25,-12.0664 -0.934,-5.9492 -0.578,-9.3125 1.074,-10.0821 3.86,-3.5273 9.809,-1.8203 17.856,5.125 2.093,1.875 4.269,4.1055 6.527,6.6954 2.262,2.5898 3.918,4.2421 4.961,4.9609 1.047,0.7148 2.066,0.7422 3.059,0.082 1.433,-1.1015 1.488,-2.8672 0.164,-5.2929 C 678.684,20.8125 672.125,14.2266 663.969,9.65234 655.816,5.08203 648.375,3.67578 641.652,5.4375 c -5.398,1.32031 -8.707,4.6836 -9.918,10.082 -0.769,3.418 -0.332,8.4336 1.325,15.0469 0,0.1094 0.054,0.2734 0.164,0.4961 1.101,3.4141 0.164,5.2891 -2.813,5.6172 -3.637,0.332 -7.547,-1.707 -11.734,-6.1133 -1.215,-1.3242 -2.313,-2.7539 -3.305,-4.3008 -2.426,-3.414 -3.805,-7.2695 -4.133,-11.5703 -0.554,-4.1875 0,-7.44139 1.649,-9.75389 -8.594,-0.22266 -14.16,3.19531 -16.696,10.24999 -0.66,2.0899 -0.988,4.2422 -0.988,6.4453 0,2.2071 0.274,4.2735 0.824,6.1992 0.551,1.9297 1.375,4.1329 2.481,6.6133 1.101,2.4805 2.203,4.8242 3.305,7.0274 1.101,2.2031 2.398,4.8515 3.886,7.9336 1.489,3.0898 2.781,6.0078 3.883,8.7617 2.867,6.9414 3.859,12.5078 2.977,16.6953 3.968,0.8828 7.41,0.6914 10.332,-0.5781 2.918,-1.2657 4.711,-3.7735 5.371,-7.5196 0.883,-5.1797 -1.543,-13.0039 -7.274,-23.4765 z M 738.859,26.4336 c -1.324,-4.3008 -1.05,-7.2773 0.825,-8.9297 1.433,-1.7617 3.222,-2.4805 5.371,-2.1484 2.152,0.332 4.191,1.0195 6.117,2.0664 1.93,1.0469 3.969,2.5898 6.117,4.6289 2.149,2.039 3.91,3.8281 5.289,5.3711 1.383,1.5469 2.621,3.0312 3.719,4.4648 2.094,2.7539 3.969,3.5274 5.621,2.3164 1.543,-1.3242 1.602,-3.1406 0.168,-5.457 C 765.914,18.5 757.977,11.332 748.281,7.25391 c -2.754,-1.21094 -5.648,-2.03907 -8.679,-2.47657 -3.032,-0.4414 -6.09,-0.4414 -9.176,0 -3.086,0.4375 -5.621,1.92579 -7.602,4.46485 -1.984,2.53511 -2.976,6.00391 -2.976,10.41011 -4.188,-5.2851 -9.067,-9.3359 -14.629,-12.14839 -5.571,-2.8086 -11.11,-3.9961 -16.617,-3.55469 -7.493,0.44141 -12.399,3.96875 -14.715,10.58208 -0.77,3.3046 -1.016,6.5039 -0.742,9.5859 0.277,3.0859 1.187,6.75 2.726,10.9961 1.543,4.2422 3.059,7.8789 4.547,10.9062 1.488,3.0352 3.031,6.1485 4.629,9.3438 1.601,3.1953 2.562,5.289 2.894,6.2812 2.645,6.6094 3.637,11.3516 2.973,14.2149 5.953,1.5429 10.418,0.2187 13.395,-3.9649 2.863,-3.9687 2.972,-8.8711 0.328,-14.7148 -6.832,-14.8789 -11.184,-24.9063 -13.059,-30.0859 -0.992,-3.8594 -1.019,-6.7774 -0.082,-8.7618 0.934,-1.9843 2.563,-3.0312 4.875,-3.1406 12.785,-0.7695 25.844,14.7695 39.18,46.6172 2.535,6.1719 3.363,10.9102 2.48,14.2187 6.172,1.4336 10.688,-0.1367 13.555,-4.7148 2.867,-4.5703 2.977,-9.7773 0.332,-15.6211 C 744.422,39.7109 740.07,29.9609 738.859,26.4336" /><path
         id="path70"
         style="fill:#656263;fill-opacity:1;fill-rule:nonzero;stroke:none"
         d="m 29.8438,1216.42 c 0,-1.69 1.3125,-3.01 3.0039,-3.01 1.6914,0 3,1.32 3,3.01 v 4.54 h 2.0781 c 11.7695,0 19.9258,7.31 19.9258,17.92 v 3.54 c 0,10.62 -8.1563,17.93 -19.9258,17.93 h -2.0781 v 4.54 c 0,1.69 -1.3086,3 -3,3 -1.6914,0 -3.0039,-1.31 -3.0039,-3 v -4.54 H 27.7695 C 16,1260.35 7.84375,1253.04 7.84375,1242.42 v -3.54 c 0,-10.61 8.15625,-17.92 19.92575,-17.92 h 2.0743 z m -2.0743,9.92 c -8.3867,0 -13.9257,4.85 -13.9257,13.54 v 1.54 c 0,8.7 5.539,13.54 13.9257,13.54 h 2.0743 v -28.62 z m 8.0782,0 v 28.62 h 2.0781 c 8.3867,0 13.9258,-4.84 13.9258,-13.54 v -1.54 c 0,-8.69 -5.5391,-13.54 -13.9258,-13.54 h -2.0781" /><path
         id="path72"
         style="fill:#656263;fill-opacity:1;fill-rule:nonzero;stroke:none"
         d="m 82.9688,1216.88 c 0,-1.85 1.3085,-3.15 3.1523,-3.15 H 112.59 c 1.461,0 2.691,1.23 2.691,2.69 0,1.46 -1.23,2.69 -2.691,2.69 H 88.9688 v 19.62 h 20.5432 c 1.461,0 2.691,1.23 2.691,2.69 0,1.47 -1.23,2.69 -2.691,2.69 H 88.9688 v 18.09 H 112.59 c 1.461,0 2.691,1.23 2.691,2.69 0,1.46 -1.23,2.69 -2.691,2.69 H 86.1211 c -1.8438,0 -3.1523,-1.31 -3.1523,-3.15 v -47.55" /><path
         id="path74"
         style="fill:#656263;fill-opacity:1;fill-rule:nonzero;stroke:none"
         d="m 138.555,1234.04 c 0,-12.54 7.308,-21.24 18.769,-21.24 9.235,0 15.774,5.39 18.004,13.7 0.078,0.3 0.156,0.84 0.156,1.07 0,1.54 -1.386,2.93 -3.078,2.93 -1.308,0 -2.465,-0.93 -2.847,-2.31 -1.926,-6.69 -6.231,-10 -12.235,-10 -7.691,0 -12.769,6.23 -12.769,16.77 v 11.39 c 0,10.54 5.078,16.77 12.769,16.77 6.004,0 10.309,-3.31 12.235,-10 0.382,-1.39 1.539,-2.31 2.847,-2.31 1.692,0 3.078,1.39 3.078,2.92 0,0.23 -0.078,0.77 -0.156,1.08 -2.23,8.31 -8.769,13.69 -18.004,13.69 -11.461,0 -18.769,-8.69 -18.769,-21.23 v -13.23" /><path
         id="path76"
         style="fill:#656263;fill-opacity:1;fill-rule:nonzero;stroke:none"
         d="m 211.68,1262.2 v -45.78 c 0,-1.69 1.304,-3.01 3,-3.01 1.691,0 3,1.32 3,3.01 v 45.78 h 13 c 1.461,0 2.691,1.23 2.691,2.69 0,1.46 -1.23,2.69 -2.691,2.69 h -32.004 c -1.461,0 -2.692,-1.23 -2.692,-2.69 0,-1.46 1.231,-2.69 2.692,-2.69 h 13.004" /><path
         id="path78"
         style="fill:#656263;fill-opacity:1;fill-rule:nonzero;stroke:none"
         d="m 287.879,1216.42 c 0,-1.69 1.305,-3.01 2.996,-3.01 1.695,0 3.004,1.32 3.004,3.01 v 48.31 c 0,1.77 -1.309,3.16 -3.156,3.16 -1.692,0 -2.809,-0.77 -4,-2.69 l -25.004,-40.32 v 40.01 c 0,1.69 -1.309,3 -3,3 -1.696,0 -3,-1.31 -3,-3 v -48.32 c 0,-1.77 1.304,-3.16 3.152,-3.16 1.692,0 2.809,0.78 4.004,2.7 l 25.004,40.32 v -40.01" /><path
         id="path80"
         style="fill:#656263;fill-opacity:1;fill-rule:nonzero;stroke:none"
         d="m 339.844,1213.73 c 8.847,0 16.543,4.61 16.543,15.15 0,6.77 -3.774,11.16 -9.082,12.85 4.539,1.69 7.465,5.47 7.465,11.39 0,10.38 -8.309,14.46 -16.696,14.46 h -13.926 c -1.847,0 -3.152,-1.31 -3.152,-3.15 v -47.55 c 0,-1.85 1.305,-3.15 3.152,-3.15 z m 10.539,15.23 c 0,-6.54 -4.153,-9.85 -11.461,-9.85 h -11.926 v 19.69 h 12.078 c 6.848,0 11.309,-3.38 11.309,-9.84 z m -23.387,15.23 v 18.01 h 10.152 c 6.696,0 11.622,-2.39 11.622,-9.08 0,-6.16 -4.309,-8.93 -11.082,-8.93 h -10.692" /><path
         id="path82"
         style="fill:#656263;fill-opacity:1;fill-rule:nonzero;stroke:none"
         d="m 397.348,1267.89 c -1.844,0 -3.227,-1 -4,-3.23 l -16.309,-47.01 c -0.152,-0.46 -0.23,-0.85 -0.23,-1.23 0,-1.69 1.308,-3.01 3,-3.01 1.386,0 2.5,0.93 2.921,2.16 l 3.926,11.47 h 21.313 l 4,-11.47 c 0.422,-1.23 1.539,-2.16 2.922,-2.16 1.695,0 3,1.32 3,3.01 0,0.38 -0.075,0.77 -0.231,1.23 l -16.308,47.01 c -0.77,2.23 -2.157,3.23 -4.004,3.23 z m 0,-10 8.773,-25.47 H 388.5 Z" /><path
         id="path84"
         style="fill:#656263;fill-opacity:1;fill-rule:nonzero;stroke:none"
         d="m 438.93,1218.19 c -1.539,0 -2.692,-1.23 -2.692,-2.7 0,-1.54 1.153,-2.69 2.692,-2.69 h 0.461 c 7.543,0 11.464,3.54 11.464,11.31 v 38.09 h 22.391 v -45.78 c 0,-1.69 1.309,-3.01 3,-3.01 1.692,0 3,1.32 3,3.01 v 48.01 c 0,1.84 -1.308,3.15 -3.152,3.15 h -28.086 c -1.844,0 -3.153,-1.31 -3.153,-3.15 v -39.78 c 0,-4.38 -1.769,-6.46 -5.23,-6.46 h -0.695" /><path
         id="path86"
         style="fill:#656263;fill-opacity:1;fill-rule:nonzero;stroke:none"
         d="m 535.211,1228.88 c 0,-6.46 -4.231,-9.77 -12,-9.77 h -10.848 v 19.54 h 10.848 c 7.769,0 12,-3.31 12,-9.77 z m -11.461,-15.15 c 10.613,0 17.461,5.38 17.461,15.15 0,9.77 -6.848,15.16 -17.461,15.16 h -11.387 v 20.85 c 0,1.69 -1.308,3 -3,3 -1.691,0 -3,-1.31 -3,-3 v -48.01 c 0,-1.85 1.309,-3.15 3.153,-3.15 h 14.234" /><path
         id="path88"
         style="fill:#656263;fill-opacity:1;fill-rule:nonzero;stroke:none"
         d="m 45.7734,1171.79 c 0,1.7 -1.3086,3 -3.0039,3 -1.6914,0 -2.9961,-1.3 -2.9961,-3 v -20.77 H 15.8438 v 20.77 c 0,1.7 -1.3086,3 -3,3 -1.6915,0 -3.00005,-1.3 -3.00005,-3 v -48.47 c 0,-1.69 1.30855,-3 3.00005,-3 1.6914,0 3,1.31 3,3 v 22.31 h 23.9296 v -22.31 c 0,-1.69 1.3047,-3 2.9961,-3 1.6953,0 3.0039,1.31 3.0039,3 v 48.47" /><path
         id="path90"
         style="fill:#656263;fill-opacity:1;fill-rule:nonzero;stroke:none"
         d="m 89.1211,1174.79 c -1.8438,0 -3.2305,-1 -4,-3.23 l -16.3086,-47.01 c -0.1562,-0.46 -0.2305,-0.84 -0.2305,-1.23 0,-1.69 1.3047,-3 2.9961,-3 1.3867,0 2.5,0.93 2.9258,2.16 l 3.9258,11.46 h 21.3086 l 3.9997,-11.46 c 0.426,-1.23 1.539,-2.16 2.926,-2.16 1.691,0 3,1.31 3,3 0,0.39 -0.078,0.77 -0.23,1.23 l -16.309,47.01 c -0.7734,2.23 -2.1562,3.23 -4.0039,3.23 z m 0,-10 8.7734,-25.46 H 80.2734 Z" /><path
         id="path92"
         style="fill:#656263;fill-opacity:1;fill-rule:nonzero;stroke:none"
         d="m 150.863,1140.94 c 0,-12.54 7.309,-21.23 18.77,-21.23 9.234,0 15.773,5.38 18.004,13.69 0.078,0.31 0.156,0.85 0.156,1.08 0,1.54 -1.387,2.92 -3.078,2.92 -1.309,0 -2.465,-0.92 -2.848,-2.31 -1.926,-6.69 -6.234,-10 -12.234,-10 -7.692,0 -12.77,6.23 -12.77,16.77 v 11.39 c 0,10.54 5.078,16.77 12.77,16.77 6,0 10.308,-3.31 12.234,-10 0.383,-1.38 1.539,-2.31 2.848,-2.31 1.691,0 3.078,1.39 3.078,2.93 0,0.23 -0.078,0.77 -0.156,1.07 -2.231,8.31 -8.77,13.7 -18.004,13.7 -11.461,0 -18.77,-8.7 -18.77,-21.23 v -13.24" /><path
         id="path94"
         style="fill:#656263;fill-opacity:1;fill-rule:nonzero;stroke:none"
         d="m 231.906,1120.63 c 8.852,0 16.543,4.62 16.543,15.16 0,6.76 -3.769,11.16 -9.078,12.85 4.539,1.69 7.465,5.46 7.465,11.38 0,10.39 -8.309,14.46 -16.695,14.46 h -13.926 c -1.844,0 -3.152,-1.3 -3.152,-3.15 v -47.54 c 0,-1.85 1.308,-3.16 3.152,-3.16 z m 10.543,15.23 c 0,-6.54 -4.156,-9.84 -11.465,-9.84 h -11.921 v 19.69 h 12.078 c 6.847,0 11.308,-3.39 11.308,-9.85 z m -23.386,15.24 v 18 h 10.152 c 6.695,0 11.617,-2.39 11.617,-9.08 0,-6.15 -4.309,-8.92 -11.078,-8.92 h -10.691" /><path
         id="path96"
         style="fill:#656263;fill-opacity:1;fill-rule:nonzero;stroke:none"
         d="m 273.184,1123.79 c 0,-1.85 1.304,-3.16 3.152,-3.16 h 26.465 c 1.465,0 2.695,1.23 2.695,2.69 0,1.47 -1.23,2.7 -2.695,2.7 h -23.617 v 19.61 h 20.539 c 1.465,0 2.695,1.23 2.695,2.7 0,1.46 -1.23,2.69 -2.695,2.69 h -20.539 v 18.08 h 23.617 c 1.465,0 2.695,1.23 2.695,2.69 0,1.46 -1.23,2.69 -2.695,2.69 h -26.465 c -1.848,0 -3.152,-1.3 -3.152,-3.15 v -47.54" /><path
         id="path98"
         style="fill:#656263;fill-opacity:1;fill-rule:nonzero;stroke:none"
         d="m 356.078,1120.32 c 1.692,0 3,1.31 3,3 v 18.08 l 8.313,5.7 13.078,-25.01 c 0.539,-1.07 1.461,-1.77 2.769,-1.77 1.617,0 2.922,1.31 2.922,2.93 0,0.54 -0.152,1.07 -0.383,1.54 l -13.539,25.69 c 7.614,5.77 10.309,11.12 10.309,21.31 0,1.7 -1.309,3 -3.004,3 -1.691,0 -2.961,-1.3 -2.996,-3 -0.234,-9.54 -2.004,-13.08 -10.695,-18.93 l -6.774,-4.53 v 23.46 c 0,1.7 -1.308,3 -3,3 -1.691,0 -3,-1.3 -3,-3 v -23.46 l -6.769,4.53 c -8.696,5.85 -10.465,9.39 -10.696,18.93 -0.035,1.7 -1.308,3 -3,3 -1.691,0 -3,-1.3 -3,-3 0,-10.19 2.692,-15.54 10.309,-21.31 l -13.543,-25.69 c -0.227,-0.47 -0.383,-1 -0.383,-1.54 0,-1.62 1.309,-2.93 2.926,-2.93 1.305,0 2.23,0.7 2.769,1.77 l 13.079,25.01 8.308,-5.7 v -18.08 c 0,-1.69 1.309,-3 3,-3" /><path
         id="path100"
         style="fill:#656263;fill-opacity:1;fill-rule:nonzero;stroke:none"
         d="m 408.973,1123.79 c 0,-1.85 1.304,-3.16 3.148,-3.16 h 26.469 c 1.461,0 2.691,1.23 2.691,2.69 0,1.47 -1.23,2.7 -2.691,2.7 h -23.617 v 19.61 h 20.539 c 1.461,0 2.691,1.23 2.691,2.7 0,1.46 -1.23,2.69 -2.691,2.69 h -20.539 v 18.08 h 23.617 c 1.461,0 2.691,1.23 2.691,2.69 0,1.46 -1.23,2.69 -2.691,2.69 h -26.469 c -1.844,0 -3.148,-1.3 -3.148,-3.15 v -47.54" /><path
         id="path102"
         style="fill:#656263;fill-opacity:1;fill-rule:nonzero;stroke:none"
         d="m 512.641,1171.71 c 0,1.7 -1.309,3.08 -3.078,3.08 -1.309,0 -2.387,-0.54 -3.231,-2.08 l -16.93,-30.61 -16.925,30.61 c -0.844,1.54 -1.922,2.08 -3.231,2.08 -1.769,0 -3.074,-1.38 -3.074,-3.08 v -48.39 c 0,-1.69 1.305,-3 3,-3 1.691,0 3,1.31 3,3 v 38.55 l 13.769,-24.78 c 0.926,-1.69 2.079,-2.38 3.461,-2.38 1.387,0 2.543,0.69 3.465,2.38 l 13.77,24.78 v -38.55 c 0,-1.69 1.312,-3 3.004,-3 1.691,0 3,1.31 3,3 v 48.39" /><path
         id="path104"
         style="fill:#656263;fill-opacity:1;fill-rule:nonzero;stroke:none"
         d="m 578.605,1120.63 c 8.852,0 16.543,4.62 16.543,15.16 0,6.76 -3.769,11.16 -9.078,12.85 4.539,1.69 7.465,5.46 7.465,11.38 0,10.39 -8.308,14.46 -16.695,14.46 h -13.93 c -1.844,0 -3.148,-1.3 -3.148,-3.15 v -47.54 c 0,-1.85 1.304,-3.16 3.148,-3.16 z m 10.543,15.23 c 0,-6.54 -4.156,-9.84 -11.46,-9.84 h -11.926 v 19.69 h 12.078 c 6.848,0 11.308,-3.39 11.308,-9.85 z m -23.386,15.24 v 18 h 10.152 c 6.695,0 11.621,-2.39 11.621,-9.08 0,-6.15 -4.308,-8.92 -11.082,-8.92 h -10.691" /><path
         id="path106"
         style="fill:#656263;fill-opacity:1;fill-rule:nonzero;stroke:none"
         d="m 655.813,1154.18 c 0,12.53 -7.313,21.23 -18.774,21.23 -11.465,0 -18.773,-8.7 -18.773,-21.23 v -13.24 c 0,-12.54 7.308,-21.23 18.773,-21.23 11.461,0 18.774,8.69 18.774,21.23 z m -6,-12.32 c 0,-10.54 -5.083,-16.77 -12.774,-16.77 -7.695,0 -12.769,6.23 -12.769,16.77 v 11.39 c 0,10.54 5.074,16.77 12.769,16.77 7.691,0 12.774,-6.23 12.774,-16.77 v -11.39" /><path
         id="path108"
         style="fill:#656263;fill-opacity:1;fill-rule:nonzero;stroke:none"
         d="m 679.234,1132.86 c 0,-0.69 0.231,-1.31 0.383,-1.69 3.004,-7.31 9.235,-11.46 17.774,-11.46 11.386,0 17.156,6.84 17.156,15.46 0,7.15 -4,11.78 -9.77,13.7 5.387,2.15 8.004,6.38 8.004,12.15 0,8.23 -6.082,14.39 -15.543,14.39 -7.543,0 -13.004,-3.39 -16.16,-10.16 -0.226,-0.54 -0.461,-1.3 -0.461,-1.77 0,-1.69 1.309,-3 3.004,-3 1.305,0 2.305,0.77 2.77,1.93 1.922,4.77 5.461,7.54 10.847,7.54 6,0 9.461,-3.85 9.461,-9 0,-6.16 -4,-9.39 -11.23,-9.39 h -2 c -1.539,0 -2.696,-1.15 -2.696,-2.77 0,-1.54 1.157,-2.69 2.696,-2.69 h 2 c 7.691,0 13.004,-3.47 13.004,-10.93 0,-5.85 -4.004,-10 -11.082,-10 -6.078,0 -10.387,3.46 -12.27,8.77 -0.426,1.15 -1.5,1.92 -2.887,1.92 -1.691,0 -3,-1.31 -3,-3" /><path
         id="path110"
         style="fill:#656263;fill-opacity:1;fill-rule:nonzero;stroke:none"
         d="m 737.586,1126.02 c -1.848,0 -3.156,-1.31 -3.156,-3.16 v -8.77 c 0,-1.69 1.308,-3 3.004,-3 1.691,0 3,1.31 3,3 v 6.54 h 30.621 v -6.54 c 0,-1.69 1.304,-3 3,-3 1.695,0 3,1.31 3,3 v 8.77 c 0,1.85 -1.305,3.16 -3.157,3.16 h -1.921 v 45.31 c 0,1.85 -1.309,3.15 -3.153,3.15 h -22.773 c -1.848,0 -3.156,-1.3 -3.156,-3.15 v -17.77 c 0,-9.39 -1.309,-18.85 -4,-27.54 z m 7.691,0 c 2.313,8.07 3.618,17.69 3.618,27.08 v 16 h 17.078 v -43.08 h -20.696" /><path
         id="path112"
         style="fill:#656263;fill-opacity:1;fill-rule:nonzero;stroke:none"
         d="m 805.398,1120.63 c 5.618,0 8.079,2.23 11.465,10.23 l 16.617,39.09 c 0.309,0.69 0.54,1.3 0.54,1.92 0,1.62 -1.231,2.92 -2.844,2.92 -1.156,0 -2.156,-0.61 -2.696,-1.77 l -12.234,-27.85 -13.308,27.85 c -0.54,1.16 -1.54,1.77 -2.688,1.77 -1.617,0 -2.852,-1.3 -2.852,-2.92 0,-0.62 0.235,-1.23 0.54,-1.92 l 15.464,-32.32 -3.078,-7.38 c -1.386,-3.31 -2.847,-4.23 -5.386,-4.23 h -0.305 c -1.465,0 -2.695,-1.23 -2.695,-2.7 0,-1.46 1.23,-2.69 2.695,-2.69 h 0.765" /><path
         id="path114"
         style="fill:#656263;fill-opacity:1;fill-rule:nonzero;stroke:none"
         d="m 874.602,1153.71 -13.774,19.85 c -0.461,0.69 -1.461,1.23 -2.461,1.23 -1.691,0 -3.004,-1.3 -3.004,-3 0,-0.84 0.352,-1.46 0.774,-2.07 l 14.769,-21.32 -16,-23 c -0.426,-0.61 -0.769,-1.23 -0.769,-2.08 0,-1.69 1.308,-3 3,-3 1,0 2,0.54 2.461,1.23 l 15.004,21.54 15.078,-21.54 c 0.465,-0.69 1.461,-1.23 2.461,-1.23 1.695,0 3.004,1.31 3.004,3 0,0.85 -0.348,1.47 -0.774,2.08 l -16.078,23 14.848,21.32 c 0.425,0.61 0.773,1.23 0.773,2.07 0,1.7 -1.309,3 -3.004,3 -1,0 -2,-0.54 -2.461,-1.23 l -13.847,-19.85" /><path
         id="path116"
         style="fill:#656263;fill-opacity:1;fill-rule:nonzero;stroke:none"
         d="m 918.801,1123.79 c 0,-1.85 1.304,-3.16 3.148,-3.16 h 26.469 c 1.461,0 2.691,1.23 2.691,2.69 0,1.47 -1.23,2.7 -2.691,2.7 h -23.617 v 19.61 h 20.539 c 1.461,0 2.691,1.23 2.691,2.7 0,1.46 -1.23,2.69 -2.691,2.69 h -20.539 v 18.08 h 23.617 c 1.461,0 2.691,1.23 2.691,2.69 0,1.46 -1.23,2.69 -2.691,2.69 h -26.469 c -1.844,0 -3.148,-1.3 -3.148,-3.15 v -47.54" /></g></g></svg>