<?xml version="1.0" encoding="UTF-8" standalone="no"?>
<svg
   xmlns:dc="http://purl.org/dc/elements/1.1/"
   xmlns:cc="http://creativecommons.org/ns#"
   xmlns:rdf="http://www.w3.org/1999/02/22-rdf-syntax-ns#"
   xmlns:svg="http://www.w3.org/2000/svg"
   xmlns="http://www.w3.org/2000/svg"
   viewBox="0 0 189.33333 194.66667"
   height="194.66667"
   width="189.33333"
   xml:space="preserve"
   id="svg2"
   version="1.1"><metadata
     id="metadata8"><rdf:RDF><cc:Work
         rdf:about=""><dc:format>image/svg+xml</dc:format><dc:type
           rdf:resource="http://purl.org/dc/dcmitype/StillImage" /></cc:Work></rdf:RDF></metadata><defs
     id="defs6" /><g
     transform="matrix(1.3333333,0,0,-1.3333333,0,194.66667)"
     id="g10"><g
       transform="scale(0.1)"
       id="g12"><path
         id="path14"
         style="fill:#b0673e;fill-opacity:1;fill-rule:nonzero;stroke:none"
         d="m 109.348,1417.55 c 16.312,0 31.09,-6.61 41.781,-17.3 10.574,-10.58 17.164,-25.15 17.301,-41.26 -4.414,4.07 -9.785,7.12 -15.742,8.76 -1.813,8.51 -6.071,16.13 -12.004,22.05 -8.02,8.02 -19.098,12.99 -31.336,12.99 -3.797,0 -7.473,-0.48 -10.973,-1.37 -3.5508,-0.9 -6.8867,-2.21 -9.9531,-3.85 -0.3008,-0.18 -0.6094,-0.34 -0.9414,-0.48 -3.7422,-1.59 -8.0703,0.15 -9.6641,3.89 -1.8242,4.28 -4.8828,7.91 -8.7305,10.45 -3.6992,2.44 -8.1562,3.86 -12.9687,3.86 -6.5078,0 -12.4024,-2.63 -16.6641,-6.9 -4.2656,-4.26 -6.9023,-10.15 -6.9023,-16.66 0,-6.51 2.6367,-12.4 6.9023,-16.67 4.2617,-4.26 10.1563,-6.9 16.6641,-6.9 0.8906,0 0.1484,-0.03 0.625,-0.02 l 0.6172,0.03 c 0.2187,0.01 0.4375,0.01 0.664,0 4.0586,-0.17 7.211,-3.61 7.0352,-7.67 l -0.0391,-1.03 c -0.0078,-0.39 0.0157,0.06 0.0157,-1 0,-12.24 4.9609,-23.32 12.9765,-31.33 7.7031,-7.71 18.2227,-12.59 29.8833,-12.96 1.886,-3.91 4.414,-7.46 7.453,-10.5 1.242,-1.23 2.566,-2.39 3.968,-3.46 -3.242,-0.54 -6.57,-0.84 -9.968,-0.84 -16.3167,0 -31.0863,6.62 -41.7777,17.31 -9.664,9.67 -15.9961,22.66 -17.125,37.12 -8.3164,1.23 -15.7656,5.13 -21.4375,10.81 -6.9375,6.94 -11.2305,16.52 -11.2305,27.11 0,10.58 4.293,20.17 11.2305,27.11 6.9375,6.94 16.5235,11.23 27.1094,11.23 7.7734,0 15.0312,-2.34 21.1055,-6.35 4.1093,-2.72 7.6718,-6.21 10.4726,-10.28 2.2969,0.91 4.6445,1.68 7.0469,2.29 4.6797,1.19 9.5738,1.82 14.6058,1.82" /><path
         id="path16"
         style="fill:#b0673e;fill-opacity:1;fill-rule:nonzero;stroke:none"
         d="m 142.457,1369.13 c 10.586,0 20.168,-4.29 27.109,-11.23 6.934,-6.94 11.231,-16.52 11.231,-27.11 0,-10.58 -4.293,-20.16 -11.231,-27.11 -6.941,-6.93 -16.523,-11.23 -27.109,-11.23 -10.586,0 -20.176,4.3 -27.109,11.23 -6.942,6.94 -11.231,16.53 -11.231,27.11 0,10.59 4.289,20.17 11.231,27.11 6.933,6.94 16.523,11.23 27.109,11.23 z m 16.664,-21.67 c -4.266,4.26 -10.16,6.9 -16.664,6.9 -6.508,0 -12.402,-2.64 -16.664,-6.9 -4.266,-4.26 -6.902,-10.16 -6.902,-16.67 0,-6.5 2.636,-12.4 6.902,-16.66 4.262,-4.27 10.156,-6.9 16.664,-6.9 6.504,0 12.398,2.63 16.664,6.9 4.262,4.26 6.902,10.16 6.902,16.66 0,6.51 -2.636,12.41 -6.902,16.67" /><path
         id="path18"
         style="fill:#b0673e;fill-opacity:1;fill-rule:nonzero;stroke:none"
         d="m 96.1328,1451.63 c 4.3632,0 8.3282,-1.78 11.2112,-4.66 l 0.008,0.01 c 2.871,-2.87 4.648,-6.84 4.648,-11.22 0,-4.38 -1.777,-8.35 -4.648,-11.22 -2.872,-2.87 -6.84,-4.65 -11.2192,-4.65 -4.3828,0 -8.3476,1.78 -11.2187,4.65 l 0.0078,0.01 c -2.875,2.88 -4.6563,6.85 -4.6563,11.21 0,4.36 1.7735,8.32 4.6485,11.2 l 0.0195,0.02 c 2.8789,2.87 6.8398,4.65 11.1992,4.65 z m 4.2582,-11.59 c -1.0785,1.07 -2.5824,1.74 -4.2582,1.74 -1.6758,0 -3.1797,-0.67 -4.2578,-1.74 l -0.0195,-0.02 c -1.0782,-1.08 -1.7422,-2.59 -1.7422,-4.26 0,-1.67 0.664,-3.19 1.7422,-4.26 h 0.0195 c 1.0898,-1.09 2.5938,-1.76 4.2578,-1.76 1.6641,0 3.168,0.67 4.2582,1.76 1.089,1.09 1.761,2.59 1.761,4.26 0,1.66 -0.672,3.17 -1.761,4.26 v 0.02" /><path
         id="path20"
         style="fill:#b0673e;fill-opacity:1;fill-rule:nonzero;stroke:none"
         d="m 26.957,1356.77 c 6.8438,0 13.0391,-2.77 17.5235,-7.26 4.4843,-4.49 7.2578,-10.69 7.2578,-17.53 0,-6.84 -2.7735,-13.03 -7.2578,-17.52 -4.4844,-4.49 -10.6836,-7.26 -17.5235,-7.26 -6.8437,0 -13.0429,2.77 -17.52731,7.26 -4.48438,4.49 -7.25781,10.68 -7.25781,17.52 0,6.84 2.77343,13.04 7.25781,17.53 4.48441,4.49 10.67971,7.26 17.52731,7.26 z m 10.5625,-14.22 c -2.7031,2.7 -6.4375,4.37 -10.5625,4.37 -4.1289,0 -7.8632,-1.67 -10.5664,-4.37 -2.6992,-2.71 -4.3711,-6.44 -4.3711,-10.57 0,-4.12 1.6719,-7.86 4.3711,-10.56 2.7032,-2.7 6.4375,-4.38 10.5664,-4.38 4.125,0 7.8594,1.68 10.5625,4.38 2.6993,2.7 4.375,6.44 4.375,10.56 0,4.13 -1.6757,7.86 -4.375,10.57" /><path
         id="path22"
         style="fill:#149b76;fill-opacity:1;fill-rule:nonzero;stroke:none"
         d="m 553.234,1443.58 -8.582,8.58 -15.453,-15.46 c -26.211,21.87 -65.23,20.53 -89.836,-4.07 4.317,-4.31 9.028,-7.95 13.891,-11.25 -12.582,-1.82 -24.774,-8.53 -34.441,-20.2 3.558,-4.3 7.5,-7.86 11.648,-10.82 -10.289,-6.57 -18.527,-16.99 -22.801,-30.85 5.863,-3.1 11.805,-5.13 17.676,-6.18 -12.336,-10.61 -19.227,-27.13 -17.402,-46.49 19.336,-1.81 35.851,5.09 46.468,17.43 1.055,-5.87 3.082,-11.81 6.184,-17.68 13.855,4.29 24.262,12.51 30.832,22.8 2.965,-4.15 6.52,-8.09 10.828,-11.66 11.602,9.61 18.297,21.73 20.16,34.25 3.332,-4.92 7.11,-9.5 11.293,-13.68 24.602,24.59 25.934,63.62 4.074,89.82 z m -129.589,-77.46 c 4.699,8.22 11.543,14.16 19.632,17.35 1.243,-0.45 2.5,-0.79 3.754,-1.14 -2.668,-5.36 -4.793,-11.09 -6.14,-17.23 -1.973,-0.31 -3.981,-0.51 -6.039,-0.51 -3.735,0 -7.477,0.51 -11.207,1.53 z m 20.925,-34.76 c -6.168,-6.78 -14.683,-11.03 -24.41,-12.29 1.086,8.49 4.43,16.07 9.82,21.99 2.594,2.84 5.676,5.14 9.008,7.05 -0.043,-3.21 0.071,-6.48 0.391,-9.82 3.34,-0.32 6.609,-0.43 9.832,-0.39 -1.336,-2.33 -2.832,-4.56 -4.641,-6.54 z m -8.476,69.82 c 7.254,5.62 15.594,8.63 24.23,8.63 6.145,0 12.121,-1.6 17.688,-4.5 -1.324,-3.22 -2.453,-6.49 -3.407,-9.81 -4.574,-1.87 -9.363,-2.95 -14.273,-2.95 -0.008,0 -0.008,0 -0.008,0 -8.636,0 -16.976,3.01 -24.23,8.63 z m 15.062,-51.11 c 0.449,11.15 3.387,21.48 8.512,30.38 4.035,-0.05 8.066,0.45 12.035,1.39 -0.535,-4.02 -0.89,-8.05 -0.89,-12.1 4.113,0.01 8.128,0.35 12.089,0.87 -0.941,-3.97 -1.437,-8.01 -1.379,-12.06 -8.875,-5.1 -19.214,-8.02 -30.367,-8.48 z m 33.282,-8.41 c -3.305,-7.98 -9.278,-14.53 -17.243,-19.09 -1.597,5.84 -1.836,11.66 -0.945,17.26 6.113,1.35 11.805,3.47 17.137,6.13 0.363,-1.3 0.726,-2.58 1.191,-3.85 -0.055,-0.15 -0.082,-0.31 -0.14,-0.45 z m 17.804,-6.64 c -5.625,7.26 -8.633,15.6 -8.633,24.24 0.008,4.9 1.079,9.68 2.942,14.24 3.359,0.97 6.637,2.1 9.836,3.41 2.89,-5.55 4.476,-11.52 4.476,-17.65 0.004,-8.64 -3.008,-16.98 -8.621,-24.24 z m 31.133,22.43 c -5.207,7.37 -9.207,15.6 -11.766,24.31 l -3.953,13.43 -12.73,-5.82 c -6.75,-3.08 -13.738,-5.23 -20.891,-6.41 1.184,7.12 3.324,14.09 6.406,20.85 l 5.813,12.73 -13.426,3.95 c -8.703,2.55 -16.945,6.56 -24.34,11.82 8.387,5.04 18.008,7.73 28.047,7.73 14.574,0 28.278,-5.68 38.586,-15.99 18.031,-18.03 20.777,-45.64 8.254,-66.6" /><path
         id="path24"
         style="fill:#ec691f;fill-opacity:1;fill-rule:nonzero;stroke:none"
         d="m 320.645,1452.14 v -12.26 l -20.891,-8.96 c -2,-0.85 -3.863,-2.24 -5.535,-3.9 -1.668,1.66 -3.535,3.05 -5.535,3.9 l -20.891,8.96 v 12.26 h -13.211 v -112.3 c 0,-7.27 5.461,-15.55 12.141,-18.42 l 20.89,-8.95 v -18.88 h 13.211 v 18.88 l 20.891,8.95 c 6.68,2.87 12.14,11.15 12.14,18.42 v 112.3 z m -33.032,-126.46 -13.75,5.89 c -3.336,1.43 -6.07,5.58 -6.07,9.21 v 6.61 l 13.746,-5.91 c 3.336,-1.43 6.07,-5.57 6.07,-9.19 v -6.61 z m 0,26.43 -13.75,5.88 c -3.336,1.44 -6.07,5.59 -6.07,9.21 v 6.61 l 13.746,-5.9 c 3.336,-1.43 6.07,-5.57 6.07,-9.2 v -6.6 z m 0,26.43 -13.75,5.89 c -3.336,1.43 -6.07,5.57 -6.07,9.2 v 6.6 l 13.746,-5.89 c 3.336,-1.43 6.07,-5.57 6.07,-9.2 v -6.6 z m 0,26.42 -13.75,5.89 c -3.336,1.43 -6.07,5.58 -6.07,9.2 v 6.61 l 13.746,-5.89 c 3.336,-1.43 6.07,-5.58 6.07,-9.21 v -6.6 z m 33.032,-64.18 c 0,-3.63 -2.739,-7.78 -6.075,-9.21 l -13.746,-5.89 v 6.61 c 0,3.62 2.735,7.76 6.067,9.2 l 13.75,5.9 v -6.61 z m 0,26.43 c 0,-3.63 -2.739,-7.78 -6.075,-9.22 l -13.746,-5.88 v 6.6 c 0,3.63 2.735,7.77 6.067,9.21 l 13.75,5.89 v -6.6 z m 0,26.42 c 0,-3.63 -2.739,-7.77 -6.075,-9.2 l -13.746,-5.89 v 6.6 c 0,3.63 2.735,7.77 6.067,9.2 l 13.75,5.89 v -6.6 z m 0,26.42 c 0,-3.62 -2.739,-7.77 -6.075,-9.2 l -13.746,-5.89 v 6.61 c 0,3.62 2.735,7.77 6.067,9.2 l 13.75,5.89 v -6.61 h 0.004" /><path
         id="path26"
         style="fill:#1e579a;fill-opacity:1;fill-rule:nonzero;stroke:none"
         d="m 770.719,1334.82 c -4.899,5.61 -11.653,13.24 -24.524,13.24 -12.871,0 -19.597,-7.68 -24.523,-13.24 -4.926,-5.56 -7.125,-7.95 -12.555,-7.95 -5.429,0 -7.945,2.65 -12.551,7.95 -4.609,5.29 -11.656,13.24 -24.523,13.24 -12.871,0 -19.598,-7.68 -24.527,-13.24 -4.926,-5.56 -7.254,-7.95 -12.555,-7.95 h -7.945 v -15.89 h 7.945 c 12.875,0 19.602,7.68 24.527,13.24 4.922,5.57 7.258,7.95 12.551,7.95 5.301,0 7.945,-2.65 12.555,-7.95 4.605,-5.29 11.652,-13.24 24.523,-13.24 12.871,0 19.598,7.68 24.524,13.24 4.925,5.57 7.257,7.95 12.554,7.95 5.297,0 7.95,-2.65 12.555,-7.95 4.605,-5.29 11.652,-13.24 24.523,-13.24 h 7.942 v 15.89 h -7.942 c -5.296,0 -7.945,2.65 -12.554,7.95" /><path
         id="path28"
         style="fill:#1e579a;fill-opacity:1;fill-rule:nonzero;stroke:none"
         d="m 743.547,1402.61 c 0,15.89 -16.102,34.14 -23.039,41.27 l -11.391,11.73 -11.387,-11.73 c -6.937,-7.13 -23.039,-25.4 -23.039,-41.27 0,-19.86 15.438,-36.01 34.426,-36.01 18.988,0 34.43,16.15 34.43,36.01 z m -52.969,0 c 0,11.13 18.539,30.19 18.539,30.19 0,0 18.539,-19.06 18.539,-30.19 0,-11.12 -8.289,-20.12 -18.539,-20.12 -10.246,0 -18.539,9 -18.539,20.12" /><path
         id="path30"
         style="fill:#ec691f;fill-opacity:1;fill-rule:nonzero;stroke:none"
         d="m 1216.99,1385.79 c -23.86,0 -45.47,14.92 -61.12,30.57 v 12.22 h 18.33 l -6.11,18.34 h -24.45 v -30.56 c -15.65,-15.66 -37.26,-30.57 -61.12,-30.57 v -12.22 h 12.23 c 0,-25.96 -4.39,-50.75 -12.23,-73.35 h 42.96 c 10.76,10.76 19.06,23.93 24.27,38.55 5.22,-14.62 13.53,-27.79 24.29,-38.55 h 42.95 c -7.83,22.6 -12.22,47.39 -12.22,73.35 h 12.22 z m -96.91,-73.34 h -21.13 c 5.28,19.76 8.02,40.24 8.02,61.12 h 36.67 c 0,-22.81 -8.39,-44.29 -23.56,-61.12 z m 80.48,0 h -21.13 c -15.17,16.83 -23.56,38.31 -23.56,61.12 h 36.67 c 0,-20.88 2.74,-41.36 8.02,-61.12 z m -76.24,73.34 c 9.85,5.73 18.45,12.75 25.43,19.45 7,-6.69 15.6,-13.72 25.45,-19.45 h -50.88" /><path
         id="path32"
         style="fill:#dc1d42;fill-opacity:1;fill-rule:nonzero;stroke:none"
         d="m 996.758,1416.95 h -23.957 v 23.96 H 865.004 v -119.78 c 0,-13.23 10.726,-23.96 23.953,-23.96 l 59.891,-0.01 c 13.226,0 23.953,10.73 23.953,23.97 v 14.04 l 28.919,28.91 c 4.33,4.34 7.01,10.33 7.01,16.94 v 23.95 c 0,6.62 -5.36,11.98 -11.972,11.98 z m -35.934,11.98 v -11.98 H 876.98 v 11.98 z m -11.976,-119.78 h -59.891 c -6.605,0 -11.977,5.37 -11.977,11.98 v 83.84 h 11.977 v -83.84 h 11.977 v 83.84 h 11.98 v -83.84 h 11.977 v 83.84 h 11.98 v -83.84 h 11.977 v 83.84 h 11.976 v -83.84 c 0,-6.61 -5.375,-11.98 -11.976,-11.98 z m 47.91,71.87 c 0,-3.2 -1.246,-6.2 -3.512,-8.47 l -20.445,-20.45 v 52.87 h 23.957 v -23.95" /><path
         id="path34"
         style="fill:#dc1d42;fill-opacity:1;fill-rule:nonzero;stroke:none"
         d="m 1396.16,1336.05 -7.86,28.84 c 18.67,11.26 31.19,31.68 31.19,55.07 h -128.71 c 0,-23.39 12.52,-43.81 31.19,-55.07 l -18.32,-67.21 h 13.34 l 3.51,12.87 h 55.13 c 2.66,-7.48 9.73,-12.87 18.12,-12.87 10.66,0 19.31,8.65 19.31,19.31 0,9.84 -7.39,17.87 -16.9,19.06 z m -90.88,71.04 H 1405 c -5.74,-22.18 -25.92,-38.61 -49.86,-38.61 -23.95,0 -44.13,16.43 -49.86,38.61 z m 70.35,-83.66 h -51.62 l 9.79,35.88 c 6.68,-2.36 13.84,-3.7 21.34,-3.7 7.49,0 14.65,1.34 21.34,3.69 l 7.07,-25.97 c -3.66,-2.3 -6.46,-5.77 -7.92,-9.9 z m 18.12,-12.88 c -3.55,0 -6.43,2.89 -6.43,6.44 0,3.55 2.88,6.44 6.43,6.44 3.55,0 6.44,-2.89 6.44,-6.44 0,-3.55 -2.89,-6.44 -6.44,-6.44" /><path
         id="path36"
         style="fill:#dc1d42;fill-opacity:1;fill-rule:nonzero;stroke:none"
         d="m 1336.53,1432.84 h -13.57 l 6.43,19.3 h 13.57 l -6.43,-19.3" /><path
         id="path38"
         style="fill:#dc1d42;fill-opacity:1;fill-rule:nonzero;stroke:none"
         d="m 1362.27,1432.84 h -13.57 l 6.44,19.3 h 13.57 l -6.44,-19.3" /><path
         id="path40"
         style="fill:#dc1d42;fill-opacity:1;fill-rule:nonzero;stroke:none"
         d="m 1388.02,1432.84 h -13.58 l 6.44,19.3 h 13.58 l -6.44,-19.3" /><path
         id="path42"
         style="fill:#dc1d42;fill-opacity:1;fill-rule:nonzero;stroke:none"
         d="m 1393.28,1297.68 h 0.47 c -0.16,0 -0.32,0.05 -0.48,0.05 l 0.01,-0.05" /><path
         id="path44"
         style="fill:#b0673e;fill-opacity:1;fill-rule:nonzero;stroke:none"
         d="m 1348.05,1162.09 c 16.31,0 31.08,-6.61 41.78,-17.3 10.57,-10.58 17.16,-25.16 17.3,-41.27 -4.42,4.07 -9.79,7.12 -15.74,8.77 -1.82,8.51 -6.08,16.12 -12.01,22.05 -8.02,8.02 -19.09,12.98 -31.33,12.98 -3.8,0 -7.48,-0.48 -10.98,-1.36 -3.55,-0.91 -6.89,-2.21 -9.95,-3.85 -0.3,-0.18 -0.61,-0.34 -0.94,-0.48 -3.74,-1.6 -8.07,0.15 -9.66,3.89 -1.83,4.27 -4.89,7.9 -8.74,10.44 -3.7,2.45 -8.15,3.87 -12.96,3.87 -6.52,0 -12.41,-2.64 -16.67,-6.9 -4.26,-4.27 -6.9,-10.16 -6.9,-16.67 0,-6.5 2.64,-12.4 6.9,-16.66 4.26,-4.26 10.15,-6.9 16.67,-6.9 0.88,0 0.14,-0.03 0.62,-0.02 l 0.61,0.03 c 0.22,0.01 0.45,0.01 0.67,0 4.06,-0.17 7.21,-3.61 7.04,-7.68 l -0.04,-1.02 c -0.01,-0.39 0.01,0.06 0.01,-1 0,-12.24 4.96,-23.32 12.98,-31.34 7.7,-7.7 18.22,-12.58 29.88,-12.95 1.89,-3.92 4.41,-7.46 7.45,-10.5 1.25,-1.24 2.57,-2.4 3.98,-3.46 -3.25,-0.55 -6.58,-0.84 -9.97,-0.84 -16.32,0 -31.09,6.62 -41.78,17.31 -9.67,9.66 -16,22.66 -17.13,37.11 -8.32,1.24 -15.76,5.14 -21.44,10.82 -6.93,6.93 -11.22,16.52 -11.22,27.1 0,10.59 4.29,20.18 11.22,27.11 6.94,6.94 16.53,11.24 27.12,11.24 7.77,0 15.03,-2.34 21.1,-6.36 4.11,-2.71 7.67,-6.21 10.47,-10.27 2.3,0.91 4.65,1.68 7.05,2.29 4.68,1.19 9.58,1.82 14.61,1.82" /><path
         id="path46"
         style="fill:#b0673e;fill-opacity:1;fill-rule:nonzero;stroke:none"
         d="m 1381.15,1113.67 c 10.59,0 20.17,-4.29 27.11,-11.23 6.94,-6.94 11.23,-16.53 11.23,-27.11 0,-10.59 -4.29,-20.17 -11.23,-27.11 -6.94,-6.94 -16.52,-11.23 -27.11,-11.23 -10.58,0 -20.17,4.29 -27.11,11.23 -6.93,6.94 -11.23,16.52 -11.23,27.11 0,10.58 4.3,20.17 11.23,27.11 6.94,6.94 16.53,11.23 27.11,11.23 z m 16.67,-21.68 c -4.27,4.27 -10.16,6.9 -16.67,6.9 -6.51,0 -12.4,-2.63 -16.66,-6.9 -4.27,-4.26 -6.9,-10.15 -6.9,-16.66 0,-6.51 2.63,-12.4 6.9,-16.67 4.26,-4.26 10.15,-6.9 16.66,-6.9 6.51,0 12.4,2.64 16.67,6.9 4.26,4.27 6.9,10.16 6.9,16.67 0,6.51 -2.64,12.4 -6.9,16.66" /><path
         id="path48"
         style="fill:#b0673e;fill-opacity:1;fill-rule:nonzero;stroke:none"
         d="m 1334.83,1196.16 c 4.37,0 8.33,-1.78 11.21,-4.66 l 0.01,0.02 c 2.87,-2.88 4.65,-6.84 4.65,-11.22 0,-4.39 -1.78,-8.35 -4.65,-11.23 -2.87,-2.87 -6.84,-4.64 -11.22,-4.64 -4.38,0 -8.35,1.77 -11.22,4.64 l 0.01,0.02 c -2.88,2.87 -4.66,6.84 -4.66,11.21 0,4.35 1.78,8.32 4.65,11.2 l 0.02,0.02 c 2.88,2.87 6.84,4.64 11.2,4.64 z m 4.26,-11.59 c -1.08,1.08 -2.58,1.75 -4.26,1.75 -1.67,0 -3.18,-0.67 -4.26,-1.75 l -0.02,-0.02 c -1.07,-1.07 -1.74,-2.58 -1.74,-4.25 0,-1.68 0.67,-3.19 1.74,-4.26 h 0.02 c 1.09,-1.09 2.6,-1.77 4.26,-1.77 1.67,0 3.17,0.68 4.26,1.77 1.09,1.09 1.76,2.59 1.76,4.26 0,1.66 -0.67,3.16 -1.76,4.25 v 0.02" /><path
         id="path50"
         style="fill:#b0673e;fill-opacity:1;fill-rule:nonzero;stroke:none"
         d="m 1265.65,1101.3 c 6.85,0 13.05,-2.77 17.53,-7.26 4.48,-4.48 7.26,-10.68 7.26,-17.52 0,-6.84 -2.78,-13.04 -7.26,-17.53 -4.49,-4.48 -10.68,-7.26 -17.53,-7.26 -6.84,0 -13.04,2.78 -17.52,7.26 -4.49,4.49 -7.26,10.69 -7.26,17.53 0,6.84 2.77,13.04 7.26,17.52 4.48,4.49 10.68,7.26 17.52,7.26 z m 10.56,-14.22 c -2.69,2.7 -6.43,4.37 -10.56,4.37 -4.12,0 -7.86,-1.67 -10.56,-4.37 -2.7,-2.7 -4.38,-6.44 -4.38,-10.56 0,-4.13 1.68,-7.86 4.38,-10.57 2.7,-2.7 6.44,-4.37 10.56,-4.37 4.13,0 7.87,1.67 10.56,4.37 2.71,2.71 4.38,6.44 4.38,10.57 0,4.12 -1.67,7.86 -4.38,10.56" /><path
         id="path52"
         style="fill:#149b76;fill-opacity:1;fill-rule:nonzero;stroke:none"
         d="m 300.824,1185.56 -8.578,8.58 -15.457,-15.46 c -26.211,21.87 -65.23,20.53 -89.832,-4.07 4.313,-4.31 9.02,-7.95 13.887,-11.25 -12.586,-1.82 -24.778,-8.54 -34.438,-20.2 3.559,-4.31 7.5,-7.86 11.645,-10.83 -10.293,-6.57 -18.528,-16.98 -22.805,-30.84 5.867,-3.1 11.809,-5.13 17.68,-6.19 -12.332,-10.6 -19.231,-27.13 -17.403,-46.49 19.336,-1.8 35.856,5.1 46.469,17.43 1.055,-5.87 3.082,-11.81 6.188,-17.67 13.847,4.28 24.258,12.5 30.828,22.79 2.969,-4.15 6.523,-8.08 10.828,-11.65 11.602,9.61 18.297,21.72 20.164,34.24 3.328,-4.91 7.109,-9.49 11.289,-13.68 24.598,24.6 25.934,63.62 4.078,89.83 z M 171.23,1108.1 c 4.708,8.21 11.551,14.16 19.633,17.35 1.25,-0.45 2.5,-0.79 3.762,-1.15 -2.668,-5.35 -4.797,-11.08 -6.141,-17.22 -1.972,-0.32 -3.984,-0.52 -6.043,-0.52 -3.734,0 -7.476,0.52 -11.211,1.54 z m 20.934,-34.77 c -6.168,-6.78 -14.687,-11.03 -24.414,-12.28 1.082,8.48 4.43,16.06 9.82,21.99 2.598,2.84 5.676,5.13 9.004,7.05 -0.039,-3.22 0.074,-6.49 0.395,-9.83 3.34,-0.31 6.609,-0.42 9.832,-0.38 -1.34,-2.33 -2.828,-4.56 -4.637,-6.55 z m -8.48,69.83 c 7.25,5.61 15.597,8.62 24.234,8.62 6.141,0 12.121,-1.59 17.684,-4.49 -1.321,-3.23 -2.454,-6.5 -3.407,-9.81 -4.574,-1.88 -9.363,-2.96 -14.273,-2.96 -0.004,0 -0.004,0 -0.004,0 -8.641,0 -16.984,3.02 -24.234,8.64 z m 15.062,-51.12 c 0.449,11.15 3.387,21.48 8.516,30.39 4.031,-0.05 8.058,0.45 12.031,1.39 -0.535,-4.02 -0.891,-8.05 -0.891,-12.11 4.114,0.01 8.129,0.35 12.086,0.88 -0.937,-3.98 -1.433,-8.02 -1.371,-12.06 -8.879,-5.1 -19.219,-8.03 -30.371,-8.49 z m 33.285,-8.4 c -3.308,-7.98 -9.281,-14.54 -17.242,-19.09 -1.601,5.84 -1.836,11.66 -0.949,17.25 6.113,1.35 11.805,3.48 17.137,6.13 0.363,-1.29 0.722,-2.57 1.191,-3.85 -0.055,-0.14 -0.078,-0.3 -0.137,-0.44 z m 17.801,-6.64 c -5.621,7.25 -8.633,15.59 -8.633,24.23 0.008,4.9 1.082,9.68 2.946,14.25 3.359,0.97 6.636,2.09 9.832,3.41 2.894,-5.55 4.48,-11.52 4.48,-17.66 0,-8.64 -3.008,-16.98 -8.625,-24.23 z m 31.133,22.43 c -5.207,7.37 -9.207,15.6 -11.766,24.3 l -3.953,13.43 -12.73,-5.82 c -6.75,-3.08 -13.739,-5.22 -20.891,-6.41 1.184,7.12 3.324,14.1 6.406,20.86 l 5.809,12.73 -13.422,3.94 c -8.703,2.56 -16.945,6.57 -24.34,11.83 8.387,5.03 18.012,7.72 28.047,7.72 14.574,0 28.277,-5.67 38.586,-15.98 18.031,-18.03 20.777,-45.65 8.254,-66.6" /><path
         id="path54"
         style="fill:#ec691f;fill-opacity:1;fill-rule:nonzero;stroke:none"
         d="m 68.2344,1194.12 v -12.27 l -20.8906,-8.95 c -2,-0.86 -3.8633,-2.24 -5.5352,-3.9 -1.6719,1.66 -3.5352,3.05 -5.5352,3.9 l -20.8867,8.95 v 12.27 H 2.17188 v -112.31 c 0,-7.26 5.46484,-15.55 12.14062,-18.42 l 20.8906,-8.95 v -18.87 h 13.211 v 18.88 l 20.8906,8.94 c 6.6758,2.87 12.1406,11.16 12.1406,18.42 v 112.31 z m -33.0313,-126.46 -13.75,5.88 c -3.3359,1.43 -6.0703,5.59 -6.0703,9.21 v 6.61 l 13.7461,-5.9 c 3.3399,-1.43 6.0703,-5.57 6.0703,-9.2 l 0.0039,-6.6 z m 0,26.43 -13.75,5.88 c -3.3359,1.43 -6.0703,5.58 -6.0703,9.21 v 6.61 l 13.7461,-5.9 c 3.3399,-1.43 6.0703,-5.57 6.0703,-9.2 l 0.0039,-6.6 z m 0,26.42 -13.75,5.89 c -3.3359,1.43 -6.0703,5.58 -6.0703,9.21 v 6.6 l 13.7461,-5.89 c 3.3399,-1.43 6.0703,-5.58 6.0703,-9.21 l 0.0039,-6.6 z m 0,26.42 -13.75,5.89 c -3.3359,1.44 -6.0703,5.58 -6.0703,9.21 v 6.6 l 13.7461,-5.88 c 3.3399,-1.44 6.0703,-5.59 6.0703,-9.21 l 0.0039,-6.61 z m 33.0313,-64.18 c 0,-3.62 -2.7344,-7.78 -6.0703,-9.21 l -13.75,-5.88 v 6.61 c 0,3.62 2.7382,7.76 6.0703,9.19 l 13.7461,5.91 v -6.62 z m 0,26.43 c 0,-3.63 -2.7344,-7.78 -6.0703,-9.21 l -13.75,-5.88 v 6.6 c 0,3.63 2.7382,7.77 6.0703,9.2 l 13.7461,5.9 v -6.61 z m 0,26.43 c 0,-3.63 -2.7344,-7.78 -6.0703,-9.21 l -13.75,-5.89 v 6.6 c 0,3.63 2.7382,7.78 6.0703,9.21 l 13.7461,5.89 v -6.6 z m 0,26.42 c 0,-3.63 -2.7344,-7.77 -6.0703,-9.21 l -13.75,-5.89 v 6.61 c 0,3.63 2.7382,7.78 6.0703,9.21 l 13.7461,5.89 v -6.61 h 0.0039" /><path
         id="path56"
         style="fill:#1e579a;fill-opacity:1;fill-rule:nonzero;stroke:none"
         d="m 518.309,1076.79 c -4.899,5.62 -11.653,13.24 -24.524,13.24 -12.867,0 -19.597,-7.68 -24.523,-13.24 -4.926,-5.56 -7.125,-7.94 -12.555,-7.94 -5.426,0 -7.945,2.64 -12.551,7.94 -4.609,5.3 -11.656,13.24 -24.523,13.24 -12.871,0 -19.602,-7.68 -24.524,-13.24 -4.925,-5.56 -7.257,-7.94 -12.554,-7.94 h -7.946 v -15.9 h 7.946 c 12.871,0 19.597,7.69 24.523,13.25 4.926,5.56 7.254,7.94 12.555,7.94 5.293,0 7.945,-2.65 12.551,-7.94 4.609,-5.3 11.652,-13.25 24.523,-13.25 12.871,0 19.598,7.69 24.523,13.25 4.926,5.56 7.258,7.94 12.555,7.94 5.301,0 7.945,-2.65 12.551,-7.94 4.609,-5.3 11.656,-13.25 24.527,-13.25 h 7.946 v 15.9 h -7.946 c -5.297,0 -7.945,2.64 -12.554,7.94" /><path
         id="path58"
         style="fill:#1e579a;fill-opacity:1;fill-rule:nonzero;stroke:none"
         d="m 491.137,1144.59 c 0,15.89 -16.102,34.14 -23.043,41.26 l -11.387,11.74 -11.387,-11.74 c -6.937,-7.12 -23.039,-25.4 -23.039,-41.26 0,-19.86 15.438,-36.02 34.426,-36.02 18.992,0 34.43,16.16 34.43,36.02 z m -52.965,0 c 0,11.12 18.535,30.19 18.535,30.19 0,0 18.539,-19.07 18.539,-30.19 0,-11.12 -8.289,-20.13 -18.539,-20.13 -10.246,0 -18.535,9.01 -18.535,20.13" /><path
         id="path60"
         style="fill:#ec691f;fill-opacity:1;fill-rule:nonzero;stroke:none"
         d="m 964.582,1127.77 c -23.867,0 -45.473,14.91 -61.125,30.56 v 12.22 h 18.336 l -6.109,18.34 h -24.45 v -30.56 c -15.648,-15.65 -37.257,-30.56 -61.121,-30.56 v -12.23 h 12.223 c 0,-25.96 -4.387,-50.74 -12.223,-73.34 h 42.953 c 10.766,10.76 19.063,23.93 24.282,38.55 5.215,-14.62 13.515,-27.79 24.281,-38.55 h 42.953 c -7.84,22.6 -12.227,47.38 -12.227,73.34 h 12.227 z m -96.914,-73.35 h -21.129 c 5.281,19.76 8.024,40.24 8.024,61.12 h 36.671 c 0,-22.8 -8.394,-44.29 -23.566,-61.12 z m 80.488,0 h -21.133 c -15.171,16.83 -23.566,38.32 -23.566,61.12 h 36.676 c 0,-20.88 2.738,-41.36 8.023,-61.12 z m -76.242,73.35 c 9.848,5.73 18.441,12.75 25.434,19.44 6.992,-6.69 15.593,-13.71 25.441,-19.44 h -50.875" /><path
         id="path62"
         style="fill:#dc1d42;fill-opacity:1;fill-rule:nonzero;stroke:none"
         d="m 744.348,1158.93 h -23.953 v 23.95 H 612.594 v -119.77 c 0,-13.23 10.722,-23.96 23.953,-23.96 l 59.891,-0.01 c 13.23,0 23.957,10.73 23.957,23.96 v 14.04 l 28.914,28.91 c 4.332,4.34 7.015,10.34 7.015,16.94 v 23.96 c 0,6.61 -5.363,11.98 -11.976,11.98 z m -35.934,11.98 v -11.98 H 624.57 v 11.98 z m -11.976,-119.78 h -59.891 c -6.606,0 -11.977,5.37 -11.977,11.98 v 83.84 h 11.977 v -83.84 h 11.98 v 83.84 h 11.977 v -83.84 h 11.976 v 83.84 h 11.977 v -83.84 h 11.981 v 83.84 h 11.976 v -83.85 c 0,-6.6 -5.375,-11.97 -11.976,-11.97 z m 47.91,71.86 c 0,-3.19 -1.243,-6.2 -3.508,-8.47 l -20.445,-20.44 v 52.87 h 23.953 v -23.96" /><path
         id="path64"
         style="fill:#dc1d42;fill-opacity:1;fill-rule:nonzero;stroke:none"
         d="m 1143.75,1078.03 -7.86,28.83 c 18.67,11.26 31.19,31.68 31.19,55.08 h -128.71 c 0,-23.4 12.52,-43.82 31.2,-55.08 l -18.33,-67.2 h 13.34 l 3.51,12.87 h 55.12 c 2.67,-7.48 9.74,-12.87 18.13,-12.87 10.66,0 19.31,8.65 19.31,19.31 0,9.83 -7.39,17.87 -16.9,19.06 z m -90.88,71.04 h 99.71 c -5.73,-22.19 -25.91,-38.62 -49.85,-38.62 -23.95,0 -44.13,16.43 -49.86,38.62 z m 70.34,-83.67 h -51.61 l 9.79,35.88 c 6.68,-2.35 13.84,-3.7 21.34,-3.7 7.49,0 14.65,1.35 21.33,3.7 l 7.09,-25.98 c -3.67,-2.29 -6.46,-5.76 -7.94,-9.9 z m 18.13,-12.87 c -3.55,0 -6.43,2.88 -6.43,6.44 0,3.55 2.88,6.43 6.43,6.43 3.55,0 6.44,-2.88 6.44,-6.43 0,-3.56 -2.89,-6.44 -6.44,-6.44" /><path
         id="path66"
         style="fill:#dc1d42;fill-opacity:1;fill-rule:nonzero;stroke:none"
         d="m 1084.12,1174.81 h -13.57 l 6.43,19.31 h 13.57 l -6.43,-19.31" /><path
         id="path68"
         style="fill:#dc1d42;fill-opacity:1;fill-rule:nonzero;stroke:none"
         d="m 1109.86,1174.81 h -13.57 l 6.44,19.31 h 13.57 l -6.44,-19.31" /><path
         id="path70"
         style="fill:#dc1d42;fill-opacity:1;fill-rule:nonzero;stroke:none"
         d="m 1135.61,1174.81 h -13.57 l 6.43,19.31 h 13.57 l -6.43,-19.31" /><path
         id="path72"
         style="fill:#dc1d42;fill-opacity:1;fill-rule:nonzero;stroke:none"
         d="m 1140.87,1039.66 h 0.47 c -0.16,0 -0.32,0.04 -0.48,0.05 l 0.01,-0.05" /><path
         id="path74"
         style="fill:#ec691f;fill-opacity:1;fill-rule:nonzero;stroke:none"
         d="m 1406.28,938.539 v -12.273 l -20.89,-8.953 c -2,-0.852 -3.86,-2.243 -5.53,-3.895 -1.68,1.652 -3.54,3.047 -5.54,3.895 l -20.89,8.953 v 12.273 h -13.21 V 826.23 c 0,-7.265 5.46,-15.554 12.14,-18.417 l 20.89,-8.954 v -18.871 h 13.21 v 18.875 l 20.89,8.95 c 6.68,2.863 12.14,11.152 12.14,18.417 v 112.309 z m -33.03,-126.465 -13.75,5.883 c -3.34,1.434 -6.07,5.586 -6.07,9.211 v 6.609 l 13.75,-5.898 c 3.33,-1.434 6.07,-5.578 6.07,-9.199 v -6.606 z m 0,26.43 -13.75,5.879 c -3.34,1.437 -6.07,5.59 -6.07,9.215 v 6.605 l 13.75,-5.894 c 3.33,-1.434 6.07,-5.575 6.07,-9.204 v -6.601 z m 0,26.422 -13.75,5.89 c -3.34,1.434 -6.07,5.579 -6.07,9.207 v 6.602 l 13.75,-5.887 c 3.33,-1.433 6.07,-5.578 6.07,-9.207 v -6.605 z m 0,26.426 -13.75,5.886 c -3.34,1.434 -6.07,5.582 -6.07,9.207 v 6.606 l 13.75,-5.887 c 3.33,-1.434 6.07,-5.582 6.07,-9.207 v -6.605 z m 33.03,-64.18 c 0,-3.625 -2.73,-7.781 -6.07,-9.211 l -13.75,-5.883 v 6.606 c 0,3.625 2.74,7.765 6.07,9.199 l 13.75,5.898 v -6.609 z m 0,26.43 c 0,-3.629 -2.73,-7.782 -6.07,-9.215 l -13.75,-5.883 v 6.601 c 0,3.629 2.74,7.774 6.07,9.204 l 13.75,5.894 v -6.601 z m 0,26.421 c 0,-3.628 -2.73,-7.773 -6.07,-9.207 l -13.75,-5.89 v 6.605 c 0,3.629 2.74,7.774 6.07,9.207 l 13.75,5.887 v -6.602 z m 0,26.426 c 0,-3.629 -2.73,-7.773 -6.07,-9.207 l -13.75,-5.89 v 6.609 c 0,3.625 2.74,7.769 6.07,9.203 l 13.75,5.891 v -6.606 0" /><path
         id="path76"
         style="fill:#b0673e;fill-opacity:1;fill-rule:nonzero;stroke:none"
         d="m 1194.98,904.066 c 16.32,0 31.09,-6.613 41.78,-17.308 10.58,-10.578 17.17,-25.149 17.31,-41.258 -4.42,4.07 -9.79,7.117 -15.75,8.762 -1.81,8.515 -6.07,16.121 -12,22.054 -8.02,8.02 -19.1,12.977 -31.34,12.977 -3.79,0 -7.47,-0.473 -10.96,-1.363 -3.56,-0.903 -6.89,-2.203 -9.97,-3.848 -0.29,-0.18 -0.6,-0.34 -0.93,-0.48 -3.75,-1.598 -8.07,0.152 -9.67,3.894 -1.82,4.27 -4.88,7.902 -8.73,10.442 -3.7,2.445 -8.15,3.867 -12.97,3.867 -6.51,0 -12.4,-2.637 -16.66,-6.903 -4.27,-4.261 -6.9,-10.156 -6.9,-16.664 0,-6.508 2.63,-12.402 6.9,-16.664 4.26,-4.265 10.15,-6.902 16.66,-6.902 0.89,0 0.15,-0.031 0.63,-0.016 l 0.61,0.028 c 0.22,0.007 0.44,0.011 0.67,0 4.06,-0.176 7.21,-3.614 7.04,-7.676 l -0.04,-1.024 c -0.01,-0.39 0.01,0.055 0.01,-1.004 0,-12.234 4.96,-23.316 12.98,-31.335 7.7,-7.7 18.22,-12.579 29.88,-12.954 1.88,-3.914 4.42,-7.457 7.45,-10.496 1.24,-1.242 2.57,-2.398 3.97,-3.461 -3.24,-0.55 -6.57,-0.839 -9.97,-0.839 -16.31,0 -31.09,6.617 -41.78,17.308 -9.66,9.664 -15.99,22.66 -17.12,37.113 -8.32,1.235 -15.76,5.141 -21.44,10.813 -6.93,6.937 -11.23,16.523 -11.23,27.109 0,10.586 4.3,20.172 11.23,27.11 6.94,6.937 16.53,11.23 27.11,11.23 7.78,0 15.04,-2.336 21.11,-6.348 4.11,-2.714 7.67,-6.21 10.47,-10.277 2.3,0.91 4.65,1.676 7.05,2.285 4.68,1.196 9.58,1.828 14.6,1.828" /><path
         id="path78"
         style="fill:#b0673e;fill-opacity:1;fill-rule:nonzero;stroke:none"
         d="m 1228.09,855.645 c 10.59,0 20.18,-4.293 27.11,-11.231 6.94,-6.937 11.23,-16.523 11.23,-27.109 0,-10.586 -4.29,-20.172 -11.23,-27.11 -6.93,-6.937 -16.52,-11.23 -27.11,-11.23 -10.59,0 -20.17,4.293 -27.11,11.23 -6.93,6.938 -11.23,16.524 -11.23,27.11 0,10.586 4.3,20.172 11.23,27.109 6.94,6.938 16.52,11.231 27.11,11.231 z m 16.67,-21.676 c -4.27,4.265 -10.16,6.902 -16.67,6.902 -6.5,0 -12.4,-2.637 -16.66,-6.902 -4.27,-4.262 -6.9,-10.156 -6.9,-16.664 0,-6.508 2.63,-12.403 6.9,-16.664 4.26,-4.266 10.16,-6.903 16.66,-6.903 6.51,0 12.4,2.637 16.67,6.903 4.26,4.261 6.9,10.156 6.9,16.664 0,6.508 -2.64,12.398 -6.9,16.664" /><path
         id="path80"
         style="fill:#b0673e;fill-opacity:1;fill-rule:nonzero;stroke:none"
         d="m 1181.77,938.137 c 4.36,0 8.33,-1.782 11.21,-4.657 l 0.01,0.008 c 2.87,-2.871 4.65,-6.836 4.65,-11.218 0,-4.379 -1.78,-8.348 -4.65,-11.219 -2.87,-2.871 -6.84,-4.649 -11.22,-4.649 -4.38,0 -8.35,1.778 -11.22,4.649 l 0.01,0.012 c -2.88,2.878 -4.66,6.843 -4.66,11.207 0,4.359 1.78,8.32 4.65,11.203 l 0.02,0.015 c 2.88,2.875 6.84,4.649 11.2,4.649 z m 4.26,-11.59 c -1.08,1.078 -2.58,1.742 -4.26,1.742 -1.68,0 -3.18,-0.664 -4.26,-1.742 l -0.01,-0.02 c -1.08,-1.078 -1.75,-2.582 -1.75,-4.257 0,-1.676 0.67,-3.18 1.75,-4.258 h 0.01 c 1.09,-1.09 2.6,-1.762 4.26,-1.762 1.66,0 3.17,0.672 4.26,1.762 1.08,1.09 1.76,2.593 1.76,4.258 0,1.664 -0.68,3.171 -1.76,4.257 v 0.02" /><path
         id="path82"
         style="fill:#b0673e;fill-opacity:1;fill-rule:nonzero;stroke:none"
         d="m 1112.59,843.277 c 6.84,0 13.04,-2.773 17.53,-7.257 4.48,-4.489 7.26,-10.684 7.26,-17.528 0,-6.844 -2.78,-13.039 -7.26,-17.523 -4.49,-4.485 -10.69,-7.258 -17.53,-7.258 -6.84,0 -13.04,2.773 -17.52,7.258 -4.49,4.484 -7.27,10.679 -7.27,17.523 0,6.844 2.78,13.043 7.27,17.528 4.48,4.484 10.68,7.257 17.52,7.257 z m 10.56,-14.218 c -2.7,2.699 -6.44,4.371 -10.56,4.371 -4.13,0 -7.86,-1.672 -10.56,-4.371 -2.71,-2.704 -4.38,-6.438 -4.38,-10.567 0,-4.125 1.67,-7.859 4.38,-10.562 2.7,-2.7 6.43,-4.371 10.56,-4.371 4.12,0 7.86,1.671 10.56,4.371 2.71,2.703 4.38,6.437 4.38,10.562 0,4.129 -1.67,7.86 -4.38,10.567" /><path
         id="path84"
         style="fill:#149b76;fill-opacity:1;fill-rule:nonzero;stroke:none"
         d="m 147.762,927.531 -8.578,8.582 -15.454,-15.461 c -26.2105,21.868 -65.2339,20.532 -89.8355,-4.07 4.3125,-4.312 9.0235,-7.949 13.8868,-11.254 -12.5821,-1.812 -24.7735,-8.531 -34.4375,-20.191 3.5585,-4.309 7.5,-7.867 11.6445,-10.832 C 14.6992,867.738 6.46094,857.324 2.1875,843.465 8.05078,840.363 13.9922,838.332 19.8672,837.277 7.53125,826.668 0.636719,810.145 2.46094,790.789 c 19.33596,-1.809 35.85546,5.094 46.46876,17.43 1.0586,-5.871 3.082,-11.813 6.1875,-17.672 13.8516,4.277 24.2617,12.5 30.8281,22.789 2.9688,-4.148 6.5235,-8.086 10.832,-11.652 11.5977,9.609 18.2927,21.722 20.1607,34.242 3.332,-4.91 7.109,-9.492 11.292,-13.68 24.598,24.598 25.93,63.621 4.075,89.828 z M 18.1719,850.074 c 4.7031,8.211 11.5469,14.156 19.6328,17.352 1.2461,-0.453 2.5,-0.797 3.7578,-1.149 -2.668,-5.355 -4.7969,-11.086 -6.1406,-17.226 -1.9727,-0.313 -3.9805,-0.516 -6.043,-0.516 -3.7305,0.004 -7.4726,0.516 -11.207,1.539 z m 20.9297,-34.769 c -6.168,-6.778 -14.6836,-11.024 -24.4141,-12.282 1.0859,8.485 4.4297,16.067 9.8242,21.985 2.5938,2.844 5.6719,5.137 9.0039,7.051 -0.0429,-3.211 0.0703,-6.485 0.3907,-9.821 3.3398,-0.316 6.6132,-0.425 9.832,-0.386 -1.336,-2.329 -2.8281,-4.563 -4.6367,-6.547 z m -8.4766,69.832 c 7.25,5.609 15.5938,8.621 24.2305,8.621 6.1445,0 12.1211,-1.594 17.6836,-4.496 -1.3203,-3.223 -2.4493,-6.492 -3.4063,-9.813 -4.5703,-1.875 -9.3594,-2.949 -14.2734,-2.949 -0.0039,0 -0.0039,0 -0.0039,0 -8.6367,0 -16.9805,3.012 -24.2305,8.637 z M 45.6836,834.02 c 0.4492,11.148 3.3906,21.476 8.5156,30.382 4.0352,-0.05 8.0625,0.453 12.0313,1.391 -0.5313,-4.02 -0.8867,-8.055 -0.8867,-12.102 4.1093,0.008 8.125,0.348 12.0859,0.872 -0.9375,-3.977 -1.4336,-8.016 -1.375,-12.059 -8.8789,-5.102 -19.2149,-8.027 -30.3711,-8.484 z m 33.2852,-8.407 c -3.3086,-7.98 -9.2813,-14.539 -17.2422,-19.093 -1.5977,5.843 -1.836,11.664 -0.9453,17.257 6.1093,1.352 11.8046,3.477 17.1367,6.129 0.3633,-1.289 0.7226,-2.574 1.1914,-3.847 -0.0586,-0.141 -0.0821,-0.305 -0.1406,-0.446 z m 17.8007,-6.636 c -5.6211,7.253 -8.6328,15.589 -8.6328,24.234 0.0078,4.898 1.0821,9.68 2.9453,14.242 3.3594,0.969 6.6368,2.098 9.832,3.41 2.895,-5.547 4.481,-11.519 4.481,-17.652 0.003,-8.645 -3.008,-16.981 -8.6255,-24.234 z m 31.1325,22.425 c -5.207,7.371 -9.207,15.598 -11.765,24.309 l -3.949,13.426 -12.731,-5.817 c -6.75,-3.086 -13.7422,-5.226 -20.8945,-6.41 1.1875,7.121 3.3242,14.094 6.4063,20.852 l 5.8125,12.73 -13.4258,3.946 c -8.6992,2.554 -16.9453,6.566 -24.336,11.82 8.3868,5.039 18.0078,7.73 28.043,7.73 14.5742,0 28.2775,-5.675 38.5855,-15.984 18.032,-18.031 20.782,-45.649 8.254,-66.602" /><path
         id="path86"
         style="fill:#1e579a;fill-opacity:1;fill-rule:nonzero;stroke:none"
         d="m 365.25,818.77 c -4.902,5.609 -11.652,13.238 -24.527,13.238 -12.868,0 -19.594,-7.68 -24.524,-13.238 -4.926,-5.563 -7.121,-7.946 -12.551,-7.946 -5.429,0 -7.949,2.645 -12.554,7.946 -4.61,5.293 -11.653,13.238 -24.524,13.238 -12.871,0 -19.597,-7.68 -24.523,-13.238 -4.926,-5.563 -7.258,-7.946 -12.555,-7.946 h -7.945 V 794.93 h 7.945 c 12.871,0 19.598,7.679 24.528,13.242 4.921,5.562 7.253,7.945 12.55,7.945 5.297,0 7.946,-2.648 12.555,-7.945 4.605,-5.297 11.652,-13.242 24.523,-13.242 12.868,0 19.598,7.679 24.52,13.242 4.926,5.562 7.262,7.945 12.555,7.945 5.3,0 7.949,-2.648 12.554,-7.945 4.61,-5.297 11.653,-13.242 24.524,-13.242 h 7.945 v 15.894 h -7.945 c -5.297,0 -7.942,2.645 -12.551,7.946" /><path
         id="path88"
         style="fill:#1e579a;fill-opacity:1;fill-rule:nonzero;stroke:none"
         d="m 338.074,886.563 c 0,15.89 -16.097,34.14 -23.039,41.261 l -11.387,11.735 -11.386,-11.735 c -6.942,-7.121 -23.043,-25.394 -23.043,-41.261 0,-19.86 15.437,-36.016 34.429,-36.016 18.989,0 34.426,16.156 34.426,36.016 z m -52.965,0 c 0,11.125 18.539,30.191 18.539,30.191 0,0 18.536,-19.066 18.536,-30.191 0,-11.122 -8.286,-20.125 -18.536,-20.125 -10.25,0 -18.539,9.003 -18.539,20.125" /><path
         id="path90"
         style="fill:#ec691f;fill-opacity:1;fill-rule:nonzero;stroke:none"
         d="m 811.52,869.746 c -23.868,0 -45.473,14.91 -61.122,30.559 v 12.222 h 18.336 l -6.113,18.34 H 738.172 V 900.305 C 722.523,884.652 700.914,869.742 677.051,869.742 V 857.52 h 12.222 c 0,-25.965 -4.386,-50.75 -12.222,-73.348 h 42.953 c 10.766,10.762 19.062,23.933 24.281,38.555 5.219,-14.622 13.52,-27.793 24.281,-38.555 h 42.954 c -7.836,22.598 -12.223,47.383 -12.223,73.348 h 12.223 z m -96.911,-73.348 h -21.132 c 5.281,19.762 8.023,40.243 8.023,61.122 h 36.672 c 0,-22.809 -8.391,-44.29 -23.563,-61.122 z m 80.485,0 h -21.133 c -15.172,16.832 -23.563,38.313 -23.563,61.122 h 36.672 c 0,-20.879 2.739,-41.36 8.024,-61.122 z m -76.242,73.348 c 9.851,5.731 18.445,12.746 25.433,19.445 6.996,-6.691 15.594,-13.714 25.442,-19.445 h -50.875" /><path
         id="path92"
         style="fill:#dc1d42;fill-opacity:1;fill-rule:nonzero;stroke:none"
         d="m 591.285,900.902 h -23.953 v 23.953 H 459.531 V 805.078 c 0,-13.226 10.727,-23.953 23.957,-23.953 l 59.891,-0.008 c 13.226,0 23.953,10.727 23.953,23.957 v 14.043 l 28.914,28.914 c 4.336,4.34 7.02,10.328 7.02,16.938 v 23.953 c 0,6.617 -5.368,11.98 -11.981,11.98 z m -35.93,11.977 v -11.977 h -83.847 v 11.977 z m -11.976,-119.781 -59.891,0.004 c -6.609,0 -11.976,5.375 -11.976,11.98 l -0.004,83.84 h 11.98 v -83.844 h 11.977 v 83.844 h 11.98 v -83.844 h 11.973 v 83.844 h 11.98 v -83.844 h 11.981 v 83.844 h 11.976 v -83.848 c 0,-6.605 -5.375,-11.976 -11.976,-11.976 z m 47.906,71.871 c 0,-3.196 -1.242,-6.203 -3.508,-8.469 l -20.445,-20.445 v 52.867 h 23.953 v -23.953" /><path
         id="path94"
         style="fill:#dc1d42;fill-opacity:1;fill-rule:nonzero;stroke:none"
         d="m 990.688,820.004 -7.864,28.832 c 18.676,11.262 31.196,31.684 31.196,55.082 H 885.309 c 0,-23.398 12.523,-43.82 31.195,-55.082 l -18.328,-67.203 h 13.347 l 3.512,12.875 h 55.117 c 2.668,-7.485 9.735,-12.875 18.129,-12.875 10.66,0 19.309,8.648 19.309,19.308 0,9.84 -7.39,17.868 -16.902,19.063 z m -90.879,71.043 h 99.714 c -5.734,-22.188 -25.914,-38.617 -49.859,-38.617 -23.941,0 -44.125,16.429 -49.855,38.617 z m 70.343,-83.668 h -51.613 l 9.785,35.879 c 6.688,-2.356 13.848,-3.699 21.34,-3.699 7.492,0 14.652,1.343 21.34,3.695 l 7.082,-25.977 c -3.668,-2.293 -6.461,-5.761 -7.934,-9.898 z m 18.129,-12.871 c -3.551,0 -6.437,2.883 -6.437,6.433 0,3.551 2.886,6.438 6.437,6.438 3.551,0 6.434,-2.887 6.434,-6.438 0,-3.55 -2.883,-6.433 -6.434,-6.433" /><path
         id="path96"
         style="fill:#dc1d42;fill-opacity:1;fill-rule:nonzero;stroke:none"
         d="m 931.055,916.785 h -13.571 l 6.438,19.309 h 13.57 l -6.437,-19.309" /><path
         id="path98"
         style="fill:#dc1d42;fill-opacity:1;fill-rule:nonzero;stroke:none"
         d="M 956.797,916.785 H 943.23 l 6.434,19.309 h 13.574 l -6.441,-19.309" /><path
         id="path100"
         style="fill:#dc1d42;fill-opacity:1;fill-rule:nonzero;stroke:none"
         d="m 982.547,916.785 h -13.574 l 6.433,19.309 h 13.578 l -6.437,-19.309" /><path
         id="path102"
         style="fill:#dc1d42;fill-opacity:1;fill-rule:nonzero;stroke:none"
         d="m 987.809,781.633 h 0.472 c -0.164,0 -0.32,0.043 -0.484,0.051 l 0.012,-0.051" /><path
         id="path104"
         style="fill:#149b76;fill-opacity:1;fill-rule:nonzero;stroke:none"
         d="m 1419.49,665.457 -8.58,8.582 -15.45,-15.457 c -26.21,21.867 -65.23,20.527 -89.84,-4.074 4.32,-4.313 9.03,-7.945 13.89,-11.25 -12.58,-1.817 -24.77,-8.531 -34.44,-20.195 3.56,-4.309 7.5,-7.864 11.65,-10.829 -10.29,-6.57 -18.53,-16.984 -22.8,-30.843 5.86,-3.098 11.8,-5.129 17.68,-6.188 -12.34,-10.605 -19.23,-27.129 -17.41,-46.488 19.34,-1.805 35.85,5.098 46.47,17.43 1.06,-5.872 3.08,-11.813 6.19,-17.672 13.85,4.277 24.26,12.5 30.83,22.793 2.96,-4.153 6.52,-8.09 10.83,-11.653 11.6,9.61 18.29,21.723 20.16,34.239 3.33,-4.911 7.11,-9.489 11.29,-13.676 24.6,24.597 25.93,63.621 4.08,89.824 z M 1289.9,588 c 4.71,8.215 11.55,14.16 19.64,17.352 1.24,-0.45 2.5,-0.797 3.75,-1.149 -2.66,-5.355 -4.79,-11.082 -6.14,-17.223 -1.97,-0.312 -3.98,-0.519 -6.04,-0.519 -3.73,0 -7.47,0.519 -11.21,1.539 z m 20.93,-34.77 c -6.17,-6.777 -14.68,-11.023 -24.41,-12.281 1.08,8.489 4.43,16.067 9.82,21.989 2.59,2.843 5.67,5.136 9,7.05 -0.04,-3.211 0.07,-6.484 0.4,-9.824 3.34,-0.312 6.61,-0.426 9.83,-0.383 -1.34,-2.328 -2.83,-4.562 -4.64,-6.551 z m -8.47,69.833 c 7.25,5.613 15.59,8.625 24.23,8.625 6.14,0 12.12,-1.594 17.68,-4.497 -1.32,-3.222 -2.45,-6.496 -3.41,-9.812 -4.57,-1.875 -9.36,-2.953 -14.27,-2.953 0,0 0,0 0,0 -8.64,0.004 -16.98,3.012 -24.23,8.637 z m 15.05,-51.118 c 0.45,11.153 3.39,21.481 8.52,30.387 4.03,-0.055 8.06,0.449 12.03,1.387 -0.53,-4.02 -0.89,-8.051 -0.89,-12.102 4.11,0.008 8.13,0.348 12.09,0.871 -0.94,-3.972 -1.43,-8.011 -1.38,-12.054 -8.87,-5.102 -19.21,-8.028 -30.37,-8.489 z m 33.29,-8.402 c -3.31,-7.984 -9.28,-14.539 -17.24,-19.094 -1.6,5.84 -1.84,11.664 -0.95,17.258 6.11,1.348 11.81,3.477 17.14,6.129 0.36,-1.293 0.72,-2.578 1.19,-3.852 -0.06,-0.14 -0.08,-0.3 -0.14,-0.441 z m 17.8,-6.641 c -5.62,7.254 -8.63,15.59 -8.63,24.239 0.01,4.898 1.08,9.675 2.94,14.238 3.36,0.969 6.64,2.098 9.83,3.41 2.9,-5.547 4.49,-11.516 4.49,-17.648 0,-8.649 -3.01,-16.985 -8.63,-24.239 z m 31.13,22.43 c -5.2,7.367 -9.2,15.598 -11.76,24.305 l -3.96,13.429 -12.72,-5.82 c -6.75,-3.086 -13.74,-5.223 -20.9,-6.406 1.19,7.117 3.33,14.09 6.41,20.848 l 5.81,12.73 -13.42,3.945 c -8.71,2.555 -16.95,6.571 -24.34,11.825 8.39,5.039 18.01,7.726 28.04,7.726 14.58,0 28.28,-5.676 38.59,-15.98 18.03,-18.036 20.78,-45.649 8.25,-66.602" /><path
         id="path106"
         style="fill:#ec691f;fill-opacity:1;fill-rule:nonzero;stroke:none"
         d="m 1186.9,680.512 v -12.27 l -20.88,-8.953 c -2.01,-0.855 -3.87,-2.242 -5.54,-3.894 -1.67,1.652 -3.54,3.043 -5.54,3.894 l -20.89,8.953 v 12.27 h -13.21 V 568.203 c 0,-7.262 5.46,-15.551 12.14,-18.414 l 20.89,-8.953 v -18.875 h 13.21 v 18.875 l 20.89,8.953 c 6.68,2.863 12.14,11.152 12.14,18.418 v 112.305 z m -33.03,-126.465 -13.75,5.887 c -3.33,1.433 -6.07,5.586 -6.07,9.211 v 6.609 l 13.75,-5.902 c 3.34,-1.43 6.07,-5.575 6.07,-9.196 v -6.609 z m 0,26.43 -13.75,5.882 c -3.33,1.434 -6.07,5.586 -6.07,9.215 v 6.606 l 13.75,-5.899 c 3.34,-1.429 6.07,-5.574 6.07,-9.199 v -6.605 z m 0,26.425 -13.75,5.887 c -3.33,1.438 -6.07,5.582 -6.07,9.207 v 6.606 l 13.75,-5.891 c 3.34,-1.43 6.07,-5.578 6.07,-9.203 v -6.606 z m 0,26.422 -13.75,5.891 c -3.33,1.433 -6.07,5.578 -6.07,9.207 v 6.605 l 13.75,-5.89 c 3.34,-1.43 6.07,-5.582 6.07,-9.203 v -6.61 z m 33.03,-64.176 c 0,-3.628 -2.73,-7.781 -6.07,-9.21 l -13.75,-5.887 v 6.609 c 0,3.621 2.74,7.762 6.07,9.195 l 13.75,5.903 v -6.61 z m 0,26.426 c 0,-3.625 -2.73,-7.781 -6.07,-9.211 l -13.75,-5.883 v 6.602 c 0,3.629 2.74,7.77 6.07,9.203 l 13.75,5.895 v -6.606 z m 0,26.422 c 0,-3.625 -2.73,-7.769 -6.07,-9.207 l -13.75,-5.887 v 6.606 c 0,3.625 2.74,7.773 6.07,9.203 l 13.75,5.891 v -6.606 z m 0,26.426 c 0,-3.625 -2.73,-7.774 -6.07,-9.203 l -13.75,-5.891 v 6.606 c 0,3.625 2.74,7.773 6.07,9.207 l 13.75,5.89 v -6.609 0" /><path
         id="path108"
         style="fill:#b0673e;fill-opacity:1;fill-rule:nonzero;stroke:none"
         d="m 975.609,646.043 c 16.313,0 31.091,-6.613 41.781,-17.309 10.57,-10.578 17.16,-25.148 17.3,-41.257 -4.42,4.07 -9.79,7.113 -15.74,8.761 -1.82,8.512 -6.07,16.121 -12.01,22.051 -8.018,8.02 -19.096,12.981 -31.331,12.981 -3.8,0 -7.476,-0.473 -10.976,-1.364 -3.551,-0.902 -6.887,-2.203 -9.953,-3.847 -0.297,-0.184 -0.61,-0.344 -0.938,-0.485 -3.746,-1.594 -8.074,0.153 -9.668,3.895 -1.82,4.273 -4.879,7.906 -8.73,10.445 -3.699,2.441 -8.156,3.867 -12.969,3.867 -6.508,0 -12.398,-2.636 -16.664,-6.902 -4.262,-4.262 -6.902,-10.156 -6.902,-16.664 0,-6.508 2.64,-12.402 6.902,-16.664 4.266,-4.266 10.156,-6.903 16.664,-6.903 0.891,0 0.148,-0.031 0.625,-0.019 l 0.617,0.031 c 0.219,0.008 0.442,0.008 0.664,0 4.063,-0.176 7.215,-3.613 7.039,-7.676 l -0.039,-1.023 c -0.011,-0.395 0.012,0.055 0.012,-1.004 0,-12.238 4.961,-23.32 12.977,-31.336 7.703,-7.699 18.222,-12.578 29.882,-12.953 1.887,-3.914 4.414,-7.461 7.453,-10.496 1.243,-1.242 2.571,-2.399 3.973,-3.461 -3.242,-0.551 -6.574,-0.84 -9.969,-0.84 -16.316,0 -31.089,6.613 -41.781,17.305 -9.664,9.664 -15.996,22.66 -17.125,37.117 -8.316,1.234 -15.762,5.137 -21.433,10.812 -6.942,6.938 -11.231,16.524 -11.231,27.11 0,10.586 4.289,20.172 11.231,27.109 6.933,6.938 16.523,11.231 27.105,11.231 7.777,0 15.031,-2.336 21.105,-6.348 4.114,-2.719 7.672,-6.215 10.473,-10.277 2.297,0.91 4.649,1.675 7.047,2.285 4.68,1.191 9.578,1.828 14.609,1.828" /><path
         id="path110"
         style="fill:#b0673e;fill-opacity:1;fill-rule:nonzero;stroke:none"
         d="m 1008.71,597.617 c 10.59,0 20.18,-4.293 27.11,-11.226 6.94,-6.942 11.23,-16.524 11.23,-27.114 0,-10.582 -4.29,-20.168 -11.23,-27.105 -6.93,-6.942 -16.52,-11.231 -27.11,-11.231 -10.581,0 -20.167,4.289 -27.105,11.231 -6.937,6.933 -11.23,16.523 -11.23,27.105 0,10.59 4.293,20.172 11.23,27.114 6.938,6.933 16.524,11.226 27.105,11.226 z m 16.67,-21.672 c -4.26,4.262 -10.16,6.903 -16.67,6.903 -6.5,0 -12.397,-2.641 -16.659,-6.903 -4.266,-4.265 -6.903,-10.16 -6.903,-16.668 0,-6.507 2.637,-12.398 6.903,-16.664 4.262,-4.261 10.159,-6.902 16.659,-6.902 6.51,0 12.41,2.641 16.67,6.902 4.26,4.266 6.9,10.157 6.9,16.664 0,6.508 -2.64,12.403 -6.9,16.668" /><path
         id="path112"
         style="fill:#b0673e;fill-opacity:1;fill-rule:nonzero;stroke:none"
         d="m 962.395,680.113 c 4.359,0 8.328,-1.781 11.21,-4.66 l 0.008,0.012 c 2.871,-2.871 4.649,-6.84 4.649,-11.219 0,-4.379 -1.778,-8.348 -4.649,-11.219 -2.871,-2.871 -6.84,-4.648 -11.218,-4.648 -4.383,0 -8.352,1.777 -11.223,4.648 l 0.012,0.008 c -2.879,2.883 -4.661,6.848 -4.661,11.211 0,4.359 1.774,8.32 4.649,11.199 l 0.019,0.02 c 2.883,2.871 6.84,4.648 11.204,4.648 z m 4.257,-11.59 c -1.078,1.075 -2.586,1.743 -4.257,1.743 -1.676,0 -3.184,-0.668 -4.258,-1.743 l -0.02,-0.019 c -1.078,-1.078 -1.746,-2.582 -1.746,-4.258 0,-1.676 0.668,-3.18 1.746,-4.258 h 0.02 c 1.086,-1.09 2.593,-1.761 4.258,-1.761 1.664,0 3.168,0.671 4.257,1.761 1.086,1.086 1.762,2.594 1.762,4.258 0,1.664 -0.676,3.168 -1.762,4.258 v 0.019" /><path
         id="path114"
         style="fill:#b0673e;fill-opacity:1;fill-rule:nonzero;stroke:none"
         d="m 893.215,585.254 c 6.844,0 13.039,-2.774 17.523,-7.262 4.485,-4.484 7.262,-10.679 7.262,-17.523 0,-6.844 -2.777,-13.039 -7.262,-17.524 -4.484,-4.488 -10.683,-7.261 -17.523,-7.261 -6.844,0 -13.043,2.773 -17.527,7.261 -4.481,4.485 -7.258,10.68 -7.258,17.524 0,6.844 2.777,13.039 7.258,17.523 4.484,4.488 10.683,7.262 17.527,7.262 z m 10.562,-14.223 c -2.699,2.703 -6.437,4.375 -10.562,4.375 -4.125,0 -7.863,-1.672 -10.563,-4.375 -2.703,-2.703 -4.375,-6.437 -4.375,-10.562 0,-4.129 1.672,-7.86 4.375,-10.563 2.7,-2.703 6.438,-4.371 10.563,-4.371 4.125,0 7.863,1.668 10.562,4.371 2.703,2.703 4.375,6.434 4.375,10.563 0,4.125 -1.672,7.859 -4.375,10.562" /><path
         id="path116"
         style="fill:#1e579a;fill-opacity:1;fill-rule:nonzero;stroke:none"
         d="m 145.871,560.742 c -4.898,5.613 -11.652,13.242 -24.523,13.242 -12.871,0 -19.598,-7.679 -24.5238,-13.242 -4.9258,-5.562 -7.125,-7.945 -12.5547,-7.945 -5.4257,0 -7.9453,2.648 -12.5507,7.945 -4.6094,5.297 -11.6524,13.242 -24.5274,13.242 -12.8672,0 -19.5937,-7.679 -24.5195,-13.242 -4.9297,-5.562 -7.2617,-7.945 -12.5547,-7.945 H 2.17188 v -15.891 h 7.94532 c 12.8711,0 19.5976,7.68 24.5195,13.242 4.9297,5.563 7.2578,7.946 12.5547,7.946 5.2969,0 7.9492,-2.649 12.5547,-7.946 4.6094,-5.296 11.6523,-13.242 24.5234,-13.242 12.8711,0 19.5975,7.68 24.5235,13.242 4.926,5.563 7.258,7.946 12.555,7.946 5.297,0 7.945,-2.649 12.554,-7.946 4.606,-5.296 11.653,-13.242 24.524,-13.242 h 7.945 v 15.891 h -7.945 c -5.297,0 -7.946,2.648 -12.555,7.945" /><path
         id="path118"
         style="fill:#1e579a;fill-opacity:1;fill-rule:nonzero;stroke:none"
         d="m 118.699,628.539 c 0,15.891 -16.101,34.141 -23.0427,41.262 L 84.2695,681.535 72.8828,669.801 c -6.9375,-7.121 -23.043,-25.399 -23.043,-41.262 0,-19.859 15.4415,-36.016 34.4297,-36.016 18.9925,0 34.4295,16.157 34.4295,36.016 z m -52.9685,0 c 0,11.125 18.539,30.191 18.539,30.191 0,0 18.5395,-19.066 18.5395,-30.191 0,-11.121 -8.2895,-20.129 -18.5395,-20.129 -10.25,0 -18.539,9.008 -18.539,20.129" /><path
         id="path120"
         style="fill:#ec691f;fill-opacity:1;fill-rule:nonzero;stroke:none"
         d="m 592.145,611.719 c -23.868,0 -45.477,14.914 -61.125,30.562 v 12.223 h 18.335 l -6.109,18.336 h -24.449 v -30.559 c -15.652,-15.652 -37.258,-30.566 -61.125,-30.566 v -12.223 h 12.226 c 0,-25.961 -4.386,-50.746 -12.226,-73.344 h 42.953 c 10.77,10.762 19.066,23.93 24.281,38.555 5.219,-14.625 13.524,-27.793 24.282,-38.555 h 42.957 c -7.84,22.598 -12.227,47.383 -12.227,73.344 h 12.227 z M 495.23,538.371 h -21.132 c 5.285,19.766 8.027,40.242 8.027,61.121 h 36.672 c 0,-22.804 -8.395,-44.285 -23.567,-61.121 z m 80.485,0 h -21.129 c -15.172,16.836 -23.566,38.317 -23.566,61.121 h 36.675 c 0,-20.879 2.739,-41.355 8.02,-61.121 z m -76.238,73.348 c 9.847,5.73 18.441,12.75 25.429,19.445 6.996,-6.691 15.594,-13.715 25.442,-19.445 h -50.871" /><path
         id="path122"
         style="fill:#dc1d42;fill-opacity:1;fill-rule:nonzero;stroke:none"
         d="m 371.91,642.875 h -23.957 v 23.957 H 240.152 V 547.055 c 0,-13.231 10.727,-23.957 23.957,-23.957 L 324,523.09 c 13.23,0 23.953,10.73 23.953,23.961 v 14.043 l 28.918,28.91 c 4.332,4.344 7.016,10.332 7.016,16.937 v 23.957 c 0,6.614 -5.367,11.977 -11.977,11.977 z m -35.933,11.98 v -11.98 h -83.844 v 11.98 z M 324,535.074 l -59.891,0.004 c -6.609,0 -11.976,5.371 -11.976,11.977 v 83.843 h 11.976 v -83.843 h 11.981 v 83.843 h 11.976 v -83.843 h 11.977 v 83.843 H 312.02 V 547.055 H 324 v 83.843 h 11.977 v -83.847 c 0,-6.606 -5.375,-11.977 -11.977,-11.977 z m 47.91,71.867 c 0,-3.191 -1.242,-6.199 -3.508,-8.468 l -20.449,-20.446 v 52.871 h 23.957 v -23.957" /><path
         id="path124"
         style="fill:#dc1d42;fill-opacity:1;fill-rule:nonzero;stroke:none"
         d="m 771.313,561.98 -7.864,28.829 c 18.672,11.261 31.196,31.683 31.196,55.082 H 665.93 c 0,-23.399 12.523,-43.821 31.195,-55.082 l -18.324,-67.2 h 13.344 l 3.511,12.871 h 55.121 c 2.664,-7.48 9.735,-12.871 18.125,-12.871 10.661,0 19.309,8.649 19.309,19.309 0,9.84 -7.391,17.867 -16.898,19.062 z m -90.883,71.04 h 99.715 c -5.731,-22.188 -25.911,-38.614 -49.856,-38.614 -23.945,0 -44.129,16.426 -49.859,38.614 z m 70.347,-83.668 h -51.613 l 9.785,35.882 c 6.688,-2.355 13.848,-3.699 21.34,-3.699 7.488,0 14.649,1.344 21.34,3.692 l 7.082,-25.977 c -3.668,-2.293 -6.461,-5.762 -7.934,-9.898 z m 18.125,-12.872 c -3.547,0 -6.433,2.883 -6.433,6.438 0,3.551 2.886,6.434 6.433,6.434 3.551,0 6.438,-2.883 6.438,-6.434 0,-3.555 -2.887,-6.438 -6.438,-6.438" /><path
         id="path126"
         style="fill:#dc1d42;fill-opacity:1;fill-rule:nonzero;stroke:none"
         d="m 711.676,658.762 h -13.571 l 6.442,19.308 h 13.566 l -6.437,-19.308" /><path
         id="path128"
         style="fill:#dc1d42;fill-opacity:1;fill-rule:nonzero;stroke:none"
         d="m 737.422,658.762 h -13.57 l 6.437,19.308 h 13.574 l -6.441,-19.308" /><path
         id="path130"
         style="fill:#dc1d42;fill-opacity:1;fill-rule:nonzero;stroke:none"
         d="m 763.172,658.762 h -13.574 l 6.433,19.308 h 13.574 l -6.433,-19.308" /><path
         id="path132"
         style="fill:#dc1d42;fill-opacity:1;fill-rule:nonzero;stroke:none"
         d="m 768.434,523.609 h 0.468 c -0.164,0 -0.32,0.043 -0.484,0.051 l 0.016,-0.051" /><path
         id="path134"
         style="fill:#1e579a;fill-opacity:1;fill-rule:nonzero;stroke:none"
         d="m 1398.99,294.227 c -4.9,5.609 -11.65,13.238 -24.52,13.238 -12.87,0 -19.6,-7.68 -24.52,-13.238 -4.93,-5.563 -7.13,-7.946 -12.56,-7.946 -5.43,0 -7.94,2.645 -12.55,7.946 -4.61,5.293 -11.65,13.238 -24.52,13.238 -12.87,0 -19.6,-7.68 -24.53,-13.238 -4.92,-5.563 -7.25,-7.946 -12.55,-7.946 h -7.95 v -15.894 h 7.95 c 12.87,0 19.6,7.679 24.52,13.242 4.93,5.562 7.26,7.945 12.56,7.945 5.29,0 7.94,-2.648 12.55,-7.945 4.61,-5.293 11.65,-13.242 24.52,-13.242 12.87,0 19.6,7.679 24.53,13.242 4.92,5.562 7.25,7.945 12.55,7.945 5.3,0 7.95,-2.648 12.55,-7.945 4.61,-5.293 11.66,-13.242 24.53,-13.242 h 7.94 v 15.894 h -7.94 c -5.3,0 -7.95,2.645 -12.56,7.946" /><path
         id="path136"
         style="fill:#1e579a;fill-opacity:1;fill-rule:nonzero;stroke:none"
         d="m 1371.82,362.02 c 0,15.894 -16.1,34.14 -23.04,41.261 l -11.39,11.735 -11.39,-11.735 c -6.93,-7.121 -23.04,-25.394 -23.04,-41.261 0,-19.86 15.44,-36.016 34.43,-36.016 18.99,0 34.43,16.156 34.43,36.016 z m -52.96,0 c 0,11.125 18.53,30.195 18.53,30.195 0,0 18.54,-19.07 18.54,-30.195 0,-11.122 -8.29,-20.125 -18.54,-20.125 -10.25,0 -18.53,9.003 -18.53,20.125" /><path
         id="path138"
         style="fill:#149b76;fill-opacity:1;fill-rule:nonzero;stroke:none"
         d="m 1181.51,407.434 -8.58,8.582 -15.46,-15.461 c -26.2,21.871 -65.22,20.527 -89.83,-4.071 4.31,-4.312 9.02,-7.949 13.89,-11.25 -12.58,-1.816 -24.78,-8.531 -34.44,-20.195 3.56,-4.309 7.5,-7.863 11.64,-10.832 -10.28,-6.566 -18.52,-16.98 -22.8,-30.844 5.87,-3.093 11.81,-5.125 17.68,-6.183 -12.33,-10.61 -19.23,-27.133 -17.4,-46.489 19.33,-1.808 35.85,5.098 46.47,17.43 1.05,-5.871 3.08,-11.812 6.18,-17.672 13.85,4.278 24.26,12.5 30.83,22.789 2.97,-4.148 6.52,-8.086 10.83,-11.652 11.61,9.609 18.3,21.723 20.16,34.242 3.33,-4.91 7.11,-9.492 11.3,-13.68 24.59,24.598 25.93,63.622 4.07,89.829 z m -129.59,-77.457 c 4.7,8.214 11.54,14.156 19.63,17.351 1.24,-0.449 2.5,-0.797 3.75,-1.148 -2.66,-5.356 -4.79,-11.082 -6.13,-17.223 -1.97,-0.316 -3.99,-0.519 -6.04,-0.519 -3.74,0 -7.48,0.519 -11.21,1.539 z m 20.93,-34.77 c -6.17,-6.777 -14.69,-11.023 -24.42,-12.281 1.09,8.484 4.44,16.066 9.82,21.984 2.6,2.848 5.68,5.137 9.01,7.051 -0.04,-3.211 0.07,-6.484 0.39,-9.82 3.34,-0.313 6.62,-0.426 9.83,-0.383 -1.33,-2.332 -2.82,-4.567 -4.63,-6.551 z m -8.48,69.832 c 7.25,5.609 15.59,8.621 24.23,8.621 6.15,0 12.12,-1.594 17.69,-4.496 -1.33,-3.223 -2.46,-6.492 -3.41,-9.812 -4.58,-1.872 -9.36,-2.95 -14.27,-2.95 -0.01,0 -0.01,0 -0.01,0 -8.64,0 -16.98,3.012 -24.23,8.637 z m 15.06,-51.117 c 0.45,11.148 3.39,21.476 8.52,30.387 4.03,-0.055 8.06,0.449 12.03,1.386 -0.54,-4.019 -0.89,-8.054 -0.89,-12.101 4.11,0.008 8.12,0.347 12.09,0.871 -0.94,-3.977 -1.44,-8.016 -1.38,-12.059 -8.87,-5.101 -19.22,-8.027 -30.37,-8.484 z m 33.28,-8.406 c -3.3,-7.981 -9.27,-14.539 -17.24,-19.094 -1.6,5.84 -1.83,11.664 -0.95,17.258 6.12,1.351 11.81,3.476 17.14,6.133 0.37,-1.293 0.73,-2.579 1.19,-3.852 -0.05,-0.141 -0.08,-0.305 -0.14,-0.445 z m 17.81,-6.641 c -5.63,7.258 -8.64,15.594 -8.64,24.238 0.01,4.899 1.08,9.68 2.95,14.242 3.36,0.969 6.63,2.098 9.83,3.411 2.89,-5.547 4.48,-11.516 4.48,-17.653 0,-8.644 -3.01,-16.98 -8.62,-24.238 z m 31.13,22.43 c -5.2,7.371 -9.2,15.601 -11.76,24.308 l -3.96,13.426 -12.73,-5.816 c -6.75,-3.086 -13.74,-5.223 -20.89,-6.41 1.18,7.121 3.32,14.093 6.4,20.851 l 5.82,12.731 -13.43,3.945 c -8.7,2.555 -16.94,6.57 -24.34,11.82 8.39,5.043 18.01,7.731 28.05,7.731 14.57,0 28.28,-5.676 38.58,-15.985 18.04,-18.031 20.79,-45.644 8.26,-66.601" /><path
         id="path140"
         style="fill:#ec691f;fill-opacity:1;fill-rule:nonzero;stroke:none"
         d="m 948.918,422.488 v -12.269 l -20.891,-8.953 c -1.996,-0.856 -3.863,-2.243 -5.535,-3.899 -1.668,1.656 -3.535,3.047 -5.535,3.899 l -20.891,8.953 v 12.269 H 882.855 V 310.18 c 0,-7.262 5.465,-15.555 12.141,-18.418 l 20.891,-8.949 v -18.875 h 13.215 v 18.875 l 20.89,8.949 c 6.676,2.863 12.141,11.156 12.141,18.418 v 112.308 z m -33.031,-126.465 -13.75,5.887 c -3.336,1.43 -6.071,5.582 -6.071,9.211 v 6.606 l 13.75,-5.899 c 3.332,-1.433 6.067,-5.574 6.067,-9.199 v -6.606 z m 0,26.43 -13.75,5.883 c -3.336,1.434 -6.071,5.586 -6.071,9.211 v 6.609 l 13.75,-5.898 c 3.332,-1.434 6.067,-5.574 6.067,-9.203 v -6.602 z m 0,26.426 -13.75,5.887 c -3.336,1.433 -6.071,5.582 -6.071,9.207 v 6.605 l 13.75,-5.89 c 3.332,-1.434 6.067,-5.579 6.067,-9.208 v -6.601 z m 0,26.422 -13.75,5.89 c -3.336,1.434 -6.071,5.579 -6.071,9.204 v 6.609 l 13.75,-5.891 c 3.332,-1.433 6.067,-5.582 6.067,-9.207 v -6.605 z m 33.031,-64.18 c 0,-3.625 -2.734,-7.781 -6.07,-9.211 l -13.75,-5.883 v 6.61 c 0,3.621 2.738,7.761 6.07,9.195 l 13.75,5.902 v -6.613 z m 0,26.43 c 0,-3.625 -2.734,-7.781 -6.07,-9.215 l -13.75,-5.879 v 6.602 c 0,3.629 2.738,7.769 6.07,9.203 l 13.75,5.894 v -6.605 z m 0,26.422 c 0,-3.625 -2.734,-7.774 -6.07,-9.207 l -13.75,-5.887 v 6.601 c 0,3.629 2.738,7.774 6.07,9.208 l 13.75,5.89 v -6.605 z m 0,26.425 c 0,-3.625 -2.734,-7.773 -6.07,-9.207 l -13.75,-5.886 v 6.605 c 0,3.625 2.738,7.774 6.07,9.207 l 13.75,5.887 v -6.606 0" /><path
         id="path142"
         style="fill:#b0673e;fill-opacity:1;fill-rule:nonzero;stroke:none"
         d="m 737.621,388.02 c 16.317,0 31.09,-6.618 41.781,-17.309 10.578,-10.582 17.164,-25.152 17.301,-41.262 -4.41,4.074 -9.785,7.117 -15.738,8.762 -1.817,8.516 -6.074,16.121 -12.004,22.055 -8.02,8.019 -19.102,12.976 -31.34,12.976 -3.797,0 -7.473,-0.472 -10.969,-1.363 -3.554,-0.902 -6.89,-2.203 -9.957,-3.848 -0.3,-0.179 -0.609,-0.34 -0.937,-0.48 -3.746,-1.594 -8.07,0.152 -9.664,3.894 -1.824,4.274 -4.887,7.903 -8.735,10.446 -3.695,2.441 -8.152,3.863 -12.964,3.863 -6.508,0 -12.407,-2.637 -16.665,-6.902 -4.269,-4.262 -6.906,-10.157 -6.906,-16.664 0,-6.508 2.637,-12.403 6.906,-16.665 4.262,-4.261 10.157,-6.902 16.665,-6.902 0.886,0 0.144,-0.031 0.621,-0.016 l 0.617,0.028 c 0.219,0.008 0.441,0.012 0.664,0 4.062,-0.172 7.211,-3.613 7.039,-7.672 l -0.043,-1.027 c -0.008,-0.391 0.02,0.058 0.02,-1 0,-12.239 4.957,-23.321 12.976,-31.34 7.699,-7.696 18.219,-12.574 29.879,-12.949 1.887,-3.915 4.418,-7.461 7.457,-10.5 1.238,-1.243 2.566,-2.399 3.969,-3.457 -3.242,-0.555 -6.574,-0.84 -9.973,-0.84 -16.312,0 -31.082,6.613 -41.777,17.304 -9.664,9.664 -15.996,22.661 -17.125,37.114 -8.313,1.238 -15.762,5.14 -21.438,10.816 -6.937,6.934 -11.23,16.523 -11.23,27.106 0,10.589 4.293,20.171 11.23,27.113 6.938,6.933 16.524,11.226 27.114,11.226 7.773,0 15.027,-2.336 21.101,-6.347 4.113,-2.715 7.676,-6.211 10.473,-10.274 2.297,0.91 4.648,1.672 7.047,2.285 4.683,1.192 9.578,1.829 14.605,1.829" /><path
         id="path144"
         style="fill:#b0673e;fill-opacity:1;fill-rule:nonzero;stroke:none"
         d="m 770.73,339.594 c 10.586,0 20.172,-4.293 27.11,-11.231 6.937,-6.937 11.23,-16.523 11.23,-27.109 0,-10.582 -4.293,-20.172 -11.23,-27.109 -6.938,-6.938 -16.524,-11.227 -27.11,-11.227 -10.585,0 -20.171,4.289 -27.105,11.227 -6.941,6.937 -11.234,16.523 -11.234,27.109 0,10.586 4.293,20.172 11.234,27.109 6.934,6.938 16.52,11.231 27.105,11.231 z m 16.665,-21.676 c -4.262,4.266 -10.157,6.902 -16.665,6.902 -6.507,0 -12.402,-2.636 -16.664,-6.902 -4.261,-4.262 -6.902,-10.156 -6.902,-16.664 0,-6.508 2.641,-12.402 6.902,-16.664 4.262,-4.262 10.157,-6.902 16.664,-6.902 6.508,0 12.403,2.64 16.665,6.902 4.265,4.262 6.902,10.156 6.902,16.664 0,6.508 -2.637,12.402 -6.902,16.664" /><path
         id="path146"
         style="fill:#b0673e;fill-opacity:1;fill-rule:nonzero;stroke:none"
         d="m 724.406,422.09 c 4.367,0 8.332,-1.781 11.211,-4.66 l 0.012,0.008 c 2.871,-2.872 4.648,-6.836 4.648,-11.215 0,-4.383 -1.777,-8.352 -4.648,-11.223 -2.871,-2.871 -6.84,-4.648 -11.223,-4.648 -4.379,0 -8.343,1.777 -11.218,4.648 l 0.011,0.012 c -2.879,2.879 -4.66,6.843 -4.66,11.211 0,4.355 1.777,8.316 4.649,11.199 l 0.019,0.016 c 2.883,2.875 6.844,4.652 11.199,4.652 z m 4.262,-11.594 c -1.078,1.078 -2.582,1.742 -4.262,1.742 -1.676,0 -3.179,-0.664 -4.258,-1.742 l -0.015,-0.019 c -1.078,-1.075 -1.742,-2.579 -1.742,-4.254 0,-1.68 0.664,-3.184 1.742,-4.262 h 0.015 c 1.09,-1.09 2.598,-1.762 4.258,-1.762 1.664,0 3.172,0.672 4.262,1.762 1.09,1.09 1.762,2.598 1.762,4.262 0,1.66 -0.672,3.168 -1.762,4.254 v 0.019" /><path
         id="path148"
         style="fill:#b0673e;fill-opacity:1;fill-rule:nonzero;stroke:none"
         d="m 655.23,327.23 c 6.844,0 13.04,-2.777 17.524,-7.261 4.488,-4.485 7.262,-10.684 7.262,-17.524 0,-6.843 -2.774,-13.039 -7.262,-17.527 -4.484,-4.484 -10.68,-7.258 -17.524,-7.258 -6.843,0 -13.039,2.774 -17.523,7.258 -4.488,4.484 -7.262,10.684 -7.262,17.527 0,6.844 2.774,13.039 7.262,17.524 4.484,4.484 10.68,7.261 17.523,7.261 z m 10.563,-14.222 c -2.703,2.699 -6.438,4.375 -10.563,4.375 -4.125,0 -7.859,-1.676 -10.562,-4.375 -2.703,-2.703 -4.375,-6.438 -4.375,-10.563 0,-4.129 1.672,-7.863 4.375,-10.566 2.703,-2.699 6.437,-4.371 10.562,-4.371 4.125,0 7.86,1.672 10.563,4.371 2.703,2.703 4.375,6.437 4.375,10.566 0,4.125 -1.672,7.86 -4.375,10.563" /><path
         id="path150"
         style="fill:#ec691f;fill-opacity:1;fill-rule:nonzero;stroke:none"
         d="m 354.16,353.695 c -23.867,0 -45.472,14.91 -61.125,30.563 v 12.222 h 18.336 l -6.113,18.336 H 280.813 V 384.254 C 265.16,368.602 243.551,353.691 219.691,353.691 v -12.222 h 12.223 c 0,-25.965 -4.391,-50.746 -12.223,-73.344 h 42.954 c 10.765,10.758 19.062,23.93 24.281,38.551 5.215,-14.621 13.519,-27.793 24.277,-38.551 h 42.957 c -7.836,22.598 -12.226,47.379 -12.226,73.344 h 12.226 z m -96.914,-73.347 h -21.129 c 5.285,19.761 8.024,40.242 8.024,61.121 h 36.672 c 0,-22.805 -8.391,-44.289 -23.567,-61.121 z m 80.484,0 h -21.128 c -15.176,16.832 -23.567,38.316 -23.567,61.121 h 36.672 c 0,-20.879 2.742,-41.36 8.023,-61.121 z m -76.242,73.347 c 9.852,5.731 18.446,12.746 25.438,19.446 6.992,-6.692 15.59,-13.715 25.437,-19.446 h -50.875" /><path
         id="path152"
         style="fill:#dc1d42;fill-opacity:1;fill-rule:nonzero;stroke:none"
         d="m 133.926,384.852 h -23.953 v 23.957 H 2.17188 V 289.027 c 0,-13.222 10.72652,-23.953 23.95312,-23.953 l 59.8906,-0.008 c 13.2305,0 23.9574,10.731 23.9574,23.957 v 14.043 l 28.914,28.914 c 4.332,4.344 7.015,10.329 7.015,16.938 v 23.953 c 0,6.617 -5.367,11.981 -11.976,11.981 z m -35.9338,11.98 v -11.98 H 14.1484 v 11.98 z M 86.0156,277.047 26.125,277.055 c -6.6055,0 -11.9766,5.371 -11.9766,11.976 v 83.84 H 26.125 v -83.844 h 11.9766 v 83.844 H 50.082 v -83.844 h 11.9766 v 83.844 h 11.9805 v -83.844 h 11.9765 v 83.844 h 11.9766 v -83.848 c 0,-6.605 -5.375,-11.976 -11.9766,-11.976 z m 47.9104,71.871 c 0,-3.191 -1.246,-6.199 -3.508,-8.469 l -20.445,-20.445 v 52.867 h 23.953 v -23.953" /><path
         id="path154"
         style="fill:#dc1d42;fill-opacity:1;fill-rule:nonzero;stroke:none"
         d="m 533.328,303.953 -7.863,28.832 c 18.672,11.262 31.195,31.684 31.195,55.082 H 427.945 c 0,-23.398 12.528,-43.82 31.2,-55.082 l -18.329,-67.199 h 13.344 l 3.512,12.871 h 55.121 c 2.664,-7.48 9.734,-12.871 18.129,-12.871 10.656,0 19.305,8.644 19.305,19.309 0,9.835 -7.391,17.867 -16.899,19.058 z m -90.883,71.043 h 99.719 c -5.734,-22.187 -25.918,-38.617 -49.859,-38.617 -23.946,0 -44.125,16.43 -49.86,38.617 z m 70.348,-83.668 H 461.18 l 9.785,35.883 c 6.687,-2.359 13.848,-3.703 21.34,-3.703 7.492,0 14.652,1.344 21.34,3.695 l 7.078,-25.976 c -3.66,-2.293 -6.461,-5.762 -7.93,-9.899 z m 18.129,-12.871 c -3.555,0 -6.442,2.883 -6.442,6.438 0,3.546 2.887,6.433 6.442,6.433 3.547,0 6.433,-2.887 6.433,-6.433 0,-3.555 -2.886,-6.438 -6.433,-6.438" /><path
         id="path156"
         style="fill:#dc1d42;fill-opacity:1;fill-rule:nonzero;stroke:none"
         d="m 473.695,400.738 h -13.57 l 6.438,19.305 h 13.566 l -6.434,-19.305" /><path
         id="path158"
         style="fill:#dc1d42;fill-opacity:1;fill-rule:nonzero;stroke:none"
         d="m 499.438,400.738 h -13.571 l 6.438,19.305 h 13.574 l -6.441,-19.305" /><path
         id="path160"
         style="fill:#dc1d42;fill-opacity:1;fill-rule:nonzero;stroke:none"
         d="m 525.184,400.738 h -13.575 l 6.438,19.305 h 13.574 l -6.437,-19.305" /><path
         id="path162"
         style="fill:#dc1d42;fill-opacity:1;fill-rule:nonzero;stroke:none"
         d="m 530.445,265.586 h 0.477 c -0.168,0 -0.32,0.039 -0.488,0.047 l 0.011,-0.047" /><path
         id="path164"
         style="fill:#dc1d42;fill-opacity:1;fill-rule:nonzero;stroke:none"
         d="m 1407.52,132.59 h -23.96 v 23.957 h -107.8 V 36.7695 c 0,-13.2265 10.73,-23.957 23.95,-23.957 l 59.9,-0.0039 c 13.23,0 23.95,10.7266 23.95,23.957 v 14.043 l 28.92,28.9102 c 4.33,4.3437 7.01,10.332 7.01,16.9414 v 23.9528 c 0,6.614 -5.36,11.977 -11.97,11.977 z m -35.94,11.98 v -11.98 h -83.84 v 11.98 z m -11.97,-119.7809 -59.9,0.0039 c -6.6,0 -11.97,5.375 -11.97,11.9765 v 83.8435 h 11.97 V 36.7695 h 11.98 v 83.8435 h 11.98 V 36.7695 h 11.98 v 83.8435 h 11.98 V 36.7695 h 11.98 v 83.8435 h 11.97 V 36.7656 c 0,-6.6054 -5.37,-11.9765 -11.97,-11.9765 z m 47.91,71.8711 c 0,-3.1954 -1.25,-6.2032 -3.51,-8.4727 l -20.45,-20.4453 v 52.8708 h 23.96 V 96.6602" /><path
         id="path166"
         style="fill:#1e579a;fill-opacity:1;fill-rule:nonzero;stroke:none"
         d="m 1181.48,36.1992 c -4.91,5.6133 -11.66,13.2422 -24.53,13.2422 -12.87,0 -19.59,-7.6797 -24.52,-13.2422 -4.93,-5.5625 -7.13,-7.9453 -12.55,-7.9453 -5.43,0 -7.95,2.6484 -12.56,7.9453 -4.61,5.2969 -11.65,13.2422 -24.52,13.2422 -12.87,0 -19.6,-7.6797 -24.53,-13.2422 -4.92,-5.5625 -7.25,-7.9453 -12.55,-7.9453 h -7.95 V 12.3633 h 7.95 c 12.87,0 19.6,7.6797 24.53,13.2422 4.92,5.5625 7.25,7.9453 12.55,7.9453 5.29,0 7.94,-2.6485 12.55,-7.9453 4.61,-5.2969 11.65,-13.2422 24.53,-13.2422 12.86,0 19.59,7.6797 24.52,13.2422 4.92,5.5625 7.26,7.9453 12.55,7.9453 5.3,0 7.95,-2.6485 12.56,-7.9453 4.6,-5.2969 11.65,-13.2422 24.52,-13.2422 h 7.94 v 15.8906 h -7.94 c -5.3,0 -7.94,2.6484 -12.55,7.9453" /><path
         id="path168"
         style="fill:#1e579a;fill-opacity:1;fill-rule:nonzero;stroke:none"
         d="m 1154.3,103.996 c 0,15.895 -16.1,34.141 -23.03,41.262 l -11.39,11.734 -11.39,-11.734 c -6.94,-7.121 -23.04,-25.399 -23.04,-41.262 0,-19.8593 15.43,-36.0155 34.43,-36.0155 18.98,0 34.42,16.1562 34.42,36.0155 z m -52.96,0 c 0,11.125 18.54,30.192 18.54,30.192 0,0 18.53,-19.067 18.53,-30.192 0,-11.121 -8.28,-20.1288 -18.53,-20.1288 -10.25,0 -18.54,9.0078 -18.54,20.1288" /><path
         id="path170"
         style="fill:#149b76;fill-opacity:1;fill-rule:nonzero;stroke:none"
         d="m 963.992,149.41 -8.582,8.582 -15.453,-15.461 c -26.211,21.867 -65.227,20.528 -89.832,-4.07 4.309,-4.313 9.02,-7.949 13.887,-11.254 -12.582,-1.816 -24.778,-8.531 -34.442,-20.191 3.559,-4.313 7.5,-7.8676 11.649,-10.8324 -10.293,-6.5703 -18.528,-16.9844 -22.805,-30.8438 5.867,-3.0976 11.809,-5.1289 17.68,-6.1835 -12.336,-10.6094 -19.231,-27.1329 -17.403,-46.4883 19.336,-1.8086 35.852,5.0937 46.469,17.4258 1.055,-5.8672 3.078,-11.8086 6.184,-17.6719 13.851,4.2812 24.261,12.5039 30.828,22.7929 2.969,-4.1484 6.527,-8.0859 10.832,-11.6523 11.601,9.6094 18.297,21.7227 20.16,34.2422 3.332,-4.9141 7.109,-9.4922 11.293,-13.6797 24.602,24.5977 25.934,63.621 4.074,89.824 z M 834.398,71.9492 c 4.704,8.2149 11.547,14.1602 19.633,17.3555 1.246,-0.4531 2.5,-0.7969 3.758,-1.1484 -2.664,-5.3555 -4.793,-11.086 -6.137,-17.2266 -1.972,-0.3125 -3.984,-0.5156 -6.043,-0.5156 -3.734,0 -7.476,0.5156 -11.211,1.5351 z m 20.934,-34.7656 c -6.168,-6.7773 -14.687,-11.0234 -24.414,-12.2813 1.082,8.4844 4.43,16.0665 9.82,21.9844 2.594,2.8438 5.676,5.1367 9.004,7.0508 -0.039,-3.2109 0.074,-6.4844 0.395,-9.8203 3.34,-0.3164 6.609,-0.4258 9.832,-0.3867 -1.34,-2.3282 -2.832,-4.5625 -4.637,-6.5469 z m -8.48,69.8324 c 7.253,5.609 15.593,8.621 24.23,8.621 6.145,0 12.121,-1.594 17.688,-4.496 -1.325,-3.223 -2.454,-6.493 -3.411,-9.813 -4.57,-1.8749 -9.359,-2.953 -14.269,-2.953 -0.008,0 -0.008,0 -0.008,0 -8.637,0.0039 -16.977,3.016 -24.23,8.641 z m 15.062,-51.1176 c 0.449,11.1485 3.387,21.4766 8.512,30.3829 4.035,-0.0508 8.066,0.4492 12.031,1.3906 -0.531,-4.0196 -0.887,-8.0547 -0.887,-12.1016 4.11,0.0078 8.129,0.3438 12.086,0.8672 -0.937,-3.9727 -1.433,-8.0117 -1.375,-12.0547 -8.875,-5.1015 -19.215,-8.0273 -30.367,-8.4844 z m 33.281,-8.4062 c -3.304,-7.9844 -9.277,-14.5391 -17.242,-19.0938 -1.598,5.8399 -1.836,11.6641 -0.945,17.2579 6.113,1.3476 11.805,3.4765 17.137,6.1289 0.363,-1.293 0.722,-2.5743 1.191,-3.8477 -0.055,-0.1406 -0.082,-0.3047 -0.141,-0.4453 z M 913,40.8516 c -5.625,7.2539 -8.637,15.5937 -8.637,24.2382 0.012,4.8985 1.082,9.6758 2.946,14.2422 3.363,0.9649 6.636,2.0977 9.836,3.4102 2.89,-5.5508 4.476,-11.5195 4.476,-17.6524 0.004,-8.6445 -3.008,-16.9843 -8.621,-24.2382 z m 31.133,22.4297 c -5.207,7.371 -9.207,15.5976 -11.766,24.3085 l -3.953,13.4262 -12.73,-5.8207 c -6.75,-3.082 -13.739,-5.2226 -20.891,-6.4062 1.184,7.1211 3.324,14.0899 6.406,20.8479 l 5.809,12.73 -13.422,3.949 c -8.703,2.555 -16.945,6.567 -24.34,11.821 8.387,5.039 18.008,7.73 28.047,7.73 14.57,0 28.273,-5.679 38.586,-15.984 18.031,-18.035 20.777,-45.6486 8.254,-66.6017" /><path
         id="path172"
         style="fill:#ec691f;fill-opacity:1;fill-rule:nonzero;stroke:none"
         d="m 731.402,164.465 v -12.274 l -20.89,-8.953 c -2,-0.851 -3.864,-2.238 -5.535,-3.894 -1.672,1.656 -3.536,3.043 -5.536,3.894 l -20.89,8.953 v 12.274 H 665.34 V 52.1563 c 0,-7.2657 5.461,-15.5547 12.14,-18.418 l 20.891,-8.9531 V 5.91406 h 13.211 V 24.7852 l 20.895,8.9531 c 6.671,2.8633 12.14,11.1523 12.14,18.418 V 164.465 Z M 698.371,38 l -13.75,5.8828 c -3.336,1.4336 -6.074,5.586 -6.074,9.2149 v 6.6054 l 13.75,-5.9023 c 3.336,-1.4297 6.07,-5.5703 6.07,-9.1953 V 38 Z m 0,26.4258 -13.75,5.8867 c -3.336,1.4336 -6.074,5.582 -6.074,9.2109 v 6.6055 l 13.75,-5.8984 c 3.336,-1.4297 6.07,-5.5703 6.07,-9.1992 v -6.6055 z m 0,26.4258 -13.75,5.8906 c -3.336,1.4336 -6.074,5.5778 -6.074,9.2068 v 6.602 l 13.75,-5.887 c 3.336,-1.434 6.07,-5.582 6.07,-9.207 v -6.6054 z m 0,26.4214 -13.75,5.891 c -3.336,1.438 -6.074,5.578 -6.074,9.207 v 6.606 l 13.75,-5.891 c 3.336,-1.43 6.07,-5.578 6.07,-9.203 v -6.61 z m 33.031,-64.1753 c 0,-3.6289 -2.738,-7.7813 -6.07,-9.211 L 711.582,38 v 6.6094 c 0,3.6211 2.734,7.7656 6.066,9.1992 l 13.75,5.9023 v -6.6132 z m 0,26.4296 c 0,-3.6289 -2.738,-7.7812 -6.07,-9.2148 l -13.75,-5.8828 v 6.6055 c 0,3.625 2.734,7.7695 6.066,9.1992 l 13.75,5.8945 v -6.6016 z m 0,26.4217 c 0,-3.629 -2.738,-7.7732 -6.07,-9.2068 l -13.75,-5.8906 v 6.6054 c 0,3.625 2.734,7.773 6.066,9.207 l 13.75,5.887 v -6.602 z m 0,26.426 c 0,-3.629 -2.738,-7.773 -6.07,-9.207 l -13.75,-5.891 v 6.61 c 0,3.621 2.734,7.769 6.066,9.203 l 13.75,5.89 v -6.605 h 0.004" /><path
         id="path174"
         style="fill:#b0673e;fill-opacity:1;fill-rule:nonzero;stroke:none"
         d="m 520.105,129.992 c 16.313,0 31.09,-6.613 41.782,-17.304 10.578,-10.583 17.164,-25.1528 17.301,-41.2622 -4.415,4.0703 -9.79,7.1172 -15.743,8.7617 -1.816,8.5117 -6.074,16.1211 -12.004,22.0545 -8.019,8.016 -19.097,12.977 -31.336,12.977 -3.796,0 -7.472,-0.473 -10.972,-1.364 -3.551,-0.902 -6.887,-2.203 -9.957,-3.847 -0.297,-0.18 -0.61,-0.34 -0.938,-0.485 -3.742,-1.589 -8.07,0.153 -9.664,3.899 -1.824,4.269 -4.883,7.902 -8.73,10.445 -3.699,2.442 -8.156,3.863 -12.969,3.863 -6.508,0 -12.402,-2.636 -16.664,-6.902 -4.266,-4.262 -6.902,-10.156 -6.902,-16.664 0,-6.5077 2.636,-12.4023 6.902,-16.664 4.262,-4.2617 10.156,-6.9023 16.664,-6.9023 0.891,0 0.145,-0.0313 0.621,-0.0196 l 0.621,0.0313 c 0.215,0.0078 0.438,0.0078 0.66,0 4.063,-0.1758 7.215,-3.6133 7.039,-7.6719 l -0.039,-1.0273 c -0.007,-0.3907 0.016,0.0546 0.016,-1.0039 0,-12.2383 4.961,-23.3165 12.98,-31.336 7.696,-7.6992 18.219,-12.5742 29.879,-12.9531 1.883,-3.9141 4.414,-7.457 7.453,-10.4961 1.239,-1.2422 2.567,-2.3984 3.969,-3.4609 -3.242,-0.5508 -6.57,-0.8399 -9.969,-0.8399 -16.316,0 -31.085,6.6172 -41.781,17.3047 -9.66,9.668 -15.996,22.6602 -17.121,37.1172 -8.316,1.2344 -15.765,5.1406 -21.437,10.8125 -6.938,6.9375 -11.231,16.5234 -11.231,27.1093 0,10.586 4.293,20.172 11.231,27.109 6.937,6.938 16.523,11.231 27.109,11.231 7.773,0 15.031,-2.336 21.102,-6.348 4.113,-2.718 7.675,-6.215 10.476,-10.277 2.293,0.91 4.649,1.676 7.047,2.285 4.68,1.191 9.574,1.828 14.605,1.828" /><path
         id="path176"
         style="fill:#b0673e;fill-opacity:1;fill-rule:nonzero;stroke:none"
         d="m 553.215,81.5664 c 10.586,0 20.172,-4.2891 27.105,-11.2266 6.938,-6.9414 11.235,-16.5234 11.235,-27.1132 0,-10.5821 -4.293,-20.168 -11.235,-27.1055 -6.933,-6.93751 -16.519,-11.23047 -27.105,-11.23047 -10.59,0 -20.172,4.29296 -27.11,11.23047 -6.937,6.9375 -11.23,16.5234 -11.23,27.1055 0,10.5898 4.293,20.1718 11.23,27.1132 6.938,6.9375 16.52,11.2266 27.11,11.2266 z m 16.664,-21.6719 c -4.266,4.2657 -10.156,6.9024 -16.664,6.9024 -6.508,0 -12.402,-2.6367 -16.664,-6.9024 -4.266,-4.2656 -6.903,-10.1562 -6.903,-16.6679 0,-6.5078 2.637,-12.3985 6.903,-16.6641 4.262,-4.2617 10.156,-6.8984 16.664,-6.8984 6.508,0 12.398,2.6367 16.664,6.8984 4.266,4.2656 6.898,10.1563 6.898,16.6641 0,6.5117 -2.632,12.4023 -6.898,16.6679" /><path
         id="path178"
         style="fill:#b0673e;fill-opacity:1;fill-rule:nonzero;stroke:none"
         d="m 506.891,164.063 c 4.363,0 8.328,-1.778 11.211,-4.657 l 0.007,0.008 c 2.871,-2.871 4.649,-6.836 4.649,-11.219 0,-4.379 -1.778,-8.347 -4.649,-11.218 -2.871,-2.872 -6.839,-4.649 -11.218,-4.649 -4.379,0 -8.348,1.777 -11.219,4.649 l 0.012,0.007 c -2.883,2.883 -4.661,6.848 -4.661,11.211 0,4.36 1.778,8.321 4.649,11.2 l 0.019,0.019 c 2.879,2.875 6.84,4.649 11.2,4.649 z m 4.257,-11.59 c -1.078,1.078 -2.582,1.742 -4.257,1.742 -1.676,0 -3.18,-0.664 -4.258,-1.742 l -0.02,-0.02 c -1.074,-1.078 -1.742,-2.582 -1.742,-4.258 0,-1.675 0.668,-3.179 1.742,-4.257 h 0.02 c 1.09,-1.09 2.594,-1.762 4.258,-1.762 1.664,0 3.172,0.672 4.257,1.762 1.09,1.089 1.762,2.593 1.762,4.257 0,1.664 -0.672,3.168 -1.762,4.258 v 0.02" /><path
         id="path180"
         style="fill:#b0673e;fill-opacity:1;fill-rule:nonzero;stroke:none"
         d="m 437.715,69.207 c 6.844,0 13.039,-2.7773 17.523,-7.2656 4.485,-4.4844 7.258,-10.6797 7.258,-17.5234 0,-6.8438 -2.773,-13.0391 -7.258,-17.5235 -4.484,-4.4843 -10.679,-7.2578 -17.523,-7.2578 -6.844,0 -13.039,2.7735 -17.527,7.2578 -4.485,4.4844 -7.258,10.6797 -7.258,17.5235 0,6.8437 2.773,13.039 7.258,17.5234 4.484,4.4883 10.683,7.2656 17.527,7.2656 z m 10.562,-14.2265 c -2.703,2.7031 -6.437,4.3789 -10.562,4.3789 -4.129,0 -7.863,-1.6758 -10.567,-4.3789 -2.699,-2.6992 -4.375,-6.4336 -4.375,-10.5625 0,-4.125 1.676,-7.8594 4.375,-10.5625 2.704,-2.6992 6.438,-4.3711 10.567,-4.3711 4.125,0 7.859,1.6719 10.562,4.3711 2.7,2.7031 4.371,6.4375 4.371,10.5625 0,4.1289 -1.671,7.8633 -4.371,10.5625" /><path
         id="path182"
         style="fill:#ec691f;fill-opacity:1;fill-rule:nonzero;stroke:none"
         d="m 136.641,95.668 c -23.864,0 -45.473,14.914 -61.1254,30.566 v 12.223 h 18.3399 l -6.1133,18.332 H 63.293 V 126.23 C 47.6445,110.578 26.0352,95.668 2.17188,95.668 V 83.4453 H 14.3945 c 0,-25.9648 -4.3867,-50.7461 -12.22262,-73.3437 H 45.125 C 55.8945,20.8594 64.1914,34.0273 69.4063,48.6523 74.6211,34.0273 82.9258,20.8594 93.6875,10.1016 h 42.9535 c -7.836,22.5976 -12.223,47.3789 -12.223,73.3437 h 12.223 z M 39.7266,22.3242 h -21.125 c 5.2812,19.7617 8.0195,40.2422 8.0195,61.1211 H 63.293 c 0,-22.8047 -8.3907,-44.289 -23.5664,-61.1211 z m 80.4884,0 H 99.0859 C 83.9102,39.1563 75.5156,60.6406 75.5156,83.4453 h 36.6754 c 0,-20.8789 2.739,-41.3594 8.024,-61.1211 z M 43.9727,95.668 c 9.8476,5.734 18.4414,12.75 25.4336,19.445 C 76.4023,108.422 85,101.402 94.8477,95.668 h -50.875" /><path
         id="path184"
         style="fill:#dc1d42;fill-opacity:1;fill-rule:nonzero;stroke:none"
         d="m 315.809,45.9297 -7.864,28.832 c 18.672,11.2617 31.2,31.6833 31.2,55.0783 H 210.43 c 0,-23.395 12.523,-43.8166 31.195,-55.0783 L 223.297,7.55859 h 13.344 l 3.511,12.87501 h 55.125 c 2.664,-7.4805 9.735,-12.87501 18.125,-12.87501 10.661,0 19.309,8.64841 19.309,19.30861 0,9.8398 -7.395,17.8711 -16.902,19.0625 z M 224.93,116.969 h 99.715 C 318.91,94.7852 298.73,78.3555 274.785,78.3555 c -23.941,0 -44.125,16.4297 -49.855,38.6135 z m 70.347,-83.6643 h -51.613 l 9.785,35.8789 c 6.688,-2.3555 13.848,-3.6992 21.336,-3.6992 7.492,0 14.653,1.3437 21.34,3.6953 l 7.082,-25.9766 c -3.664,-2.2968 -6.461,-5.7617 -7.93,-9.8984 z m 18.125,-12.8711 c -3.55,0 -6.437,2.8828 -6.437,6.4336 0,3.5508 2.887,6.4375 6.437,6.4375 3.551,0 6.438,-2.8867 6.438,-6.4375 0,-3.5508 -2.887,-6.4336 -6.438,-6.4336" /><path
         id="path186"
         style="fill:#dc1d42;fill-opacity:1;fill-rule:nonzero;stroke:none"
         d="m 256.176,142.715 h -13.571 l 6.438,19.305 h 13.57 l -6.437,-19.305" /><path
         id="path188"
         style="fill:#dc1d42;fill-opacity:1;fill-rule:nonzero;stroke:none"
         d="m 281.918,142.715 h -13.57 l 6.437,19.305 h 13.578 l -6.445,-19.305" /><path
         id="path190"
         style="fill:#dc1d42;fill-opacity:1;fill-rule:nonzero;stroke:none"
         d="m 307.668,142.715 h -13.574 l 6.433,19.305 h 13.578 l -6.437,-19.305" /><path
         id="path192"
         style="fill:#dc1d42;fill-opacity:1;fill-rule:nonzero;stroke:none"
         d="m 312.93,7.55859 h 0.472 c -0.168,0 -0.32,0.04297 -0.488,0.05079 l 0.016,-0.05079" /></g></g></svg>